<?xml version="1.0" encoding="utf-8"?>
<!-- Generator: Adobe Illustrator 21.0.0, SVG Export Plug-In . SVG Version: 6.00 Build 0)  -->
<svg version="1.1" id="图层_1" xmlns="http://www.w3.org/2000/svg" xmlns:xlink="http://www.w3.org/1999/xlink" x="0px" y="0px"
	 viewBox="0 0 35.3 36.3" style="enable-background:new 0 0 35.3 36.3;" xml:space="preserve">
<style type="text/css">
	.st0{fill:url(#SVGID_1_);}
	.st1{fill:url(#SVGID_2_);}
	.st2{fill:url(#SVGID_3_);}
	.st3{fill:url(#SVGID_4_);}
	.st4{fill:url(#SVGID_5_);}
</style>
<g>
	<linearGradient id="SVGID_1_" gradientUnits="userSpaceOnUse" x1="25.2309" y1="5.0734" x2="10.1217" y2="31.2431">
		<stop  offset="0" style="stop-color:#65727E"/>
		<stop  offset="0.8038" style="stop-color:#1A1A1A"/>
		<stop  offset="1" style="stop-color:#4F545E"/>
	</linearGradient>
	<path class="st0" d="M17.6,33.3C9,33.2,2.6,26.1,2.6,18.1c0-8,6.5-15,15.1-15c8.3,0,15,6.8,15,15.1C32.7,26.5,26,33.3,17.6,33.3z
		 M21.5,12.3c-0.3-0.1-0.5,0.3-0.8-0.1c0-0.1,0-0.3,0-0.5c-0.4-0.2-0.7,0.2-1,0.3c0.1-0.4,0.4-0.5,0.7-0.5c0.2,0,0.5,0,0.7,0
		c0.5,0,0.9-0.2,1.3-0.6c-0.3-0.3-0.7-0.6-0.9-0.9c-0.3-0.3-0.4-0.7-0.7-1.1c-0.2,0.2-0.4,0.4-0.6,0.6c-0.6-0.5-1.1-1.3-2.2-0.9
		c0.1,0.5,0.2,1,0.3,1.4c-0.2,0.2-0.4,0.3-0.5,0.4c0.1,0.2,0.1,0.4,0.2,0.6c-0.2,0-0.3,0-0.5,0c0-0.2-0.1-0.4-0.1-0.6
		c-0.2-0.1-0.4-0.2-0.6-0.3c-0.4-0.2-0.9-0.3-1.3-0.5c-0.3-0.1-0.5-0.3-0.6-0.6C14.9,8.5,15.5,8.3,16,8c0.1-0.2,0.2-0.3,0.3-0.5
		c0.3,0,0.5,0,0.8-0.1c0.1-0.3,0.3-0.7,0.4-1c0.6-0.1,1,0.1,1.6,0.8c-0.2,0.2-0.4,0.4-0.7,0.7c0.8-0.1,1.2,0.7,2,0.6
		c-0.1-0.1-0.2-0.2-0.3-0.3c0.2,0,0.4,0,0.5,0.1c0.2-0.5-0.6-0.4-0.4-0.9c0.2,0.1,0.3,0.3,0.4,0.4c0.4,0,0.5-0.2,0.5-0.5l0,0
		c0.2,0.1,0.4,0.3,0.6,0.4c0,0.1,0,0.2,0,0.3c0.6,0,0.6,0,0.8,0.3c-0.2,0-0.3,0-0.6-0.1c0.3,0.3,0.7,0.1,0.7,0.6
		c-0.2,0.1-0.4,0.3-0.6,0.4c0.1,0.1,0.1,0.2,0.2,0.3c0.2,0.6,0.5,1,1,1.4c0.4,0.4,0.8,0.3,1.1-0.2c0.1-0.2,0.2-0.4,0.3-0.6
		c0.2-0.4,0.4-0.6,0.8-0.6c0.1,0,0.3,0,0.4-0.1c0.5-0.4,1-0.6,1.7-0.6c-0.1-0.2-0.2-0.2-0.3-0.3c-1.8-1.8-3.9-3-6.4-3.6
		c-0.5-0.1-0.8,0-1.2,0.3c0.1,0.1,0.2,0.1,0.3,0.2c-0.5,0.4-0.9,0.1-1.4,0.1c0.9-0.5,0.9-0.5,1.1-0.8c-0.1,0-0.1,0-0.2-0.1
		c-1.1-0.2-2.3-0.1-3.4,0c-0.3,0-0.6,0.1-0.8,0.2c-0.5,0.1-0.6,0.5-0.3,0.9c0.3-0.1,0.6-0.2,0.9-0.4l0,0c-0.1,0.3,0,0.6-0.4,0.7
		C15,6.1,14.9,6,14.7,5.9c-0.1,0.1-0.3,0.2-0.4,0.3c0.2,0.2,0.3,0.3,0.5,0.5c-0.1,0.2-0.2,0.3-0.3,0.4c0,0-0.1,0-0.1-0.1
		c0-0.1,0-0.3,0-0.4c-0.2,0-0.4-0.1-0.6-0.1c0,0.2,0,0.4,0.1,0.6c-0.7-0.1-1.4-0.3-2,0C11.8,7,11.7,7,11.6,6.9c0,0,0-0.1,0-0.1
		c0.2,0,0.4,0,0.6,0c0.2,0,0.4,0,0.6,0c0.2,0,0.4-0.1,0.5-0.4c-0.2-0.1-0.4-0.1-0.5-0.2C12.8,6.1,12.8,6,12.7,6
		c-0.1-0.1-0.1-0.1-0.2-0.2C10.4,6.7,8.6,8,7.2,9.8c0.7,0.4,1.1,1,1.5,1.6C8.9,11.7,9,12,8.9,12.3c-0.2,1.1,0,2.1,1.1,2.7
		c0.1,0.1,0.2,0.2,0.3,0.3c0.4,0.5,0.8,1.1,1.1,1.6c0.1,0.1,0.1,0.1,0.2,0.2c0,0,0.1-0.1,0.1-0.1c-0.2-0.2-0.3-0.4-0.5-0.7
		c-0.1-0.2-0.3-0.5-0.4-0.7c0,0,0.1,0,0.1-0.1c0.5,0.5,1,1,1.3,1.6c0.2,0.4,0.5,0.8,1,1c0.5,0.3,1,0.6,1.5,0.4
		c0.5,0.2,0.9,0.4,1.2,0.5c0.1,0.1,0.3,0.1,0.4,0.3c0.4,0.5,0.9,0.9,1.6,0.7c0.3,0.4,0.3,0.6,0,1c-0.1,0.2-0.3,0.5-0.4,0.8
		c-0.1,0.2-0.1,0.5-0.1,0.9c0.4,0.7,0.8,1.5,1.6,2c0.4,0.2,0.6,0.6,0.5,1.1c-0.1,0.4-0.1,0.9-0.2,1.3c-0.1,0.6-0.3,1.3-0.4,1.9
		c0,0.2-0.1,0.5,0,0.7c0.1,0.4,0,0.8-0.2,1.1c0,0.1-0.1,0.1-0.1,0.2c0.1,0.1,0.2,0.2,0.3,0.3c0.5-0.1,0.9-0.1,1.2-0.2
		c0.1-0.7,0.4-1.3,1-1.8c0.6,0,0.9-0.3,1-0.9c0.2,0,0.4-0.1,0.6-0.1c0.4-0.6,1-1,1.2-1.7c0-0.1,0.2-0.3,0.4-0.3
		c0.5-0.1,0.8-0.5,1.2-0.9c0-0.2,0.1-0.4,0.1-0.6c0-0.4,0.2-0.7,0.5-1c0.7-0.7,0.6-1.2-0.4-1.5c-0.5-0.2-1.1-0.3-1.7-0.4
		c-0.1,0-0.2,0.1-0.3,0.2c0-0.2,0-0.2,0.1-0.3c-0.2,0-0.3,0-0.5,0c0.1-0.1,0.1-0.2,0.2-0.3c0-0.1,0.1-0.2,0.1-0.2
		c-0.2-0.5-0.4-0.6-0.9-0.8c-0.3-0.1-0.7-0.3-1-0.4c-0.4-0.2-0.8-0.5-1.2-0.4c-0.2-0.1-0.4-0.2-0.6-0.3c0,0,0,0.1,0,0.1
		c-0.3,0-0.6,0-0.9,0c-0.2,0.1-0.3,0.3-0.6,0.4c-0.1,0-0.3,0-0.4,0c-0.1,0-0.3,0-0.4,0c-0.5,0-0.7-0.2-0.6-0.7c0-0.2,0-0.3,0-0.5
		c-0.3-0.1-0.7,0.1-0.9-0.3c0.1-0.3,0.2-0.5,0.4-0.8c-0.4-0.3-0.6,0-0.8,0.2c-0.4,0.3-0.7,0.4-1,0.2c-0.4-0.2-0.6-0.6-0.5-1.1
		c0.1-0.5,0.4-0.8,0.9-1c0.4-0.1,0.7-0.2,1.1-0.2c0.4-0.1,0.7,0.1,0.9,0.5c0.1,0.2,0.2,0.4,0.4,0.4c0.2-0.4-0.1-0.8-0.1-1.2
		c0.3-0.3,0.6-0.5,0.9-0.8c0-0.2,0-0.3,0-0.3c0.2-0.3,0.4-0.5,0.6-0.7c0.6-0.3,0.8-1,1.6-1.1c-0.1,0.1-0.2,0.2-0.3,0.4
		C20.8,13,21.1,12.7,21.5,12.3c0.4-0.1,0.9-0.1,1.3-0.2c-0.1-0.3-0.3-0.6-0.7-0.9C21.9,11.6,21.7,12,21.5,12.3z M29.1,18.5
		c0,0.4,0,0.9,0,1.4c0,0.1,0,0.2,0.1,0.3c0.3,0.6,0.8,1,1.4,1.3c0.5-1.8,0.6-3.6,0.2-5.4C30.3,17,29.5,17.6,29.1,18.5z M29.7,15
		c0.4,0.6,0.6,0.7,1,0.5c-0.2-0.6-0.3-1.2-0.5-1.8c0,0-0.1,0-0.1,0c-0.2,0.2-0.3,0.4-0.4,0.6C29.7,14.6,29.7,14.8,29.7,15z"/>
	<linearGradient id="SVGID_2_" gradientUnits="userSpaceOnUse" x1="20.537" y1="6.9731" x2="20.4324" y2="7.1544">
		<stop  offset="0" style="stop-color:#65727E"/>
		<stop  offset="0.8038" style="stop-color:#1A1A1A"/>
		<stop  offset="1" style="stop-color:#4F545E"/>
	</linearGradient>
	<path class="st1" d="M21.1,7.3c-0.5,0-0.8-0.2-1.1-0.5c0,0,0-0.1,0.1-0.1C20.4,6.9,20.7,7.1,21.1,7.3C21,7.3,21.1,7.3,21.1,7.3z"/>
	<linearGradient id="SVGID_3_" gradientUnits="userSpaceOnUse" x1="16.3675" y1="5.2787" x2="16.3203" y2="5.3605">
		<stop  offset="0" style="stop-color:#65727E"/>
		<stop  offset="0.8038" style="stop-color:#1A1A1A"/>
		<stop  offset="1" style="stop-color:#4F545E"/>
	</linearGradient>
	<path class="st2" d="M16.2,5.3c0.1,0,0.2,0,0.2,0c0,0-0.1,0-0.1,0C16.3,5.4,16.3,5.3,16.2,5.3z"/>
	<linearGradient id="SVGID_4_" gradientUnits="userSpaceOnUse" x1="16.8309" y1="5.2134" x2="16.8099" y2="5.2499">
		<stop  offset="0" style="stop-color:#65727E"/>
		<stop  offset="0.8038" style="stop-color:#1A1A1A"/>
		<stop  offset="1" style="stop-color:#4F545E"/>
	</linearGradient>
	<path class="st3" d="M16.9,5.2C16.8,5.2,16.8,5.2,16.9,5.2C16.8,5.2,16.8,5.2,16.9,5.2C16.8,5.2,16.8,5.2,16.9,5.2z"/>
	<linearGradient id="SVGID_5_" gradientUnits="userSpaceOnUse" x1="15.5941" y1="5.4764" x2="15.57" y2="5.5181">
		<stop  offset="0" style="stop-color:#65727E"/>
		<stop  offset="0.8038" style="stop-color:#1A1A1A"/>
		<stop  offset="1" style="stop-color:#4F545E"/>
	</linearGradient>
	<path class="st4" d="M15.6,5.5C15.6,5.5,15.6,5.5,15.6,5.5C15.6,5.5,15.6,5.5,15.6,5.5L15.6,5.5z"/>
</g>
</svg>
