<?xml version="1.0" encoding="utf-8"?>
<!-- Generator: Adobe Illustrator 21.0.0, SVG Export Plug-In . SVG Version: 6.00 Build 0)  -->
<svg version="1.1" id="图层_1" xmlns="http://www.w3.org/2000/svg" xmlns:xlink="http://www.w3.org/1999/xlink" x="0px" y="0px"
	 viewBox="0 0 488 87.3" style="enable-background:new 0 0 488 87.3;" xml:space="preserve">
<style type="text/css">
	.st0{fill:#FFFFFF;}
</style>
<g>
	<path class="st0" d="M85.7,39.2c-0.2,4-1.6,6.6-4.2,8.6c-0.7,0.5-1.4,0.8-2.1,1.2c-2.4,1.3-4.8,2.6-7.1,4c-1.3,0.7-2.6,1.4-3.9,2.2
		c-1.7,0.9-3.4,1.9-5.2,2.8c-2.8,1.6-5.7,3.1-8.5,4.7c-1.3,0.7-2.5,1.5-3.8,2c-3.3,1.3-6.5,0.9-9.4-1.2c-3.1-2.1-4.5-5.2-4.2-8.9
		c0.3-4,2.5-7,6.2-8.7c1.1-0.5,1.1-0.4,0.9-1.6c-0.6-3.5-0.1-6.9,1.8-10c1.3-2.2,3.1-4,5.3-5.2c4.8-2.5,9.7-2.5,14.5,0.3
		c1,0.6,1.8,1.3,2.6,2.1c0.4,0.4,0.7,0.4,1.1,0c1.4-1.2,3.1-1.8,5-2c3.6-0.3,6.7,0.9,9,3.8C85,35.2,85.8,37.5,85.7,39.2z"/>
	<path class="st0" d="M87.4,36.9c-0.4-2-1.3-3.7-2.5-5.1c-1.4-1.7-3.2-2.9-5.3-3.7c-2.5-0.9-5-0.8-7.5-0.1c-0.8,0.3-1.6,0.7-2.4,1
		c-0.2,0.1-0.5,0.1-0.7,0c-2.3-1.9-4.8-3-7.7-3.6c-0.1,0-0.2-0.1-0.4-0.1c0.2-0.2,0.3-0.3,0.5-0.5c4.3-3.6,10.7-3.4,14.7,0.6
		c0.5,0.5,0.7,0.4,1.2,0c1.8-1.3,3.9-1.7,6-1.2c4,0.9,6.6,4.5,6.1,8.6C89.2,34.1,88.4,35.8,87.4,36.9z"/>
</g>
<g>
	<path class="st0" d="M126.5,37.5v6.2h8c1.1,0,2.3,0,3.4-0.1c-0.1,0.8-0.1,1.5,0,2.2c-1.1-0.1-2.3-0.2-3.4-0.1h-7.8
		c0.8,2.8,2.2,5.2,4.4,7.2c0.9,0.8,1.8,1.4,2.8,2c1.6,0.9,3.2,1.6,4.9,2.2c-0.6,0.6-1.1,1.4-1.5,2.2c-1.5-0.8-3-1.6-4.5-2.5
		c-1.2-0.8-2.4-1.7-3.4-2.7c-1.7-1.6-2.9-3.5-3.8-5.7c-0.4,1.1-1,2.1-1.7,3.1c-0.8,1.1-1.7,2.1-2.6,3c-1.2,1.1-2.4,2-3.8,2.8
		c-1.2,0.7-2.4,1.4-3.6,2c-0.4-0.8-0.9-1.5-1.6-2.1c1.4-0.6,2.7-1.2,4-1.9c1.4-0.8,2.8-1.8,4-2.9c1-0.9,1.9-2,2.6-3.2
		c0.6-1.1,1-2.3,1.3-3.6h-7.7c-1.2,0-2.3,0-3.4,0.1c0.1-0.7,0.1-1.5,0-2.2c1.1,0.1,2.3,0.2,3.4,0.1h7.8v-6.2h-6.2
		c-1.2,0-2.3,0-3.4,0.1c0.1-0.7,0.1-1.4,0-2.2c1.1,0.1,2.3,0.2,3.4,0.1h14.7c1.1,0,2.3,0,3.4-0.1c-0.1,0.7-0.1,1.5,0,2.2
		c-1.1-0.1-2.3-0.2-3.4-0.1H126.5z"/>
	<path class="st0" d="M156.2,34.1c-0.4,0.5-0.6,1-0.8,1.6l-1,2.5h3c1.3,0,2.7,0,4-0.2c-0.3,1.9-0.7,3.7-1.2,5.6
		c-0.6,2.1-1.3,4.1-2.3,6c-1,1.8-2.2,3.4-3.5,5c-1.5,1.6-3.1,3.1-4.8,4.6c-0.5-0.8-1.1-1.3-1.9-1.8c1.7-1.2,3.4-2.6,5-4.1
		c1.1-1.1,2.1-2.3,3-3.6c-0.7-0.6-1.3-1.1-2.1-1.6c-0.7-0.5-1.5-1-2.2-1.4l1.1-1.7c1.5,0.9,2.9,1.8,4.2,2.8c0.6-1.1,1-2.2,1.4-3.3
		c0.4-1.4,0.8-2.9,1-4.4h-5.6c-0.7,1.6-1.4,3.2-2.3,4.8c-0.7,1.4-1.6,2.7-2.5,4c-0.2-0.3-0.5-0.6-0.8-0.9c-0.3-0.3-0.7-0.5-1.1-0.8
		c1.5-1.8,2.8-3.8,3.9-5.9c1.2-2.4,2.1-5,2.8-7.7C154.5,33.9,155.3,34.1,156.2,34.1z M172.2,48.9c-0.9-0.8-1.7-1.6-2.6-2.3
		c-1.3-1-2.5-2-3.8-3v12.2c0,1.1,0,2.3,0.1,3.4c-0.7-0.1-1.5-0.1-2.2,0c0.1-1.1,0.2-2.3,0.1-3.4V37.1c0-1.1,0-2.3-0.1-3.4
		c0.7,0.1,1.5,0.1,2.2,0c-0.1,1.1-0.2,2.3-0.1,3.4v4.1c2.7,1.9,5.2,3.8,7.7,6C173,47.7,172.6,48.2,172.2,48.9z"/>
	<path class="st0" d="M196.1,37.5v6.2h8c1.1,0,2.3,0,3.4-0.1c-0.1,0.8-0.1,1.5,0,2.2c-1.1-0.1-2.3-0.2-3.4-0.1h-7.8
		c0.8,2.8,2.2,5.2,4.4,7.2c0.9,0.8,1.8,1.4,2.8,2c1.6,0.9,3.2,1.6,4.9,2.2c-0.6,0.6-1.1,1.4-1.5,2.2c-1.5-0.8-3-1.6-4.5-2.5
		c-1.2-0.8-2.4-1.7-3.4-2.7c-1.7-1.6-2.9-3.5-3.8-5.7c-0.4,1.1-1,2.1-1.7,3.1c-0.8,1.1-1.7,2.1-2.6,3c-1.2,1.1-2.4,2-3.8,2.8
		c-1.2,0.7-2.4,1.4-3.6,2c-0.4-0.8-0.9-1.5-1.6-2.1c1.4-0.6,2.7-1.2,4-1.9c1.4-0.8,2.8-1.8,4-2.9c1-0.9,1.9-2,2.6-3.2
		c0.6-1.1,1-2.3,1.3-3.6h-7.7c-1.2,0-2.3,0-3.4,0.1c0.1-0.7,0.1-1.5,0-2.2c1.1,0.1,2.3,0.2,3.4,0.1h7.8v-6.2h-6.2
		c-1.2,0-2.3,0-3.4,0.1c0.1-0.7,0.1-1.4,0-2.2c1.1,0.1,2.3,0.2,3.4,0.1h14.7c1.1,0,2.3,0,3.4-0.1c-0.1,0.7-0.1,1.5,0,2.2
		c-1.1-0.1-2.3-0.2-3.4-0.1H196.1z"/>
	<path class="st0" d="M231.1,38.1v17.1h8.2c1.1,0,2.3,0,3.4-0.1c-0.1,0.8-0.1,1.5,0,2.3c-1.1-0.1-2.3-0.2-3.4-0.1h-18.6
		c-1.2,0-2.3,0-3.4,0.1c0.1-0.8,0.1-1.5,0-2.3c1.1,0.1,2.3,0.2,3.4,0.1h8.2V38.1h-6.5c-1.2,0-2.3,0-3.4,0.1c0.1-0.8,0.1-1.5,0-2.3
		c1.1,0.1,2.3,0.2,3.4,0.1h15.2c1.1,0,2.3,0,3.4-0.1c-0.1,0.8-0.1,1.6,0,2.3c-1.1-0.1-2.3-0.2-3.4-0.1H231.1z"/>
	<path class="st0" d="M256.1,43.6c-0.9,1.7-2,3.2-3.2,4.7c-0.4-0.7-0.9-1.4-1.5-1.9c1.5-1.5,2.7-3.1,3.8-5c1.3-2.3,2.4-4.8,3.2-7.3
		c0.8,0.3,1.6,0.5,2.5,0.5c-0.4,0.5-0.7,1-0.9,1.5c-0.6,1.2-1.2,2.4-1.8,3.6v15.9c0,1.1,0,2.3,0.1,3.4c-0.8-0.1-1.5-0.1-2.3,0
		c0.1-1.1,0.2-2.3,0.1-3.4V43.6z M268.6,53.1v2.7c0,1.1,0,2.3,0.1,3.4c-0.8-0.1-1.5-0.1-2.3,0c0.1-1.1,0.2-2.3,0.1-3.4v-16h-1.9
		c-0.6,1.2-1.3,2.3-2,3.4c-0.6,1-1.3,2-2.1,2.8c-0.5-0.6-1.1-1.2-1.8-1.6c1.4-1.3,2.6-2.8,3.6-4.6c1.2-2,2.2-4.1,2.9-6.4
		c0.8,0.3,1.6,0.4,2.4,0.5c-0.4,0.5-0.7,1-0.9,1.5c-0.4,0.7-0.8,1.5-1.1,2.2h8.6c1.1,0,2.3,0,3.4-0.1c-0.1,0.8-0.1,1.5,0,2.3
		c-1.1-0.1-2.3-0.2-3.4-0.1h-5.7v4.7h4.3c1.1,0,2.3,0,3.4-0.1c-0.1,0.8-0.1,1.5,0,2.3c-1.1-0.1-2.3-0.2-3.4-0.1h-4.3v4.7h4.9
		c1.1,0,2.3,0,3.4-0.1c-0.1,0.8-0.1,1.5,0,2.3c-1.1-0.1-2.3-0.2-3.4-0.1H268.6z"/>
	<path class="st0" d="M300.7,53.3v3.2h8c1.1,0,2.3,0,3.4-0.1c-0.1,0.6-0.1,1.3,0,2c-1.1-0.1-2.3-0.2-3.4-0.1h-18.4
		c-1.2,0-2.3,0-3.4,0.1c0.1-0.7,0.1-1.3,0-2c1.1,0.1,2.3,0.2,3.4,0.1h8.4v-3.2H293c-1.2,0-2.3,0-3.4,0.1c0.1-0.7,0.1-1.3,0-2
		c1.1,0.1,2.3,0.2,3.4,0.1h5.7c0-0.8-0.1-1.5-0.1-2.3c0.7,0.1,1.5,0.1,2.3,0c-0.1,0.8-0.2,1.5-0.1,2.3h5.4c1.1,0,2.3,0,3.4-0.1
		c-0.1,0.7-0.1,1.4,0,2c-1.1-0.1-2.3-0.2-3.4-0.1H300.7z M288.1,36.8c0.6,0.1,1.3,0.2,2,0.1h9.3c-0.3-0.6-0.7-1.3-1-1.9
		c-0.3-0.5-0.6-0.9-0.9-1.3c0.7,0,1.3-0.2,2-0.4c0.7,1.1,1.3,2.3,1.8,3.6h7.7c0.7,0,1.3,0,2-0.1V39c0,0.7,0,1.4,0.1,2
		c-0.8-0.1-1.5-0.1-2.3,0c0.1-0.7,0.2-1.3,0.1-2v-0.3H290v0.3c0,0.7,0,1.4,0.1,2c-0.8-0.1-1.5-0.1-2.3,0c0.1-0.7,0.2-1.3,0.1-2V36.8
		z M308.9,49.9c-0.6-0.6-1.2-1.1-1.8-1.7c-3.7,0.1-7.5,0.2-11.2,0.4c-2.1,0.1-4.3,0.2-6.4,0.3c-0.2-0.5-0.4-1-0.7-1.5
		c0.8,0,1.5-0.2,2.1-0.7c1.6-1,3.1-2.2,4.5-3.5h-2.4c-1.2,0-2.3,0-3.4,0.1c0.1-0.6,0.1-1.3,0-1.9c1.1,0.1,2.3,0.2,3.4,0.1H306
		c1.1,0,2.3,0,3.4-0.1c-0.1,0.7-0.1,1.3,0,1.9c-1.1-0.1-2.3-0.2-3.4-0.1h-7.8c-1.6,1.5-3.3,2.8-5.1,3.9l12.4-0.3
		c-0.9-0.7-1.8-1.4-2.6-2.1c0.5-0.4,0.9-0.8,1.3-1.3c2.1,1.6,4.1,3.3,6.1,5.1C309.6,49,309.2,49.4,308.9,49.9z"/>
	<path class="st0" d="M327.6,38.8c1,0,2,0,3-0.1c-0.1,0.8-0.1,1.6,0,2.4c-1-0.1-2-0.1-3-0.1v4.9c0.9-0.3,1.8-0.7,2.6-1.1
		c0.1,0.7,0.3,1.4,0.6,2.1c-1.1,0.4-2.2,0.8-3.2,1.1v8.1c0,0.5-0.1,0.9-0.2,1.4c-0.2,0.4-0.4,0.6-0.8,0.9c-0.3,0.2-0.7,0.3-1.1,0.4
		c-0.8,0.1-1.6,0.2-2.3,0.2c0-0.5,0-0.9-0.1-1.4c-0.1-0.3-0.3-0.6-0.5-0.9c0.4,0.1,0.9,0.1,1.3,0.1c0.4,0,0.7,0,1.1-0.1
		c0.2-0.1,0.4-0.3,0.5-0.5c0.1-0.3,0.1-0.6,0.1-0.9v-6.5c-1.4,0.5-2.7,1.1-4,1.7c-0.2-0.8-0.4-1.6-0.7-2.4c1.6-0.4,3.1-0.9,4.7-1.4
		v-5.6h-0.3c-1.2,0-2.3,0-3.4,0.1c0.1-0.8,0.1-1.6,0-2.4c1.1,0.1,2.3,0.2,3.4,0.1h0.3v-1.7c0-1.1,0-2.3-0.1-3.4
		c0.7,0.1,1.5,0.1,2.3,0c-0.1,1.1-0.2,2.3-0.1,3.4V38.8z M337.3,43.7v-4.2h-2.7c-1.2,0-2.3,0-3.4,0.1c0.1-0.7,0.1-1.5,0-2.2
		c1.1,0.1,2.3,0.2,3.4,0.1h2.7v-0.7c0-1.1,0-2.3-0.1-3.4c0.7,0.1,1.5,0.1,2.2,0c-0.1,1.1-0.2,2.3-0.1,3.4v0.7h4.1
		c1.1,0,2.3,0,3.4-0.1c-0.1,0.7-0.1,1.5,0,2.2c-1.1-0.1-2.3-0.2-3.4-0.1h-4.1v4.2h1.6c1.3,0,2.7,0,4-0.2c-0.3,1.1-0.6,2.2-1,3.3
		c-0.3,1-0.7,1.9-1.2,2.8c-0.8,1.4-1.8,2.7-3,3.8c1.1,0.9,2.4,1.7,3.7,2.3c1.4,0.6,2.8,1.1,4.3,1.6c-0.5,0.7-0.9,1.4-1.1,2.2
		c-1.7-0.7-3.4-1.5-4.9-2.5c-1.2-0.7-2.3-1.5-3.4-2.4c-1.1,0.8-2.3,1.6-3.6,2.2c-1.7,0.9-3.5,1.7-5.3,2.4c-0.3-0.8-0.8-1.5-1.5-2.1
		c1.8-0.6,3.5-1.3,5.3-2c1.2-0.5,2.4-1.2,3.5-1.9c-0.9-0.9-1.6-1.9-2.3-2.9c-0.8-1.3-1.5-2.6-2.1-4c0.6-0.2,1.1-0.5,1.6-0.8
		c-1,0-1.9,0-2.8,0.1c0.1-0.7,0.1-1.4,0-2.2c1.1,0.1,2.3,0.2,3.4,0.1H337.3z M334.2,45.6c0.5,1.3,1.1,2.6,1.9,3.8
		c0.6,1,1.4,1.9,2.2,2.8c0.9-0.8,1.7-1.7,2.4-2.7c0.7-1.2,1.3-2.5,1.7-3.9h-7.7H334.2z"/>
	<path class="st0" d="M368.3,44.4c-1.2,2.1-2.7,4.1-4.3,6c-2.1,2.2-4.3,4.3-6.7,6c-0.4-0.8-1-1.5-1.7-2.1c2.5-1.5,4.9-3.4,7-5.5
		c2.1-2.2,3.9-4.7,5.3-7.5h-7.2c-1.2,0-2.3,0-3.4,0.1c0.1-0.8,0.1-1.5,0-2.3c1.1,0.1,2.3,0.2,3.4,0.1h7.8V37c0-1.1,0-2.3-0.1-3.4
		c0.8,0.1,1.5,0.1,2.3,0c-0.1,1.1-0.2,2.3-0.1,3.4v2.4h7.7c1.1,0,2.3,0,3.4-0.1c-0.1,0.8-0.1,1.5,0,2.3c-1.1-0.1-2.3-0.2-3.4-0.1
		h-7.4c1.3,2.8,3,5.2,5.2,7.4c2.1,2.1,4.5,3.8,7.1,5.3c-0.7,0.6-1.2,1.3-1.6,2.1c-2.4-1.7-4.6-3.5-6.6-5.6c-1.6-1.7-3.1-3.6-4.3-5.7
		v10.8c0,1.1,0,2.3,0.1,3.4c-0.8-0.1-1.5-0.1-2.3,0c0.1-1.1,0.2-2.3,0.1-3.4V44.4z M376.7,38.9c-0.5-0.6-1.1-1.2-1.7-1.7
		c-0.7-0.7-1.5-1.3-2.3-1.8c0.5-0.4,0.9-0.8,1.3-1.3c1.4,1,2.8,2.2,4,3.4C377.5,37.9,377.1,38.3,376.7,38.9z"/>
	<path class="st0" d="M403,43.4v-4h-8.1c-1.2,0-2.3,0-3.4,0.1c0.1-0.7,0.1-1.5,0-2.2c1.1,0.1,2.3,0.2,3.4,0.1h8.1V37
		c0-1.1,0-2.3-0.1-3.4c0.8,0.1,1.6,0.1,2.4,0c-0.1,1.1-0.2,2.3-0.1,3.4v0.4h8.1c1.1,0,2.3,0,3.4-0.1c-0.1,0.8-0.1,1.5,0,2.2
		c-1.1-0.1-2.3-0.2-3.4-0.1h-8.1v4h3.3c1.3,0,2.7,0,4-0.2c-0.4,1.2-0.9,2.3-1.4,3.4c-0.5,1-1,1.9-1.7,2.8c-1.1,1.5-2.4,2.9-3.9,4
		c1.5,0.8,3,1.5,4.6,2c2.3,0.7,4.7,1.3,7.1,1.8c-0.4,0.7-0.8,1.4-0.9,2.3c-2.3-0.6-4.6-1.3-6.9-2.1c-2-0.7-3.9-1.6-5.6-2.8
		c-1.6,0.9-3.2,1.7-4.8,2.3c-2.4,0.9-4.7,1.7-7.1,2.4c-0.2-0.8-0.6-1.6-1.1-2.3c2.3-0.5,4.6-1.2,6.8-1.9c1.5-0.5,3-1.2,4.5-1.9
		c-1-0.8-1.9-1.8-2.7-2.8c-0.9-1.3-1.7-2.6-2.4-4c0.6-0.3,1.2-0.6,1.7-1.1c0.6,1.5,1.3,2.8,2.2,4.1c0.8,1.1,1.8,2,2.9,2.8
		c2.7-1.7,4.6-4,5.8-7h-12.3c-1.2,0-2.3,0-3.4,0.1c0.1-0.7,0.1-1.5,0-2.2c1.1,0.1,2.3,0.2,3.4,0.1H403z"/>
	<path class="st0" d="M425.6,47.9c1.5-0.3,3-0.7,4.5-1.2v-6h-0.7c-1.2,0-2.3,0-3.4,0.1c0.1-0.7,0.1-1.4,0-2.1
		c1.1,0.1,2.3,0.2,3.4,0.1h0.7v-3.9c0-0.5,0-0.9-0.1-1.4c0.7,0.1,1.4,0.1,2.2,0c-0.1,0.5-0.2,0.9-0.1,1.4v3.9c1.1,0,2.2,0,3.4-0.1
		c-0.1,0.7-0.1,1.4,0,2.1c-1.1-0.1-2.3-0.2-3.4-0.1v5.4c0.9-0.3,1.7-0.6,2.6-1c0,0.7,0.1,1.3,0.3,1.9c-1,0.3-1.9,0.6-2.8,0.9v7.9
		c0,0.5-0.1,0.9-0.2,1.4c-0.2,0.4-0.4,0.7-0.8,0.9c-0.4,0.2-0.7,0.3-1.1,0.3c-0.8,0.1-1.5,0.2-2.3,0.2c0-0.4,0-0.8-0.1-1.2
		c-0.1-0.3-0.3-0.6-0.5-0.8c0.4,0.1,0.9,0.1,1.4,0.1c0.4,0,0.8,0,1.1-0.2c0.2-0.1,0.4-0.2,0.6-0.5c0.1-0.3,0.1-0.6,0.1-0.9v-6.8
		c-1.4,0.5-2.7,0.9-4.1,1.5C425.9,49.3,425.7,48.6,425.6,47.9z M443.8,39.2v3.6h4.5c1.1,0,2.3,0,3.4-0.1c-0.1,0.7-0.1,1.5,0,2.2
		c-1.1-0.1-2.3-0.2-3.4-0.1h-10.4c-1.2,0-2.3,0-3.4,0.1c0.1-0.7,0.1-1.5,0-2.2c1.1,0.1,2.3,0.2,3.4,0.1h4v-3.6h-2.5
		c-1.2,0-2.3,0-3.4,0.1c0.1-0.7,0.1-1.4,0-2.1c1.1,0.1,2.3,0.2,3.4,0.1h2.5v-0.2c0-1.1,0-2.3-0.1-3.4c0.7,0.1,1.5,0.1,2.2,0
		c-0.1,1.1-0.2,2.3-0.1,3.4v0.2h3.2c1.1,0,2.3,0,3.4-0.1c-0.1,0.7-0.1,1.4,0,2.1c-1.1-0.1-2.3-0.2-3.4-0.1H443.8z M441.6,56.6
		c0.6,0.1,1.2,0.1,1.8,0.1c0.5,0,1-0.1,1.4-0.3c0.3-0.1,0.5-0.3,0.6-0.6c0.1-0.3,0.1-0.7,0.1-1.1v-4.6h-7.5c-1.2,0-2.3,0-3.4,0.1
		c0.1-0.7,0.1-1.4,0-2.1c1.1,0.1,2.3,0.2,3.4,0.1h7.5v-0.7c0-0.6,0-1.2-0.1-1.8c0.7,0.1,1.5,0.1,2.2,0c-0.1,0.6-0.2,1.2-0.1,1.8v0.7
		h0.5c1.1,0,2.3,0,3.4-0.1c-0.1,0.7-0.1,1.4,0,2.1c-1.1-0.1-2.3-0.2-3.4-0.1h-0.5v5.3c0,0.6-0.1,1.1-0.2,1.6c-0.2,0.4-0.5,0.8-0.9,1
		c-0.4,0.2-0.9,0.4-1.3,0.4c-0.9,0.1-1.9,0.2-2.9,0.2c0-0.4,0-0.9-0.1-1.3C442,57.1,441.8,56.8,441.6,56.6z M440,55.7
		c-0.5-0.7-1-1.3-1.5-1.9c-0.6-0.7-1.3-1.4-2.1-2c0.5-0.3,1-0.8,1.4-1.3c1.3,1.1,2.6,2.4,3.7,3.7C440.8,54.6,440.3,55.1,440,55.7z"
		/>
</g>
</svg>
