<?xml version="1.0" encoding="utf-8"?>
<!-- Generator: Adobe Illustrator 21.0.0, SVG Export Plug-In . SVG Version: 6.00 Build 0)  -->
<svg version="1.1" id="图层_1" xmlns="http://www.w3.org/2000/svg" xmlns:xlink="http://www.w3.org/1999/xlink" x="0px" y="0px"
	 viewBox="0 0 35.3 36.3" style="enable-background:new 0 0 35.3 36.3;" xml:space="preserve">
<style type="text/css">
	.st0{fill:#FFFFFF;}
</style>
<g>
	<g>
		<path class="st0" d="M7,11.2c0,1.6,0.3,3,0.9,4.3c0.8,1.9,1.8,3.7,2.8,5.4c0.9,1.4,1.7,2.9,2.6,4.3c0.9,1.3,1.8,2.6,2.7,3.8
			c0.3,0.4,0.7,0.8,1.3,0.9c0.7,0.1,1.3-0.1,1.8-0.7c1.3-1.8,2.6-3.6,3.8-5.5c1.5-2.3,2.9-4.5,4-7c0.7-1.5,1.3-3,1.4-4.6
			c0.1-1-0.1-2-0.3-3c-0.4-1.5-1-2.8-1.9-4c-0.7-0.9-1.5-1.6-2.4-2.3c-1.4-1-2.9-1.6-4.5-1.8c-2.7-0.3-5.3,0.2-7.6,1.8
			c-1.7,1.2-3,2.7-3.8,4.6C7.2,8.8,6.9,10,7,11.2z M18,26.9c-0.2-0.1-0.6-0.1-0.7-0.2c-0.6-0.8-1.2-1.7-1.8-2.5
			c-1-1.5-1.9-2.9-2.8-4.4c-1.1-1.7-2.1-3.5-2.8-5.5c-0.3-0.8-0.5-1.6-0.6-2.4c-0.1-1.3,0.3-2.6,1-3.7c1.1-2,2.8-3.4,4.9-4.2
			c1.6-0.6,3.3-0.6,4.9,0c2.6,0.9,4.5,2.7,5.5,5.3c0.4,1,0.6,2.1,0.4,3.2c-0.3,2-1.2,3.7-2.1,5.4c-0.8,1.5-1.8,3-2.8,4.5
			C20.2,23.8,19.1,25.3,18,26.9z"/>
		<path class="st0" d="M17.7,33.4c-2.5,0-5-0.1-7.5-0.6c-1.4-0.3-2.8-0.6-4-1.4c0,0-0.1,0-0.1-0.1c-0.8-0.5-0.7-1.2,0.1-1.6
			c1-0.5,2.1-0.7,3.2-0.6c0.4,0,0.7-0.1,0.9-0.5c0.3-0.5-0.1-1.3-0.7-1.3c-1.5,0-2.9,0.2-4.3,0.8c-1.3,0.7-2,2.3-1.4,3.6
			c0.4,0.8,1.1,1.3,1.8,1.8c1.1,0.6,2.4,0.8,3.7,1.1c2.4,0.5,4.8,0.6,7.2,0.6c1.8,0,3.6,0,5.5-0.1c1.6-0.1,3.2-0.3,4.8-0.7
			c0.9-0.3,1.8-0.4,2.6-0.9c0.6-0.3,1.1-0.7,1.6-1.3c0.7-0.8,0.6-2.7-0.3-3.5c-1.1-0.9-2.3-1.3-3.7-1.6c-0.4-0.1-0.9-0.1-1.3-0.1
			c-0.7,0-0.9,0.2-0.9,0.9c0,0.5,0.4,0.9,0.9,1c0.5,0,1.1,0,1.6,0.1c0.9,0.2,1.8,0.5,2.3,1.3c0.3,0.5,0.3,0.7-0.1,1.1
			c-0.6,0.5-1.3,0.7-2,0.9c-0.7,0.2-1.5,0.4-2.2,0.5c-2.2,0.4-4.4,0.5-6.7,0.5C18.4,33.4,18.1,33.4,17.7,33.4z"/>
		<path class="st0" d="M20.7,12.3c0-1.5-1.3-2.9-2.8-3c-1.7-0.1-3.1,1.3-3.2,2.8c-0.1,1.8,1.2,3.2,2.9,3.2
			C19.3,15.4,20.7,14.1,20.7,12.3z"/>
	</g>
</g>
</svg>
