<?xml version="1.0" encoding="utf-8"?>
<!-- Generator: Adobe Illustrator 21.0.0, SVG Export Plug-In . SVG Version: 6.00 Build 0)  -->
<svg version="1.1" id="图层_1" xmlns="http://www.w3.org/2000/svg" xmlns:xlink="http://www.w3.org/1999/xlink" x="0px" y="0px"
	 viewBox="0 0 204.1 50.6" style="enable-background:new 0 0 204.1 50.6;" xml:space="preserve">
<style type="text/css">
	.st0{fill:#656E75;}
</style>
<g>
	<path class="st0" d="M22.7,9.8c0-0.1,0-0.1,0.1-0.1l1.4,0.6c0.1,0,0.1,0,0,0.1L24,10.8c0,0,0,0.1,0,0.2c-0.1,1.1-0.1,2.1-0.1,3.1
		l2-0.1l0.8-0.8l1,0.9c0,0,0.1,0.1,0.1,0.1s0,0.1-0.1,0.1L24,14.5c0.1,1.4,0.3,2.6,0.6,3.6c0.6-0.9,1.1-1.7,1.4-2.5
		c0-0.1,0-0.1,0.1-0.1l1,0.8c0.1,0.1,0.1,0.2-0.1,0.3c-0.8,0.8-1.5,1.6-2.2,2.2c0.4,1,1.1,1.8,2,2.2c0.2,0.1,0.4,0.1,0.5-0.1
		l0.6-0.7c0,0,0.1-0.1,0.2-0.1c0,0,0,0.1,0,0.2c-0.3,0.5-0.4,1-0.4,1.6c0.1,0.3,0,0.6-0.1,0.7c-0.2,0.1-0.4,0.1-0.8-0.1
		c-1.3-0.8-2.3-1.8-2.9-3c-1.1,0.9-2,1.5-2.7,1.9c-0.1,0-0.1,0-0.1-0.1c1-0.7,1.9-1.5,2.6-2.3c-0.5-1.3-0.8-2.8-0.9-4.6l-2.3,0.1
		v2.1l1.2-0.4c0.1,0,0.2,0,0.1,0.1l-1.3,0.8v3.4c0,1-0.5,1.7-1.5,2.2c-0.1,0-0.1,0-0.1,0c0,0-0.1,0-0.1-0.1c0-0.4-0.1-0.7-0.5-1
		c0,0,0-0.1,0-0.1c0,0,0-0.1,0.1-0.1c0.7,0.1,1-0.1,0.9-0.5l0.1-3.2l-0.5,0.3c-0.8,0.5-1.4,0.9-1.8,1.2c0,0-0.1,0-0.2,0L16.3,18
		c0,0,0.1,0,0.2-0.1c0.4-0.1,0.9-0.2,1.5-0.4l1.5-0.4v-2.4l-1.3,0.1c-0.4,0-0.9,0.1-1.4,0.2c-0.1,0-0.1,0-0.2,0l-0.4-0.5l3.2-0.2
		c0-0.9,0-1.6,0-2.3c0-0.1,0-0.1,0-0.2h0.1l1.2,0.5c0.1,0,0.1,0.1,0.1,0.2l-0.2,0.4l-0.1,1.4l2.3-0.1c0-0.2,0-0.5,0-0.9
		c0-0.4-0.1-0.8-0.1-1c0-0.3,0-0.6,0-1.1C22.7,10.5,22.7,10.1,22.7,9.8z M20.9,9.8l0.9,0.9c0,0.1,0,0.2-0.1,0.2
		c-1.1,0.3-2.7,0.6-4.6,1.1c-0.1,0-0.1,0-0.1-0.1c1.6-0.6,2.8-1.3,3.7-2.1C20.8,9.7,20.9,9.7,20.9,9.8z M25.1,10.8
		c1.1,0.4,1.7,0.8,1.7,1.2c-0.1,0.4-0.3,0.7-0.7,0.9c-0.3,0.1-0.5,0-0.5-0.3c0-0.7-0.2-1.3-0.7-1.7C24.9,10.8,25,10.7,25.1,10.8z"/>
	<path class="st0" d="M30.2,17.6c0,0-0.1,0-0.2,0c0,0,0-0.1,0-0.1c1.9-1.9,3.4-4.5,4.5-7.6l1.3,0.6c0.1,0,0.1,0.1,0,0.2L35.6,11
		c-0.4,0.7-0.9,1.4-1.3,2.1l0.2,8.3c0,0.4-0.3,0.9-0.9,1.6C33.5,23,33.4,23,33.3,23c0,0-0.1-0.1-0.1-0.2l0.1-3.6l0.1-4.9
		C32.7,15.3,31.7,16.4,30.2,17.6z M36.9,13.9v4.3l0.1,2.2c-0.1,0.5-0.4,1-0.9,1.5C36,22,35.9,22,35.9,21.8l0.1-3.8v-3.5l-0.1-1.7
		l1.2,0.5c0.1,0,0.1,0.1,0.1,0.2L36.9,13.9z M36.5,9.7l1,0.4c0.5,0.3,0.8,0.5,0.8,0.7c0,0.3-0.2,0.6-0.6,0.9
		c-0.1,0.1-0.3,0.1-0.3-0.1c-0.2-0.7-0.5-1.3-0.8-1.7C36.4,9.8,36.4,9.7,36.5,9.7z M40.4,11.9c-0.4,0-0.8,0.1-1.3,0.2
		c-0.1,0-0.3,0.1-0.3,0.1l-0.4-0.4l2.8-0.1l0.7-0.7l1,0.7c0,0,0,0.1,0.1,0.1c0,0,0,0.1-0.1,0.1l-0.5,0.6l0.1,4.9l0.1,3
		c0,1.1-0.5,1.9-1.6,2.6c-0.1,0-0.1,0.1-0.2,0.1c0,0-0.1-0.1-0.1-0.2c0-0.5-0.1-0.9-0.5-1.1c-0.1-0.1-0.1-0.2,0.1-0.2
		c0.7,0.1,1.1-0.1,1-0.5l-0.1-9H40.4z"/>
	<path class="st0" d="M51.1,9.7l1.3,0.8c0.1,0.1,0.1,0.1,0,0.2c-0.3,0.6-0.6,1.2-1,1.7l4.6-0.1l0.9-0.9l1,1c0,0,0.1,0.1,0.1,0.1
		c0,0,0,0.1-0.1,0.1l-6.7,0.1c-0.7,1-1.3,1.9-2,2.9l0.2,0.1c0.1,0,0.2,0.1,0.2,0.3l-0.1,5.3c-0.1,0.5-0.3,1-0.8,1.4
		c-0.2,0.2-0.3,0.2-0.4,0l0.1-3.1v-3.2c-1.1,1.3-2.1,2.4-3.2,3.4c-0.1,0-0.1,0.1-0.2,0.1c0,0,0-0.1,0-0.2c1.6-1.7,3.2-4.1,4.7-7.1
		l-2.1,0.1c-0.7,0-1.2,0-1.5,0.1l-0.4-0.4l4.1-0.1c0.5-1,0.9-1.9,1-2.7C51,9.7,51,9.7,51.1,9.7z M50.7,17.4c-0.1,0-0.2-0.1-0.2-0.2
		c0-0.1,0-0.2,0.1-0.2l2.2-0.1v-0.9l-0.1-2.4l1.6,0.4c0,0,0.1,0,0.1,0.1c0,0-0.1,0.1-0.1,0.1c-0.1,0.1-0.2,0.3-0.2,0.5L54.1,17
		l1.1-0.1l0.7-0.8l0.9,0.9c0.1,0.1,0.1,0.1,0,0.2l-2.7,0.1v4.2l2.1-0.1l0.8-0.7l0.9,0.8c0.1,0.1,0.1,0.1,0,0.1l-6.3,0.2
		c-0.5,0-1,0.1-1.5,0.2l-0.4-0.4l3.2-0.1v-4.2L50.7,17.4z"/>
	<path class="st0" d="M63.3,11.6c-0.6,0-1.1,0.1-1.5,0.2l-0.5-0.5l9.7-0.1l0.9-0.9l1,1c0,0.1,0,0.2-0.1,0.2l-4.4,0.1l0.8,0.7
		c0,0.1,0,0.1-0.2,0.2c0.1-0.1,0.1-0.1-0.1,0.1c-0.3,0.4-0.6,0.8-0.9,1.2l0.1,7.6c-0.1,0.6-0.5,1.1-1.1,1.4c-0.2,0-0.3,0-0.3-0.2
		l0.1-2.2l0.1-5.1c-2.1,2.3-4.4,4.1-6.9,5.5c-0.1,0-0.1,0-0.2,0c0,0,0-0.1,0.1-0.2c2.8-1.8,5.1-4.2,6.7-7.1c0-0.1,0-0.2-0.1-0.3
		c0,0.1,0,0-0.1-0.1c0-0.1,0.1-0.1,0.2-0.1l0.2,0.1c0.3-0.5,0.5-1,0.8-1.5L63.3,11.6z M69.6,15.2c1.6,0.7,2.7,1.5,3.2,2.3
		c0.3,0.6,0.1,1.2-0.5,1.6c-0.4,0.1-0.6-0.1-0.7-0.4c-0.3-1.3-1-2.4-2-3.5C69.6,15.3,69.6,15.3,69.6,15.2z"/>
	<path class="st0" d="M85.1,10.1l1.3,0.7c0.1,0.1,0.1,0.2,0,0.2l-0.4,0.5v7.1l0.1,2c0,0.9-0.6,1.6-1.8,2.2c-0.1,0-0.2,0-0.2-0.1
		c0.1-0.6-0.1-1-0.5-1.1c0,0-0.1,0-0.1-0.1c0-0.1,0.1-0.1,0.1-0.1c0.7,0.1,1,0,1-0.1l-0.1-10.1l-6.4,0.1l0.1,9.6
		c-0.1,0.6-0.3,1.2-0.8,1.9c-0.1,0.1-0.2,0.1-0.3,0.1c-0.1,0-0.2-0.1-0.2-0.2l0.1-3.1v-7.1l-0.1-1.9c0-0.1,0-0.1,0.1-0.1l1.1,0.6
		l6.3-0.1L85.1,10.1z M79,13.2c-0.1,0-0.2,0-0.2-0.1c0-0.1,0.1-0.2,0.2-0.2l3.6-0.1l0.7-0.7l0.9,0.8c0,0,0.1,0.1,0.1,0.1
		s0,0.1-0.1,0.1L79,13.2z M82.7,14.6l1.2,0.6c0.1,0,0.1,0.1,0,0.1l-0.3,0.5l-0.1,2.6l0.1,0.2c0,0.1,0,0.1-0.1,0.1
		c-0.3,0-1.4,0-3.3,0c0,0.3-0.2,0.7-0.7,1.2c-0.1,0.1-0.2,0.1-0.2,0.1c0,0-0.1,0-0.1-0.1l0.1-2l-0.1-1.6c0-0.6,0-1,0-1.4
		c0-0.1,0-0.1,0.1-0.1l1,0.5l1.8-0.1L82.7,14.6z M80.4,15.6v2.8l1.9-0.1l0.1-2.8L80.4,15.6z"/>
	<path class="st0" d="M93.7,9.7l0.9,1c0,0.1,0,0.1-0.1,0.1L94.1,11c-0.8,0.5-1.6,0.9-2.3,1.3l0.1,0.1v0.2l1.9-0.1l0.5-0.6l1.2,0.8
		l0.1,0.1l-0.1,0.1l-0.4,0.5v1.9c1-1.3,1.8-3.2,2.5-5.5l1.2,0.7c0,0,0.1,0,0.1,0.1c0,0-0.1,0.1-0.1,0.1l-0.2,0.2
		c-0.3,0.6-0.5,1.1-0.9,1.5l2.5-0.1l0.6-0.8l1.3,0.8c0.1,0,0.1,0.1,0,0.2l-0.4,0.6l-0.1,4.7l0.1,1.7c-0.1,1.6-0.9,2.7-2.4,3.3
		c-0.1,0-0.2,0-0.2-0.2c0.1-0.6,0-1-0.4-1.3c-0.1,0-0.1-0.1-0.1-0.1h0.1c1.1,0,1.5-0.4,1.5-1.2l0.1-7.6l-2.7,0.2
		c-0.7,1-1.5,1.9-2.4,2.9l-0.1,2.3l0.1,2.1c-0.1,0.7-0.3,1.2-0.7,1.7c-0.1,0.1-0.2,0.2-0.3,0.2c-0.1,0-0.1-0.1-0.2-0.2
		c-0.2-0.7-0.3-1.1-0.4-1.3h-1.9v0.8c0,0.6-0.3,1.2-0.8,1.6c-0.2,0.1-0.3,0.1-0.3-0.1l0.1-3.8l0.1-5.3l-0.1-1.6
		c0-0.1,0.1-0.1,0.2-0.1l0.6,0.4C92.5,11.3,93.2,10.5,93.7,9.7z M91.9,12.9l-0.1,3.1l1.6-0.1c0.1,0,0.1,0,0.1,0.1
		c0,0.1,0,0.2-0.1,0.2l-1.6,0.1L91.8,20h2.1l0.1-7.2L91.9,12.9z M97,15.1c0-0.1,0-0.1,0.1-0.1c1.5,0.7,2.2,1.1,2.2,1.5
		c0.1,0.4-0.1,0.8-0.7,1.1c-0.5,0.1-0.7,0.1-0.8-0.3C97.7,16.5,97.5,15.7,97,15.1z"/>
	<path class="st0" d="M105.2,14.5c-0.1,0-0.1,0-0.2-0.1c0-0.1,0-0.2,0.1-0.2l1.5-0.1v-2.1l-0.1-1.8l1.4,0.5l-0.2,0.4l-0.1,2.8
		l0.5-0.1l0.6-0.5l0.7,0.6c0.1,0.1,0.1,0.1,0,0.2l-1.7,0.1l-0.1,4.1l1.9-0.9c0.1,0,0.1,0,0.1,0.1l-3.4,3c-0.1,0.1-0.2,0.2-0.4,0.1
		l-0.9-0.9c0,0,0-0.1-0.1-0.1c0,0,0-0.1,0.1-0.1c0.4-0.1,1-0.4,1.7-0.7l0.1-4.6L105.2,14.5z M113.4,10.3l-0.2,0.3v3.2l1.4-0.8
		l0.4-0.8l1.1,0.5c0.1,0,0.1,0.1,0,0.2l-0.3,0.6v3.5c0,1.4-0.5,2.4-1.5,3.1c-0.1,0-0.2,0-0.2-0.1c0-0.5-0.2-0.8-0.5-0.9
		c-0.1-0.1-0.1-0.2,0.1-0.2c0.7,0.1,1-0.3,0.9-1.3l0.1-4.3l-1.5,0.8l-0.1,3.9c0,0.9-0.2,1.7-0.6,2.2c-0.1,0.1-0.3,0.2-0.3,0.2
		c-0.1,0-0.2-0.1-0.2-0.3l0.1-5.5l-1.4,0.7l-0.2,5.2c-0.1,0.5,0.1,0.7,0.6,0.7c1.6,0.1,3.1,0.1,4.4-0.2c0.6-0.1,1-0.6,1.3-1.3
		c0-0.1,0.1-0.1,0.2-0.1c0.1,0,0.1,0,0.1,0.1c-0.1,0.5,0,0.8,0.3,1c0.5,0.7,0.4,1.2-0.5,1.5c-1.5,0.4-3.4,0.4-5.6,0.2
		c-1.1-0.1-1.7-1-1.6-2.6l0.1-4.1c-0.1,0.1-0.3,0.2-0.5,0.3c-0.1,0.1-0.3,0.2-0.3,0.2l-0.5-0.2l1.4-0.7l0.1-1.4c0-0.3,0-0.6-0.1-1
		c0-0.5,0-0.8-0.1-0.9c0-0.1,0-0.2,0.1-0.1l1.1,0.7c0.1,0,0.1,0.1,0,0.2l-0.2,0.4l-0.1,1.6l1.4-0.7v-2.6c0-1.1,0-1.8-0.1-2.1
		c0,0,0-0.1,0.1-0.1l1.2,0.5C113.5,10.2,113.5,10.3,113.4,10.3z"/>
	<path class="st0" d="M122.1,12.7c-0.3,0-0.7,0-1.2,0.1c-0.1,0-0.2,0.1-0.3,0.1l-0.5-0.5l5-0.1l0.1-2.5l1.6,0.5c0.1,0,0.1,0.1,0,0.3
		l-0.2,0.4l-0.1,1.3l3.6-0.1l0.8-0.9l1,1c0,0,0.1,0.1,0.1,0.1s0,0.1-0.1,0.1l-6.5,0.2l-0.1,2.2l3.3-0.1l0.7-0.7l1.3,0.9
		c0.1,0,0.1,0.1-0.1,0.2l-0.4,0.5l-0.1,3.2c0,0.9,0,1.4-0.1,1.7c-0.3,0.9-0.9,1.6-2.1,2.1c-0.1,0-0.2,0-0.2-0.1c0-0.6-0.2-1-0.4-1.1
		c-0.1,0-0.1,0-0.1-0.1c0,0,0-0.1,0.1-0.1c0.8,0.1,1.2-0.2,1.2-0.9c0.1-1.4,0.2-3.1,0.2-5.2l-3.3,0.1v0.2c0.3,3.1-1.7,5.7-5.9,7.7
		c-0.1,0-0.1,0-0.2-0.1c0-0.1,0-0.1,0.1-0.2c3.2-1.7,4.8-4.2,4.7-7.4l0.1-2.8L122.1,12.7z"/>
	<path class="st0" d="M139.7,9.7l1.8,0.7c0.1,0,0.1,0.1,0,0.2c0,0,0,0,0,0.1l-0.3,0.2c-0.1,1.1-0.4,2.2-0.8,3.3l4.4-0.1l0.9-0.9
		l1.1,1l0.1,0.1c0,0,0,0.1-0.1,0.1l-6.4,0.1c-0.2,0.6-0.5,1.2-0.8,1.8l3.8-0.1l0.6-0.8l1.3,0.8c0.1,0.1,0.1,0.1-0.1,0.2l-0.4,0.4
		c-0.8,1.1-1.6,2.1-2.5,2.9c1.1,0.8,2.6,1.3,4.6,1.7c0.1,0.1,0.1,0.2,0.1,0.3c-0.8,0.1-1.5,0.5-2.1,1.3c-1.3-0.8-2.4-1.6-3.4-2.6
		c-1.3,0.9-3,1.8-5,2.7c-0.1,0-0.1,0-0.2-0.1c0,0,0-0.1,0.1-0.1c2.1-1.1,3.6-2.2,4.6-3.2c-0.6-0.9-1.1-1.9-1.4-3.2h-0.1
		c-1.1,2.1-2.7,4.1-4.7,5.9c-0.1,0-0.1,0-0.2,0c0,0,0-0.1,0-0.2c2.1-2.2,3.5-4.8,4.4-7.8h-2.1c-0.2,0.3-0.5,0.5-0.9,0.7
		c-0.2,0-0.3,0-0.3-0.2l0.3-1.4l0.5-2.9c0-0.1,0.1-0.2,0.2-0.2l1.2,0.7c0.1,0,0.1,0.1,0,0.3l-0.8,2.7h2.1
		C139.3,12.7,139.6,11.3,139.7,9.7z M143.3,16.4l-3.6,0.1c0.4,1,1,1.9,1.7,2.6C142.1,18.3,142.7,17.5,143.3,16.4z M142.7,10.8
		c1.2,0.4,1.9,0.8,2,1.2c0,0.4-0.2,0.7-0.7,1c-0.3,0.1-0.5,0.1-0.7-0.2c0-0.8-0.3-1.5-0.7-1.9c0-0.1-0.1-0.1-0.1-0.2
		C142.6,10.7,142.6,10.7,142.7,10.8z"/>
	<path class="st0" d="M151.2,15.6c-0.5,0-1,0.1-1.4,0.2l-0.4-0.4l5.6-0.2v-3l-0.1-2.4l1.5,0.4c0.1,0,0.1,0.1,0,0.2
		c-0.1,0-0.2,0.2-0.2,0.5l-0.1,4.3l0.5-0.1c0.9-1.6,1.5-2.9,1.9-4.1l1.4,0.9c0.1,0,0.1,0.1,0,0.2l-0.3,0.3c-0.8,1-1.7,1.9-2.7,2.8
		l2.8-0.1l0.9-0.9l1.2,1c0.1,0.1,0.1,0.1-0.1,0.1l-5.2,0.2l1.1,0.5c0.1,0.1,0.1,0.1,0,0.2l-0.2,0.3L157,20c-0.1,0.5,0.1,0.8,0.8,0.8
		c0.8,0.1,1.4,0,2-0.2c0.5,0,0.8-0.5,1.1-1.4c0-0.1,0-0.1,0.1-0.1c0.1,0,0.1,0,0.1,0.1c-0.1,0.6,0,1,0.3,1.1
		c0.7,0.7,0.6,1.2-0.3,1.5c-0.9,0.4-2,0.5-3.3,0.3c-1.3,0-1.8-0.9-1.7-2.6l0.1-2.4c0.1-0.7,0.1-1.3,0-1.8l-1.5,0.1l0.7,0.3l0.1,0.1
		c0,0,0,0.1-0.1,0.1l-0.1,0.3l-0.3,1.1c-0.3,2.3-2.3,4.2-6,5.8c-0.1,0-0.1,0-0.1-0.1c0-0.1,0-0.1,0.1-0.2c3.3-1.5,5-4,5-7.4
		L151.2,15.6z M151.5,11.1c1.2,0.7,1.9,1.4,2.3,2.1c0.1,0.3-0.2,0.7-0.8,1.1c-0.3,0.1-0.5,0.1-0.5-0.3c-0.2-1.1-0.6-2-1.2-2.8
		C151.3,11.1,151.3,11.1,151.5,11.1z"/>
	<path class="st0" d="M169.3,9.7l1.8,0.7c0.1,0,0.1,0.1,0,0.2c0,0,0,0,0,0.1l-0.3,0.2c-0.1,1.1-0.4,2.2-0.8,3.3l4.4-0.1l0.9-0.9
		l1.1,1l0.1,0.1c0,0,0,0.1-0.1,0.1l-6.4,0.1c-0.2,0.6-0.5,1.2-0.8,1.8l3.8-0.1l0.6-0.8l1.3,0.8c0.1,0.1,0.1,0.1-0.1,0.2l-0.4,0.4
		c-0.8,1.1-1.6,2.1-2.5,2.9c1.1,0.8,2.6,1.3,4.6,1.7c0.1,0.1,0.1,0.2,0.1,0.3c-0.8,0.1-1.5,0.5-2.1,1.3c-1.3-0.8-2.4-1.6-3.4-2.6
		c-1.3,0.9-3,1.8-5,2.7c-0.1,0-0.1,0-0.2-0.1c0,0,0-0.1,0.1-0.1c2.1-1.1,3.6-2.2,4.6-3.2c-0.6-0.9-1.1-1.9-1.4-3.2h-0.1
		c-1.1,2.1-2.7,4.1-4.7,5.9c-0.1,0-0.1,0-0.2,0s0-0.1,0-0.2c2.1-2.2,3.5-4.8,4.4-7.8h-2.1c-0.2,0.3-0.5,0.5-0.9,0.7
		c-0.2,0-0.3,0-0.3-0.2l0.3-1.4l0.5-2.9c0-0.1,0.1-0.2,0.2-0.2l1.2,0.7c0.1,0,0.1,0.1,0,0.3l-0.8,2.7h2.1
		C169,12.7,169.2,11.3,169.3,9.7z M172.9,16.4l-3.6,0.1c0.4,1,1,1.9,1.7,2.6C171.7,18.3,172.4,17.5,172.9,16.4z M172.3,10.8
		c1.2,0.4,1.9,0.8,2,1.2c0,0.4-0.2,0.7-0.7,1c-0.3,0.1-0.5,0.1-0.7-0.2c0-0.8-0.3-1.5-0.7-1.9c0-0.1-0.1-0.1-0.1-0.2
		C172.2,10.7,172.3,10.7,172.3,10.8z"/>
	<path class="st0" d="M182.6,10.2c0.1,0,0.1,0.1,0.1,0.2l-0.2,0.4v1.6h0.4l0.5-0.7l0.8,0.7c0,0.1,0,0.2-0.1,0.2l-1.7,0.1l-0.1,1.4
		c0.3-0.1,0.7-0.2,1.2-0.4c0.2-0.1,0.4-0.1,0.5-0.2c0.1,0,0.1,0.1,0,0.2c-0.1,0.1-0.4,0.2-0.7,0.4c-0.5,0.3-0.8,0.5-1,0.6l0.1,2.2
		c0,1.1-0.5,1.9-1.6,2.5c-0.1,0-0.2,0-0.2-0.2c0.1-0.4-0.1-0.7-0.4-0.9c0,0-0.1-0.1-0.1-0.2c0,0,0,0,0.1,0c0.7,0,1-0.2,0.9-0.6v-2.2
		c-0.7,0.4-1.2,0.8-1.5,1c-0.1,0.1-0.1,0.1-0.2,0.1l-0.1-0.1l-0.4-1.2c0-0.1,0-0.1,0.1-0.1c0.5-0.1,1.1-0.2,2-0.5v-1.6l-1.9,0.1
		c-0.1,0-0.2,0-0.2-0.1c0-0.1,0-0.2,0.1-0.2l2-0.1v-0.5l-0.1-2.2L182.6,10.2z M181.1,19.5c0.4,0.7,0.4,1.4,0.1,2.1
		c-0.3,0.6-0.7,0.9-1.2,0.9c-0.3-0.4-0.3-0.8,0.1-1.3c0.5-0.5,0.8-1,0.9-1.7C180.9,19.4,181,19.4,181.1,19.5z M185.7,9.8l1.3,0.4
		l-0.1,0.4l-0.1,1.5l1.4-0.1l0.5-0.7l1.1,0.6c0.1,0,0.1,0.1,0,0.2l-0.4,0.5c-0.3,2,0.1,3.5,1,4.4c0.1,0.1,0.3,0.1,0.4,0l0.4-0.4
		c0,0,0.1-0.1,0.2-0.1c0,0,0,0,0,0.1c-0.2,0.4-0.3,0.8-0.2,1.1c0.2,0.5,0.2,0.8-0.1,1c-0.3,0.2-0.6,0.1-1-0.2
		c-1.5-1.1-2.1-3.2-1.9-6.3l-1.4,0.1v1.1c0,0.5-0.1,1-0.2,1.5c0.7,0.3,1,0.4,1.1,0.5c0.1,0.5,0.1,1-0.2,1.4
		c-0.1,0.1-0.3,0.1-0.5-0.1c-0.3-0.3-0.6-0.6-0.9-0.9c-0.7,1.2-2,2.3-3.8,3.3c-0.1,0-0.1,0-0.1-0.1c0,0,0-0.1,0.1-0.1
		c1.7-1.2,2.7-2.5,3.2-3.8c-0.5-0.4-1-0.7-1.5-0.9c-0.1-0.1-0.1-0.2,0.1-0.2c0.2,0.1,0.6,0.2,1.1,0.4c0.2,0,0.4,0.1,0.4,0.1
		c0-0.2,0.1-0.5,0.1-1c0-0.2,0.1-0.4,0.1-0.5v-0.8c-0.2,0-0.5,0.1-0.7,0.2c-0.1,0-0.3,0.1-0.3,0.1l-0.4-0.4l1.4-0.1v-1L185.7,9.8z
		 M183.3,19.9c0-0.1,0.1-0.1,0.2-0.1c0.8,0.7,1.1,1.2,1.1,1.5c0,0.1-0.1,0.3-0.2,0.4c-0.1,0.2-0.3,0.3-0.5,0.4
		c-0.4,0.1-0.6,0-0.6-0.4C183.4,21.1,183.5,20.5,183.3,19.9z M185.7,19.8c0-0.1,0.1-0.1,0.2-0.1c0.8,0.6,1.3,1.1,1.4,1.5
		c0.1,0.1,0.1,0.2-0.1,0.3c-0.1,0.2-0.3,0.4-0.5,0.4c-0.4,0.1-0.7,0.1-0.7-0.3C186.1,20.9,185.9,20.3,185.7,19.8z M188.1,19.4
		c1.1,0.4,1.8,0.8,2.2,1.3c0.4,0.3,0.4,0.7,0.1,1c-0.1,0.2-0.3,0.4-0.5,0.5c-0.4,0.3-0.7,0.2-0.8-0.3c-0.2-0.9-0.5-1.7-1-2.3
		C188.1,19.5,188.1,19.5,188.1,19.4C188,19.4,188,19.3,188.1,19.4z"/>
	<path class="st0" d="M22.7,27.3c0-0.1,0-0.1,0.1-0.1l1.4,0.6c0.1,0,0.1,0,0,0.1L24,28.2c0,0,0,0.1,0,0.2c-0.1,1.1-0.1,2.1-0.1,3.1
		l2-0.1l0.8-0.8l1,0.9c0,0,0.1,0.1,0.1,0.1c0,0,0,0.1-0.1,0.1L24,31.9c0.1,1.4,0.3,2.6,0.6,3.6c0.6-0.9,1.1-1.7,1.4-2.5
		c0-0.1,0-0.1,0.1-0.1l1,0.8c0.1,0.1,0.1,0.2-0.1,0.3c-0.8,0.8-1.5,1.6-2.2,2.2c0.4,1,1.1,1.8,2,2.2c0.2,0.1,0.4,0.1,0.5-0.1
		l0.6-0.7c0,0,0.1-0.1,0.2-0.1c0,0,0,0.1,0,0.2c-0.3,0.5-0.4,1-0.4,1.6c0.1,0.3,0,0.6-0.1,0.7c-0.2,0.1-0.4,0.1-0.8-0.1
		c-1.3-0.8-2.3-1.8-2.9-3c-1.1,0.9-2,1.5-2.7,1.9c-0.1,0-0.1,0-0.1-0.1c1-0.7,1.9-1.5,2.6-2.3c-0.5-1.3-0.8-2.8-0.9-4.6l-2.3,0.1
		v2.1l1.2-0.4c0.1,0,0.2,0,0.1,0.1l-1.3,0.8v3.4c0,1-0.5,1.7-1.5,2.2c-0.1,0-0.1,0-0.1,0c0,0-0.1,0-0.1-0.1c0-0.4-0.1-0.7-0.5-1
		c0,0,0-0.1,0-0.1c0,0,0-0.1,0.1-0.1c0.7,0.1,1-0.1,0.9-0.5l0.1-3.2l-0.5,0.3c-0.8,0.5-1.4,0.9-1.8,1.2c0,0-0.1,0-0.2,0l-0.6-1.4
		c0,0,0.1,0,0.2-0.1c0.4-0.1,0.9-0.2,1.5-0.4l1.5-0.4v-2.4l-1.3,0.1c-0.4,0-0.9,0.1-1.4,0.2c-0.1,0-0.1,0-0.2,0l-0.4-0.5l3.2-0.2
		c0-0.9,0-1.6,0-2.3c0-0.1,0-0.1,0-0.2h0.1l1.2,0.5c0.1,0,0.1,0.1,0.1,0.2l-0.2,0.4l-0.1,1.4l2.3-0.1c0-0.2,0-0.5,0-0.9
		c0-0.4-0.1-0.8-0.1-1c0-0.3,0-0.6,0-1.1C22.7,28,22.7,27.6,22.7,27.3z M20.9,27.2l0.9,0.9c0,0.1,0,0.2-0.1,0.2
		c-1.1,0.3-2.7,0.6-4.6,1.1c-0.1,0-0.1,0-0.1-0.1c1.6-0.6,2.8-1.3,3.7-2.1C20.8,27.2,20.9,27.2,20.9,27.2z M25.1,28.2
		c1.1,0.4,1.7,0.8,1.7,1.2c-0.1,0.4-0.3,0.7-0.7,0.9c-0.3,0.1-0.5,0-0.5-0.3c0-0.7-0.2-1.3-0.7-1.7C24.9,28.2,25,28.2,25.1,28.2z"/>
	<path class="st0" d="M30.2,35.1c0,0-0.1,0-0.2,0c0,0,0-0.1,0-0.1c1.9-1.9,3.4-4.5,4.5-7.6l1.3,0.6c0.1,0,0.1,0.1,0,0.2l-0.2,0.2
		c-0.4,0.7-0.9,1.4-1.3,2.1l0.2,8.3c0,0.4-0.3,0.9-0.9,1.6c-0.1,0.1-0.2,0.1-0.3,0.1c0,0-0.1-0.1-0.1-0.2l0.1-3.6l0.1-4.9
		C32.7,32.7,31.7,33.8,30.2,35.1z M36.9,31.4v4.3l0.1,2.2c-0.1,0.5-0.4,1-0.9,1.5c-0.1,0.1-0.2,0.1-0.3-0.1l0.1-3.8V32l-0.1-1.7
		l1.2,0.5c0.1,0,0.1,0.1,0.1,0.2L36.9,31.4z M36.5,27.1l1,0.4c0.5,0.3,0.8,0.5,0.8,0.7c0,0.3-0.2,0.6-0.6,0.9
		c-0.1,0.1-0.3,0.1-0.3-0.1c-0.2-0.7-0.5-1.3-0.8-1.7C36.4,27.2,36.4,27.2,36.5,27.1z M40.4,29.4c-0.4,0-0.8,0.1-1.3,0.2
		c-0.1,0-0.3,0.1-0.3,0.1l-0.4-0.4l2.8-0.1l0.7-0.7l1,0.7c0,0,0,0.1,0.1,0.1c0,0,0,0.1-0.1,0.1l-0.5,0.6l0.1,4.9l0.1,3
		c0,1.1-0.5,1.9-1.6,2.6c-0.1,0-0.1,0.1-0.2,0.1c0,0-0.1-0.1-0.1-0.2c0-0.5-0.1-0.9-0.5-1.1c-0.1-0.1-0.1-0.2,0.1-0.2
		c0.7,0.1,1.1-0.1,1-0.5l-0.1-9H40.4z"/>
	<path class="st0" d="M45.1,35.1c0,0-0.1,0-0.2,0c0,0,0-0.1,0-0.1c2.2-2.5,3.8-5.1,4.8-8l1.3,0.7c0.1,0,0.1,0.1-0.1,0.2l-0.2,0.2
		c-0.5,0.9-1,1.7-1.5,2.3l0.2,7.7c-0.1,0.4-0.3,0.9-0.8,1.5c-0.1,0.1-0.2,0.2-0.2,0.2c0,0-0.1-0.1-0.1-0.2l0.1-3.7v-4.4
		C47.6,32.7,46.5,33.8,45.1,35.1z M55.4,27.7l1.1,0.6c0.1,0,0.1,0,0,0.1l-0.3,0.5l-0.4,3.4l0.6-0.1l0.5-0.6l1.1,0.8
		c0.1,0,0.1,0.1,0,0.2l-0.4,0.5c-0.1,1.3-0.1,2.4-0.2,3.3c0,0.5,0,1-0.1,1.5c-0.1,0.8-0.8,1.5-2,2.1c-0.1,0-0.2,0-0.2-0.1
		c0.1-0.5,0-0.9-0.4-1.1c-0.1,0-0.1,0-0.1-0.1c0,0,0-0.1,0.1-0.1c0.8,0.1,1.2-0.2,1.2-0.9c0.2-1.7,0.3-3.5,0.3-5.1l-0.7,0.1
		c-0.1,0.2-0.4,0.4-0.8,0.7c-0.1,0-0.2,0.1-0.2,0.1c0,0-0.1-0.1-0.1-0.2l0.5-4.6l-1.8,0.1l-0.1,3.9c0.2,3.6-1.4,6.3-4.6,8.1
		c-0.1,0-0.1,0-0.1-0.1c0-0.1,0-0.1,0.1-0.2c1.4-1.1,2.3-2.2,2.8-3.4c0.5-1.1,0.8-2.9,0.8-5.2l0.1-2v-1.1l-1.1,0.1
		c-0.1,0-0.1-0.1-0.1-0.2c0-0.1,0-0.1,0.1-0.1l3.9-0.2L55.4,27.7z"/>
	<path class="st0" d="M67.9,27.2l1.4,0.7c0,0,0.1,0.1,0.1,0.2l-0.2,0.4l-0.1,2.1h1.3l0.8-0.8l1,1c0.1,0.1,0.1,0.1,0,0.1l-3.1,0.1v4
		h2.3l0.8-0.8l1,0.9c0.1,0,0.1,0.1-0.1,0.2l-11.4,0.1c-0.5,0-1.1,0.1-1.5,0.2l-0.4-0.4L64,35l-0.1-4h-1c-0.7,0-1.2,0-1.5,0.1
		L61,30.8l2.9-0.1v-1.3c0-0.3,0-0.7-0.1-1.3c0-0.3,0-0.5,0-0.6c0,0,0-0.1,0.1-0.1l1.4,0.6c0.1,0,0.1,0,0,0.1l-0.2,0.4l-0.1,2.1
		l2.6-0.1l0.1-1.7c0-0.2,0-0.6-0.1-1.1c0-0.3,0-0.5,0-0.6C67.8,27.3,67.8,27.2,67.9,27.2z M65.1,35.6l0.9,1.2
		c0.1,0.1,0.1,0.2-0.1,0.3c-1.3,1.2-3.3,2.3-5.7,3.4c-0.1,0-0.1,0-0.2-0.1c0,0,0-0.1,0.1-0.2c2.3-1.2,3.9-2.7,4.9-4.7
		c0-0.1,0-0.1,0.1-0.1C65,35.5,65,35.6,65.1,35.6z M65.2,31v4h2.6v-4.1L65.2,31z M67.4,36.4c2,0.5,3.3,1,4.1,1.5
		c0.3,0.5,0.2,1.1-0.1,1.5c-0.3,0.4-0.5,0.4-0.9-0.1c-0.9-1.3-2-2.2-3.2-2.8C67.2,36.6,67.2,36.5,67.4,36.4z"/>
	<path class="st0" d="M85.1,27.6l1.3,0.7c0.1,0.1,0.1,0.2,0,0.2L86.1,29v7.1l0.1,2c0,0.9-0.6,1.6-1.8,2.2c-0.1,0-0.2,0-0.2-0.1
		c0.1-0.6-0.1-1-0.5-1.1c0,0-0.1,0-0.1-0.1c0-0.1,0.1-0.1,0.1-0.1c0.7,0.1,1,0,1-0.1l-0.1-10.1l-6.4,0.1l0.1,9.6
		c-0.1,0.6-0.3,1.2-0.8,1.9c-0.1,0.1-0.2,0.1-0.3,0.1c-0.1,0-0.2-0.1-0.2-0.2l0.1-3.1v-7.1l-0.1-1.9c0-0.1,0-0.1,0.1-0.1l1.1,0.6
		l6.3-0.1L85.1,27.6z M79,30.7c-0.1,0-0.2,0-0.2-0.1c0-0.1,0.1-0.2,0.2-0.2l3.6-0.1l0.7-0.7l0.9,0.8c0,0,0.1,0.1,0.1,0.1
		c0,0,0,0.1-0.1,0.1L79,30.7z M82.7,32l1.2,0.6c0.1,0,0.1,0.1,0,0.1l-0.3,0.5l-0.1,2.6l0.1,0.2c0,0.1,0,0.1-0.1,0.1
		c-0.3,0-1.4,0-3.3,0c0,0.3-0.2,0.7-0.7,1.2c-0.1,0.1-0.2,0.1-0.2,0.1c0,0-0.1,0-0.1-0.1l0.1-2l-0.1-1.6c0-0.6,0-1,0-1.4
		c0-0.1,0-0.1,0.1-0.1l1,0.5l1.8-0.1L82.7,32z M80.4,33v2.8l1.9-0.1l0.1-2.8L80.4,33z"/>
	<path class="st0" d="M89.5,34.7c-0.1,0-0.1,0-0.2,0c0,0,0-0.1,0-0.2c2.2-1.9,3.9-4.3,5-7.4l1.1,0.7c0.1,0,0.1,0.1,0,0.3
		c-0.5,0.9-1.1,1.8-1.9,2.8l-0.1,7.8c-0.1,0.5-0.3,1-0.8,1.5c-0.3,0.2-0.4,0.2-0.4,0l0.1-3.7l0.1-4.5C91.8,32.8,90.8,33.7,89.5,34.7
		z M97.1,30.1c-0.5,0-1,0-1.5,0.1c0,0,0,0-0.1,0l-0.4-0.4l2.3-0.1l0.2-1l0.3-1.6l1.4,0.5c0.1,0,0.1,0.1,0,0.2
		c-0.2,0.1-0.3,0.4-0.4,0.8l-0.2,1h1.6L101,29l0.9,0.8c0,0.1,0,0.2-0.1,0.2L98.5,30l-0.4,2l3-0.1l0.8-0.8l1,0.9
		c0.1,0.1,0.1,0.2,0,0.2L98,32.3L97.9,33l-0.2,0.9l2.4-0.1l0.5-0.6l1.1,0.9c0.1,0.1,0.1,0.1,0,0.2l-0.5,0.4
		c-0.7,0.9-1.6,1.8-2.8,2.8c0.8,0.4,1.3,0.8,1.7,1.1c0.2,0.3,0.1,0.8-0.3,1.4c-0.1,0.2-0.3,0.3-0.3,0.2c-0.1,0-0.2-0.2-0.3-0.4
		c-0.9-1.3-2-2.4-3.2-3.3c0-0.1,0-0.1,0.1-0.2c0.7,0.3,1.4,0.6,2.1,0.9c0.8-1.2,1.4-2.3,1.9-3.3l-2.5,0.1c-0.4,0.4-0.7,0.6-1,0.7
		c-0.2,0-0.3,0-0.3-0.1l0.5-2.2l0.1-0.3h-0.8c-0.1,0-0.3,0-0.5,0.1c-0.5,0-0.8,0-1,0.1L94.2,32L97,32l0.4-1.9H97.1z"/>
	<path class="st0" d="M106.1,31.6l1.7-0.1l0.5-0.7l1.1,0.7c0.1,0.1,0.1,0.2-0.1,0.2l-0.3,0.4c-0.4,2.7-1.9,5.1-4.5,7.2
		c-0.1,0-0.1-0.1-0.1-0.2c1.9-1.9,3.1-4.3,3.4-7.4l-1.6,0.1c-0.1,0-0.2,0-0.2-0.2C105.9,31.7,105.9,31.6,106.1,31.6z M109.5,32.2
		c-0.1,0-0.1,0-0.1-0.1c0-0.1,0-0.1,0.1-0.2l1.3-0.1c0-0.6-0.1-1.2-0.1-1.9c0-0.1,0-0.1,0.1-0.1l0.6,0.2l1.9-2l-3.7,0.2
		c-0.7,0.1-1.2,0.1-1.4,0.2l-0.6-0.4l5.9-0.2l0.7-0.5l1.2,0.8c0.1,0.1,0.1,0.3-0.2,0.3c-0.5,0.1-1.7,0.7-3.5,1.7l0.3,0.1
		c0.1,0,0.1,0,0.1,0.1c0,0.1,0,0.3,0,0.7c0,0.3,0,0.6,0,0.8l0.2-0.1l0.4-0.4l0.7,0.5c0,0.1,0,0.1-0.1,0.2l-1.2,0.1
		c0,0.5,0,1.1,0,1.6h0.2l0.5-0.4l0.7,0.5c0,0,0,0.1-0.1,0.2h-1.2c0,0.2,0,0.5-0.1,0.9c0,0.4,0,0.6,0,0.8h0.8l0.5-0.5l0.7,0.7
		c0,0,0,0.1-0.1,0.2l-1.9,0.1c0,0.3,0,0.8-0.1,1.3c0,0.3,0,0.5,0,0.5c0,1.1-0.5,1.9-1.6,2.4c-0.1,0-0.2,0-0.2-0.1
		c0-0.7-0.2-1.1-0.5-1.2c0,0-0.1-0.1-0.1-0.1c0,0,0-0.1,0.1-0.1c0.7,0,1-0.1,1-0.3c0-0.1,0.1-0.5,0.1-1.2c0-0.5,0.1-1,0.1-1.3
		l-2.1,0.1c-0.1,0-0.1,0-0.1-0.1c0-0.1,0-0.1,0.1-0.2l2.1-0.1c0-0.5,0-1.1,0-1.7l-1.1,0.1c-0.1,0-0.1,0-0.1-0.1s0-0.1,0.1-0.2
		l1.1-0.1c0-0.2,0-0.5,0.1-0.9c0-0.4,0-0.6,0-0.8L109.5,32.2z M113.8,31.4c0,0.4,0.1,0.9,0.2,1.3c0.7-0.6,1.3-1.3,1.9-2.1l0.9,1
		c0.1,0.1,0.1,0.2-0.1,0.2l-0.3,0.1c-0.4,0.2-1.1,0.5-1.9,0.8c-0.2,0.1-0.3,0.1-0.4,0.2c0.3,1.9,1.5,3.7,3.6,5.3
		c0.1,0,0,0.1-0.1,0.2c-0.3-0.1-0.9,0-1.8,0.3c-1.5-1.3-2.2-3.8-2.1-7.4H113.8z"/>
	<path class="st0" d="M127.9,27l1.3,0.5c0.1,0,0.1,0.1-0.1,0.2l-0.2,0.2c-0.4,0.4-1,0.9-1.7,1.5l2.5-0.1l0.8-0.7l0.9,0.9
		c0.1,0.1,0.1,0.1,0,0.1l-5,0.2c-0.2,0.5-0.4,0.9-0.8,1.4l3.2-0.1l0.7-0.6l0.9,0.8c0.1,0.1,0.1,0.2-0.1,0.2l-4.8,0.1
		c-0.3,0.5-0.7,1-1,1.5l5.5-0.1l0.8-0.8l0.9,0.9c0.1,0,0.1,0.1,0,0.1l-7.5,0.2c-0.2,0.2-0.4,0.4-0.5,0.7l0.8,0.4l3.7-0.1l0.7-0.7
		l1.3,0.9l-0.4,0.5l0.1,3.3c0,0.7-0.2,1.3-0.8,1.9c-0.1,0.2-0.3,0.2-0.4-0.1c-0.1-0.4-0.3-0.7-0.5-0.9l-3.8,0.1c0,0.3-0.3,0.6-0.7,1
		c-0.2,0.1-0.3,0.1-0.3-0.1l0.1-5.5l-0.1-0.4c-1.1,1.2-2.3,2.4-3.6,3.6c0,0-0.1,0.1-0.1,0.1c-0.1,0-0.1-0.1-0.1-0.1
		c1.5-1.5,2.7-3.1,3.6-4.6l-1.1,0.1c-0.5,0-1,0-1.5,0.1l-0.4-0.4l3.2-0.1c0.2-0.3,0.4-0.6,0.7-1.1c0-0.1,0.1-0.2,0.1-0.3h-0.5
		c-0.5,0-0.9,0-1.4,0.1l-0.5-0.4l2.6-0.1c0.2-0.4,0.4-0.9,0.6-1.5l-2.3,0.1c-0.8,0.1-1.3,0.1-1.5,0.2l-0.4-0.4l6.4-0.2
		c0.3-0.7,0.6-1.4,0.9-2.2C127.8,27,127.8,27,127.9,27z M123.2,27.2c1.2,0.6,1.7,1,1.6,1.4c-0.1,0.3-0.3,0.6-0.7,0.8
		c-0.3,0-0.5-0.1-0.5-0.3c-0.1-0.7-0.2-1.3-0.5-1.7C123,27.2,123.1,27.1,123.2,27.2z M124.4,34.5l-0.1,1.4l2.8-0.1
		c0.1,0,0.1,0.1,0.1,0.1c0,0.1,0,0.1-0.1,0.2l-2.8,0.1v1.4l2.8-0.1c0.1,0,0.1,0,0.1,0.1c0,0.1,0,0.2-0.1,0.2l-2.8,0.1v1.3l3.8-0.1
		v-4.2c0-0.2-0.1-0.3-0.3-0.3L124.4,34.5z"/>
	<path class="st0" d="M137,33.1c-0.7,0-1.1,0-1.5,0.1l-0.5-0.4l5.2-0.1c0.1-1,0.2-2.1,0.2-3.4l-2.2,0.1c-0.7,0-1.1,0.1-1.5,0.2
		l-0.4-0.4l7.5-0.2l0.8-0.8l1,0.9l0.1,0.1c0,0-0.1,0.1-0.1,0.1l-4,0.1c0,1.2,0,2.4-0.1,3.5l3.4-0.1l0.8-0.9l1,1c0,0,0.1,0.1,0.1,0.1
		s0,0.1-0.1,0.1l-4.7,0.1c0.4,2.7,2.2,4.6,5.5,5.9c0.1,0.1,0.1,0.1,0.1,0.2c0,0-0.1,0.1-0.2,0.1c-0.5,0-1.1,0.3-1.7,0.9
		c-2.4-1.3-3.7-3.7-3.9-7.1h-0.3c0,3.5-2.5,6-7.3,7.5c-0.1,0-0.1,0-0.2-0.1c0-0.1,0-0.1,0.1-0.2c4-1.5,6-3.9,6.1-7.3L137,33.1z"/>
	<path class="st0" d="M151.9,32.7c-0.7,0-1.2,0-1.5,0.1l-0.4-0.4l4.7-0.1c0.1-1.3,0.1-3,0.1-5l1.6,0.4l0.1,0.1c0,0,0,0.1-0.1,0.1
		l-0.3,0.4c0,1.5-0.1,2.9-0.2,4l3.6-0.1l0.9-0.9l1,1c0.1,0.1,0.1,0.2-0.1,0.2l-4.9,0.1c0.4,3.1,2.2,5.3,5.3,6.6
		c0.1,0,0.1,0.1,0.1,0.1c0,0.1-0.1,0.1-0.2,0.1c-0.7,0-1.3,0.3-1.7,0.9c-2.4-1.1-3.7-3.7-3.9-7.7h-0.2c0.1,4.1-2.3,6.7-7,7.7
		c-0.1,0-0.1,0-0.1,0c0-0.1,0-0.1,0.1-0.2c3.9-1.2,5.9-3.7,5.9-7.5L151.9,32.7z"/>
	<path class="st0" d="M166.9,27.2l1.4,0.5c0.1,0.1,0.1,0.1,0,0.2l-0.3,0.4v2.5c0.5-0.9,0.9-1.6,1-2.1l0.7,0.8c0.1,0.1,0.1,0.2,0,0.2
		l-1.7,1.5v0.6h0.7l0.6-0.5l0.7,0.7c0,0,0,0.1-0.1,0.2l-1.9,0.1l-0.1,1.3c0.9,0.3,1.5,0.6,1.6,0.9c0,0.2-0.1,0.5-0.5,0.8
		c-0.2,0.1-0.3,0.1-0.4-0.1c-0.2-0.7-0.5-1.1-0.7-1.4v2.8l0.1,2.5c-0.1,0.4-0.4,0.9-0.9,1.4c-0.1,0.1-0.1,0.2-0.2,0.2
		s-0.1-0.1-0.1-0.2l0.1-4v-1.4c-0.8,1.3-1.9,2.6-3.2,4c-0.1,0-0.1,0-0.2,0s0,0,0-0.1c1.2-1.6,2.3-3.9,3.3-6.7h-0.4
		c-0.7,0-1.2,0.1-1.5,0.2l-0.4-0.4l2.5-0.1v-2.5c0-0.4,0-0.8-0.1-1.4c0-0.3,0-0.5,0-0.6C166.8,27.2,166.8,27.1,166.9,27.2z
		 M165,29.3c-0.1-0.1-0.1-0.1,0.1-0.1c0.8,0.3,1.2,0.6,1.4,0.8c0,0.2-0.1,0.5-0.3,0.8c-0.2,0.2-0.4,0.2-0.5-0.1
		C165.5,30.2,165.3,29.7,165,29.3z M171.5,29.5c-0.5,0-0.9,0-1.1,0.1l-0.4-0.4l1.9-0.1v-2l1.4,0.4c0.1,0,0.1,0.1,0,0.2l-0.1,0.1
		c0,0.1-0.1,0.2-0.2,0.5v0.9l1.5-0.1l0.7-0.7l0.8,0.8c0.1,0.1,0,0.1-0.1,0.1l-2.9,0.1v1.3h1.1l0.7-0.7l0.8,0.8
		c0.1,0.1,0.1,0.1-0.1,0.2l-2.5,0.1v1.4l2.3-0.1l0.7-0.8l0.9,0.8l0.1,0.1c0,0-0.1,0.1-0.1,0.1l-5.7,0.2c-0.4,0-0.8,0-1.3,0.1
		c0,0,0,0-0.2,0l-0.5-0.4l2.6-0.1v-1.3c-0.3,0-0.7,0-1.1,0.1c0,0,0,0-0.1,0l-0.4-0.4l1.7-0.1l0.1-1.1v-0.1H171.5z M171.3,33.8
		l2.6-0.2l0.5-0.6l1.1,0.7c0.1,0,0.1,0.1,0.1,0.2l-0.4,0.5l0.2,3.6c0.1,1-0.4,1.8-1.4,2.5c-0.1,0.1-0.2,0.1-0.2-0.1
		c0-0.5-0.2-0.8-0.4-0.9c0,0-0.1,0-0.1-0.1c0-0.1,0-0.1,0.1-0.1c0.5,0.1,0.8-0.1,0.7-0.5l-0.1-4.9l-2.6,0.2v1.1l2.2-0.1
		c0.1,0,0.2,0,0.2,0.1c0,0.1,0,0.2-0.1,0.2l-2.2,0.1l-0.1,1.3l2.3-0.1c0.1,0,0.1,0.1,0.2,0.2c0,0,0,0.1-0.1,0.1l-2.3,0.2l-0.1,1.4
		c0,0.5-0.2,1.1-0.7,1.6c-0.1,0.1-0.2,0.2-0.3,0.3c-0.1,0-0.1-0.1-0.1-0.3l0.1-2.2l0.1-2.8v-1.9L171.3,33.8z"/>
	<path class="st0" d="M179.8,29.5l2.2-0.1l0.1-2.2l1.3,0.4c0.1,0,0.1,0.1,0.1,0.2c-0.1,0.2-0.2,0.7-0.2,1.6h0.4l0.4-0.5l1,0.8
		l0.1,0.1c0,0,0,0.1-0.1,0.1l-0.4,0.4c-0.5,0.7-1,1.4-1.6,2.1v0.4c1,0.4,1.5,0.7,1.7,1c0,0.4-0.2,0.7-0.5,0.9
		c-0.3,0.1-0.5,0.1-0.5-0.2c-0.1-0.7-0.3-1.2-0.7-1.6l-0.1,3.9l0.1,2c-0.1,0.6-0.4,1.2-0.9,1.7c-0.1,0.1-0.1,0.1-0.2,0.1
		c-0.1,0-0.1-0.1-0.1-0.2l0.1-3.1l0.1-3.8c-0.8,0.7-2,1.7-3.6,2.9c-0.1,0-0.1-0.1-0.1-0.2c2.1-1.8,3.8-3.9,5.1-6.5l-2.1,0.1
		c-0.4,0-0.8,0.1-1.1,0.2L179.8,29.5z M187.5,27.2l1.3,0.5c0.1,0,0.1,0.1,0,0.2l-0.2,0.2v2.1l1.1-0.1l0.5-0.6l1.2,0.8
		c0.1,0,0.1,0.1,0,0.2l-0.3,0.5v3.2c0,0.6-0.2,1.2-0.7,1.7c-0.1,0.2-0.3,0.2-0.4-0.1c-0.1-0.3-0.2-0.5-0.4-0.8c0,0,0,0-0.1-0.1
		l-1,0.1v1.5l0.1,2.5c-0.1,0.4-0.4,0.9-0.8,1.3c-0.1,0.1-0.2,0.1-0.2,0.1c-0.1,0-0.1-0.1-0.1-0.2l0.1-3.4V35l-1.2,0.1
		c-0.2,0.3-0.4,0.6-0.8,0.9c-0.1,0-0.1,0.1-0.2,0.1c0,0-0.1-0.1-0.1-0.2V31l-0.1-1.3l1,0.5h1.3v-1.1
		C187.6,28.4,187.6,27.8,187.5,27.2z M186.4,30.6v2l1.2-0.1v-2L186.4,30.6z M186.4,32.7v2.1l1.2-0.1v-2H186.4z M189.5,30.5h-0.9v2
		l1.4-0.1v-1.5C190,30.6,189.8,30.5,189.5,30.5z M189.9,34.7l0.1-2.1l-1.4,0.1v2.1L189.9,34.7z"/>
</g>
</svg>
