<?xml version="1.0" encoding="utf-8"?>
<!-- Generator: Adobe Illustrator 21.0.0, SVG Export Plug-In . SVG Version: 6.00 Build 0)  -->
<svg version="1.1" id="图层_1" xmlns="http://www.w3.org/2000/svg" xmlns:xlink="http://www.w3.org/1999/xlink" x="0px" y="0px"
	 viewBox="0 0 204.1 362.8" style="enable-background:new 0 0 204.1 362.8;" xml:space="preserve">
<style type="text/css">
	.st0{fill:#FFFFFF;}
</style>
<g>
	<path class="st0" d="M56.4,37.5L55.3,39h5.4l1.8-2l3.3,2.4c0.4,0.4,0.4,0.6,0.2,0.7L64.6,41c-1.5,2.5-3,4.6-4.6,6.5
		c2.2,0.6,3.7,1.2,4.4,1.7c0.5,0.7,0.6,1.9,0.2,3.5c-0.1,0.6-0.4,1-0.7,1.1c-0.4,0.1-0.7-0.1-1.1-0.6c-1.6-1.5-3.3-2.6-5-3.5
		c-3.3,2.6-8.1,5-14.2,7.2c-0.2,0.2-0.4,0.3-0.6,0.2c-0.1-0.1-0.1-0.4,0-0.7c5.4-2.2,9.5-4.9,12.4-7.9c-2.2-1.1-4.6-1.9-7-2.4
		c1-2.1,1.8-4.1,2.6-5.9c-2,0-3.6,0.1-5,0.4l-1.5-1.3h6.8c0.6-1.8,1.2-3.7,1.7-5.5l4.4,2.4l0.4,0.2c0,0.1-0.1,0.2-0.4,0.4L56.4,37.5
		z M63.8,14.2l3,2.2c0.2,0.1,0.2,0.3-0.2,0.6l-7.4,5.4l4.8-0.2l2.2-2.4l3,2.6c0.2,0.4,0.2,0.6-0.2,0.6l-10.2,0.2v3v5
		c-0.5,1.5-1.5,2.7-3.1,3.7c-0.5,0.1-0.8,0-0.9-0.4l0.4-7.6c-3.3,2.8-7.1,5.4-11.4,7.8c-0.4,0-0.5-0.2-0.4-0.6
		c3.7-2.5,7.1-6,10.2-10.7h-2c-1.4,0-2.8,0.1-4.2,0.4c-0.4,0.1-0.6,0.2-0.7,0.2L45,22.5l10.2-0.2v-4.8L55,12.7
		c-0.1-0.6-0.1-0.8,0.2-0.6l3.9,1.3c0.4,0.1,0.4,0.3,0.2,0.6l-0.4,1.5V22c1.6-2.1,3.1-4.5,4.6-7.2C63.6,14.5,63.7,14.3,63.8,14.2z
		 M47.9,15.3c-0.1-0.4,0-0.5,0.4-0.4c0.1,0,0.4,0.1,0.7,0.4c2.2,0.9,3.6,1.6,4.1,2.2c0.2,0.7-0.1,1.7-1.1,2.8
		c-0.9,0.5-1.4,0.5-1.7,0C49.9,18.2,49.1,16.6,47.9,15.3z M50.3,45.4c0.7,0.1,1.8,0.3,3.1,0.6c1.5,0.2,2.5,0.4,3.1,0.6
		c1-1.2,2.3-3.4,3.9-6.6l-5.9,0.2L50.3,45.4z M59.9,24.7c3.2,0.6,5.5,1.4,6.8,2.4c0.4,0.6,0.2,1.8-0.6,3.5c-0.7,0.7-1.4,0.7-1.8-0.2
		c-1.2-2.3-2.8-4.1-4.6-5.4C59.5,24.9,59.6,24.7,59.9,24.7z M63.1,56.5c-0.5-0.1-0.6-0.4-0.2-0.7c4.4-3.4,7.7-7.1,9.8-10.9
		c-1.4-3.1-2.3-7.7-3-13.8c-0.2,0.2-0.5,0.7-0.7,1.3c-0.5,0.7-1.3,1.8-2.4,3.3c-0.1,0.1-0.2,0.2-0.4,0.2c-0.1,0-0.2-0.1-0.2-0.4
		c3.9-8.1,6.7-15.8,8.3-23.1c0-0.2,0.1-0.3,0.4-0.2l4.2,3.1c0.4,0.4,0.4,0.6,0,0.7c-0.7,0.6-1.4,1.3-1.8,2c-1.2,2.6-2.7,5.3-4.4,8.1
		l8.7-0.6l2.6-2.8l3.3,3.1c0.2,0.1,0.2,0.3-0.2,0.6L78.6,27l3.1,2c0.4,0.2,0.3,0.8-0.2,1.7c-1.4,5.7-3.1,10.2-5.2,13.5
		c2.8,3.8,6.8,6.6,11.8,8.5c0.2,0.1,0.4,0.2,0.4,0.4c0,0.2-0.1,0.4-0.4,0.4c-2-0.1-4.2,0.9-6.6,3c-3.6-3.1-6.1-6-7.6-8.9
		C71.8,50.3,68.1,53.3,63.1,56.5z M72.1,27.3c-0.1,0.2-0.4,0.6-0.7,1.1c-0.5,0.7-0.9,1.4-1.1,1.8c0.9,4.3,2.2,7.9,4.1,10.9
		c1.5-3.8,2.5-8.6,3.1-14.2L72.1,27.3z"/>
	<path class="st0" d="M71,63.2l4.4,1.3c0.2,0.1,0.2,0.4,0,0.7l-0.6,1.1c-0.4,3.7-0.4,7.3-0.2,10.7l5.9-0.2l2.4-2.4l2.8,3
		c0.2,0.1,0.2,0.3,0,0.6l-11.1,0.2c0.2,4.2,0.8,8.1,1.7,11.8c1.4-2.7,2.5-5.5,3.3-8.5l3.7,2.6c0.2,0.1,0.2,0.5-0.2,1.1
		c-1.6,3.4-3.4,6.5-5.4,9.2c1.5,3.6,3.5,6.4,6.1,8.5c0.5,0.2,0.9,0.2,1.1,0l1.5-1.5c0.4-0.4,0.5-0.3,0.4,0.2c-0.4,1.2-0.4,2.3,0,3.1
		c0.5,1.2,0.4,2.2-0.4,3c-0.7,0.6-1.8,0.6-3.3,0c-3.2-1.5-6-4.7-8.3-9.6c-3,3.3-7.6,7-14,10.9c-0.1,0.1-0.2,0.1-0.4-0.2
		c-0.1-0.1-0.1-0.2,0-0.4c5.9-4.3,10.3-8.9,13.1-13.7c-1.5-5-2.4-10.6-2.8-16.6l-14.6,0.4l2.4,2c0.2,0,0.2,0.2,0,0.7l-1.3,2l6.6-0.2
		l2.4-2.4l2.6,2.8c0.4,0.2,0.3,0.4-0.2,0.4l-12,0.4l-4.1,5.9h5.2l-0.2-5l4.2,1.7c0.2,0,0.4,0.1,0.4,0.2L62,87.4l-0.6,0.9V90h1.7
		l2.4-2.6l2.8,2.8c0.1,0.2,0,0.4-0.4,0.4l-6.5,0.2v4.4l8.3-1.5c0.4,0.1,0.4,0.2,0,0.4l-8.3,3l0.2,5.4c-0.1,1.7-1,3.3-2.8,4.8
		c-0.4,0.5-0.7,0.5-1.1,0l0.2-8.9l-1.7,0.6c-0.2,0.1-0.6,0.2-0.9,0.4c-2.8,1-4.5,1.7-5,2.2c-0.2,0.2-0.4,0.2-0.6,0l-1.8-4.1l10-1.7
		v-4.8l-8.1,0.4c-0.5-0.4-0.5-0.7,0-0.9c0.7-0.2,1.1-0.4,1.1-0.6l2.2-5.5c-1.7,0-3.1,0.1-4.1,0.2l-1.1-0.9l5.5-0.2L54,82l1.1-3.5
		h-2.2c-3.3,0.1-5.6,0.3-6.8,0.6l-1.7-1.5l12.9-0.2l-0.2-5.4l-6.8,0.2c-0.6-0.4-0.7-0.7-0.2-1.1h7v-0.7c0-3.4-0.1-5.6-0.2-6.5
		c0-0.4,0.1-0.4,0.4-0.2l4.2,1.5c0.1,0,0.2,0.1,0.2,0.4l-0.6,1.5L61.1,71h3l2-2l2.4,2.4c0.1,0.1,0.2,0.2,0.2,0.4
		c0,0.1-0.1,0.2-0.4,0.2l-7.2,0.2l-0.4,5.2L70.8,77C70.6,73,70.7,68.4,71,63.2z M78.4,67.3c3.2,1.4,4.9,2.6,5.2,3.7
		c-0.2,1.2-1,2.1-2.4,2.6c-1.1,0.1-1.7-0.2-1.8-0.9c-0.1-2.2-0.6-3.9-1.5-5C77.9,67.4,78,67.3,78.4,67.3z"/>
	<path class="st0" d="M52.7,134.7c-2.2,0-3.9,0.1-5,0.4l-1.7-1.5l17.5-0.4c0.4-3.3,0.6-7.2,0.6-11.6l-7.6,0.2c-2.2,0-3.9,0.2-5,0.6
		l-1.5-1.5l25.5-0.7l2.8-2.8l3.5,3.1l0.2,0.4c-0.1,0.1-0.2,0.2-0.4,0.2l-13.5,0.4c0.1,4.1,0,8-0.4,11.8l11.6-0.4l2.8-3l3.5,3.3
		c0.1,0.1,0.2,0.2,0.2,0.4c0,0.1-0.1,0.2-0.4,0.2l-16.1,0.4c1.2,9,7.4,15.6,18.5,19.9c0.2,0.2,0.4,0.4,0.4,0.6
		c0,0.1-0.2,0.2-0.6,0.4c-1.7,0-3.7,1-5.9,3.1c-8.1-4.4-12.5-12.4-13.1-24h-1.1c-0.1,11.7-8.3,20.2-24.6,25.5
		c-0.2,0.1-0.4,0.1-0.6-0.2c0-0.2,0.1-0.4,0.4-0.6c13.4-5,20.3-13.2,20.7-24.6L52.7,134.7z"/>
	<path class="st0" d="M53.3,184.6c-2.2,0-3.9,0.1-5.2,0.4l-1.5-1.5l16.1-0.4c0.4-4.6,0.4-10.2,0.2-16.8l5.4,1.3l0.4,0.2
		c0,0.1-0.1,0.2-0.4,0.4l-1.1,1.3c0,5.2-0.2,9.7-0.6,13.7l12.2-0.4l3-3l3.3,3.5c0.2,0.4,0.2,0.6-0.2,0.6l-16.4,0.4
		c1.4,10.6,7.4,18,18.1,22.3c0.2,0.1,0.4,0.2,0.4,0.4c-0.1,0.2-0.3,0.4-0.6,0.4c-2.3,0.1-4.3,1.1-5.9,3c-8-3.8-12.4-12.5-13.1-26
		h-0.7c0.2,13.8-7.7,22.5-23.8,26.2c-0.2,0.1-0.4,0.1-0.4,0c0-0.2,0.1-0.4,0.2-0.6c13.2-3.9,19.9-12.4,20.1-25.5L53.3,184.6z"/>
	<path class="st0" d="M55,224c-1.8,0.1-3.6,0.3-5.2,0.6l-1.5-1.3l14.8-0.4l-0.2-6.3l5.5,1.3c0.1,0,0.2,0.1,0.4,0.2
		c-0.1,0.1-0.2,0.2-0.4,0.4c-0.4,0.4-0.7,1-0.9,1.8v2.4l9-0.2l2.6-2.8l3.1,3c0.2,0.2,0.2,0.5-0.2,0.7l-14.6,0.4v4.1l5.7-0.2l2.4-2.4
		l3.1,2.8l0.2,0.4c-0.1,0.1-0.2,0.2-0.4,0.2L67.5,229v4.8l12-0.2l2.6-2.6l3.1,3c0.1,0.1,0.2,0.2,0.2,0.4c0,0.1-0.1,0.2-0.4,0.2
		l-32.5,0.6c-1.8,0.1-3.6,0.3-5.2,0.6l-1.5-1.5l17.2-0.2v-5l-3.9,0.2c-1.2,0-2.7,0.1-4.4,0.4c-0.2,0.1-0.4,0.2-0.6,0.2l-1.7-1.5
		l10.5-0.2v-3.7v-0.6L55,224z M58.5,238l13.8-0.4l1.7-2.2l4.6,2.6c0.2,0.1,0.2,0.3-0.2,0.6l-0.9,1.7l0.4,13.3
		c0.2,3.3-1.5,6.2-5.4,8.5c-0.4,0.1-0.6,0-0.7-0.4c0.2-1.5-0.3-2.5-1.7-3.1c-0.1-0.1-0.2-0.2-0.2-0.4c0.1-0.2,0.2-0.3,0.4-0.2
		c2-0.1,2.8-0.6,2.6-1.5l-0.4-17.7l-14.4,0.4v4.4l12.9-0.2c0.4,0,0.6,0.1,0.6,0.4c0,0.2-0.1,0.4-0.4,0.6l-13.1,0.4v4.8l13.1-0.4
		c0.4,0.1,0.6,0.2,0.6,0.4c0,0.2-0.1,0.4-0.4,0.6l-13.3,0.4l-0.2,5.9c-0.1,1.6-0.9,3.3-2.2,5c-0.5,0.4-0.9,0.6-1.1,0.6
		c-0.4,0-0.5-0.2-0.4-0.7l0.2-7.8V245l-0.2-8.9L58.5,238z"/>
	<path class="st0" d="M63.3,268.6c-0.1-0.4,0-0.5,0.4-0.4l5.2,1.7c0.2,0.2,0.2,0.5,0,0.7l-0.7,1.1c0,0.2-0.1,0.7-0.2,1.3
		c0,0.6-0.1,1.1-0.2,1.5l7.8-0.2l2.6-2.6l3.1,3l0.2,0.4c-0.1,0.1-0.2,0.2-0.4,0.2l-13.5,0.4c0,0.4-0.1,0.9-0.4,1.7
		c-0.1,0.7-0.2,1.3-0.4,1.7c-0.2,0.4-0.4,0.7-0.4,1.1h6.5l2.4-2.4l3.1,2.8c0.1,0.1,0,0.3-0.4,0.6l-12,0.2c-0.4,0.9-0.9,2-1.5,3.3
		c-0.4,0.7-0.6,1.3-0.7,1.7l16.1-0.6l2.8-2.6l3.1,3l0.2,0.4c-0.1,0.1-0.2,0.2-0.4,0.2l-12.4,0.4c2.1,3.8,6.9,6.5,14.4,8.1
		c0.2,0.1,0.4,0.2,0.4,0.4c0,0.1-0.1,0.2-0.4,0.4c-1,0.1-2.4,1-4.2,2.6c-0.6,0.5-1,0.9-1.3,1.1c-2.2-1.7-4.1-3.4-5.5-5l-0.2,0.4
		l-1.1,1.1v11.4c0,2.3-1.1,4.2-3.3,5.7c-0.6,0.4-1,0.3-1.1-0.2c-0.5-1.5-0.9-2.6-1.3-3.3l-10,0.2c-0.4,1-1,2-2,3
		c-0.7,0.7-1.1,0.8-1.1,0.2v-18.6c-3.2,2.5-7.8,5-13.7,7.6c-0.2,0.1-0.4,0.1-0.4-0.2c-0.1-0.2-0.1-0.4,0.2-0.6
		c8.1-3.8,13.7-8.4,16.8-13.8l-6.1,0.2c-2.5,0-4.4,0.1-5.9,0.4l-1.3-1.3l13.8-0.4c0.9-1.5,1.5-3.1,1.8-5l-1.7,0.2
		c-2.3,0-4.2,0.1-5.5,0.4l-1.5-1.3l9-0.2c0.1-0.5,0.3-1.3,0.6-2.4c0.1-1,0.2-1.7,0.4-2.2l-7.2,0.2c-2.6,0-4.6,0.2-5.9,0.6l-1.5-1.3
		l14.6-0.4c0.1-0.6,0.2-1.2,0.2-1.7C63.3,272,63.3,270.5,63.3,268.6z M70.7,293.7l1.8-2.2l3.7,2.4c-1.7-2.3-3-4.7-3.7-7l-9.4,0.2
		c-1.2,2.2-3,4.2-5.2,6.1l1.8,0.7L70.7,293.7z M59.8,294.8v6.1l9.2-0.2c0.4,0,0.6,0.1,0.6,0.4c0,0.2-0.2,0.4-0.6,0.6l-9.2,0.2v7
		l10.7-0.2l0.2-0.2c0-0.1,0-0.2,0-0.4v-13.5L59.8,294.8z"/>
</g>
<g>
	<path class="st0" d="M131,71.6c-3.2,0.2-5.2,0.5-5.9,0.7l-1.8-1.8l35.1-0.7l3.3-3.3l3.7,3.7c0.1,0.4,0,0.6-0.4,0.6L131,71.6z"/>
	<path class="st0" d="M140.5,127.2c-0.4,0-0.9,0.1-1.5,0.2c-1.6,0-2.7,0.1-3.3,0.4l-1.7-1.7h10.2v-12.7l-8.1,0.2
		c-1.2,8.2-5.5,14.9-12.7,19.9c-0.5,0.2-0.6,0.1-0.4-0.4c6.5-4.7,10-13.5,10.3-26.4l4.4,1.7c0.4,0,0.4,0.2,0,0.7l-0.9,1.1
		c-0.1,0.7-0.3,1.5-0.6,2.2l7.9-0.2v-3.1l-0.2-8.3l5.2,1.5c0.4,0.1,0.4,0.4,0,0.7c-0.4,0.4-0.7,1-0.9,1.8v7.4h7l2.8-2.8l3.3,3.1
		c0.2,0.1,0.2,0.3-0.2,0.6l-12.9,0.2v12.7l6.3-0.2l2.6-2.6l3.5,3c0.2,0.2,0.2,0.4,0,0.6l-12.4,0.2v13.3h12.9l2.8-2.8l3.7,3
		c0.2,0.2,0.2,0.4-0.2,0.4l-38.8,0.6c-1.7,0.1-3.4,0.3-5,0.6l-1.3-1.5l21.8-0.2v-13.1H140.5z"/>
	<path class="st0" d="M140.6,191.2c-0.4,1.4-1.1,2.8-2.2,4.4c-0.5,0.4-0.9,0.6-1.1,0.6c-0.2-0.1-0.4-0.4-0.4-0.9l0.2-9.4v-7.6
		c-4.1,3.6-7.6,7-10.5,10.2c-0.6,0.9-1.4,1.2-2.2,0.9c-0.7-0.2-0.9-0.8-0.6-1.7c1.1-1.8,1.5-3.4,1.3-4.8c0.6,1.2,4.6-0.7,12-5.9
		l0.2-10.9l-5.9,0.6c-2.3,0-4.1,0.2-5.2,0.6l-1.3-1.3l12.4-0.7l0.2-5.2l-0.2-6.6l3.9,1.7c0.4,0.1,0.4,0.4,0.2,0.7l-0.4,0.9l-0.6,27
		L140.6,191.2z M161.1,159.4l3.3,4.1c0.4,0.5,0.2,0.9-0.4,1.1c-0.7,0.4-2.5,1.4-5.4,3c-3.2,1.8-5.8,3.3-7.8,4.2l-0.6,13.7
		c-0.4,2.5,0.6,3.7,3,3.7c3.1,0,5.6-0.2,7.6-0.6c1.7-0.1,3-1.7,3.7-4.6c0.1-0.2,0.3-0.3,0.6-0.2c0.1,0,0.2,0.1,0.2,0.4
		c-0.1,2.1,0.1,3.3,0.7,3.7c1.7,2,1.5,3.4-0.7,4.4c-3.3,1.4-7.5,1.7-12.6,1.1c-4.1-0.6-6-3.6-5.9-8.9l0.4-24.9
		c0-1.2-0.1-2.8-0.2-4.8c0-0.9,0-1.5,0-1.8s0.1-0.5,0.4-0.4l4.8,2.6c0.1,0,0.2,0.1,0.4,0.2c-0.1,0.1-0.2,0.2-0.4,0.4l-0.6,0.9
		l-0.6,13.8C155.2,166.7,158.6,163,161.1,159.4z"/>
	<path class="st0" d="M124.8,217.1c3.6,1.6,5.4,3.3,5.4,5c-0.1,1.4-0.9,2.2-2.2,2.6c-1.1,0.1-1.7-0.3-1.8-1.3
		c-0.1-2.3-0.7-4.3-1.8-5.9C124.3,217.1,124.5,216.9,124.8,217.1z M136,217.2l-5.2,21.2c-0.2,2,0,3.7,0.7,5.2c0.4,0.7,0.3,1.4-0.2,2
		c-0.6,0.7-1.8,1.2-3.5,1.5c-0.7,0-1.1-0.4-1.1-1.3c0.4-2.1,0.6-3.7,0.6-4.8c0.1-1.1-0.6-1.9-2.2-2.4c-0.2-0.2-0.2-0.4,0-0.6
		c1.6,0.2,2.5-0.2,2.6-1.3l7.8-19.8c0.1-0.2,0.2-0.3,0.4-0.2C136,216.9,136,217,136,217.2z M129.4,205.6c4.3,0.9,6.5,2.2,6.6,4.1
		c0,1.6-0.6,2.7-1.8,3.3c-1,0.4-1.7,0.1-2-0.7c-0.7-3.2-1.8-5.2-3.1-6.1c-0.1-0.1-0.1-0.2,0-0.4C129,205.7,129.1,205.6,129.4,205.6z
		 M143.2,213.7c-1.2,0.1-2.6,0.2-4.2,0.4c0.2,0,0,0.1-0.7,0.2l-1.7-1.5h7.6V208c0-0.7-0.1-1.5-0.2-2.2c0-0.4,0-0.6,0-0.7
		c0-0.4,0.1-0.5,0.4-0.4l3.5,1.5c0.4,0.1,0.5,0.4,0.4,0.7l-0.2,5.7h4.1l3.7-9.4l4.6,2.2c0.2,0.1,0.2,0.3,0,0.6l-1.1,0.9l-4.2,5.7
		l3.9-0.2l2.2-2.4l3.1,2.8c0.1,0.2,0.1,0.4-0.2,0.6l-14.2,0.4l2.6,0.7c0.2,0,0.2,0.2,0,0.6l-0.2,0.9l-0.2,5.7l5.4-0.2l2.2-2.6l3,3
		c0.4,0.2,0.3,0.4-0.2,0.4l-10.3,0.4v8.3l8.5-0.2l2.6-2.8l3.1,3.1l0.2,0.2c0,0.1-0.1,0.2-0.4,0.4l-14,0.4v3l0.2,7.8
		c-0.2,1.7-1.2,3.4-3,5c-1,0.6-1.5,0.5-1.7-0.4l0.2-10.7l0.2-4.6l-6.6,0.2c-0.4,0-0.9,0.1-1.7,0.2c-1.6,0-2.8,0.1-3.5,0.4l-1.3-1.5
		l13.1-0.2v-8.3h-3.3c-1.2,0.1-2.6,0.2-4.1,0.4c-0.4,0.1-0.7,0.2-0.9,0.2l-1.5-1.5l9.8-0.2v-2.4l-0.2-5.5H143.2z"/>
	<path class="st0" d="M128.1,264.6c0.2-0.2,0.4-0.2,0.6,0c0.7,3.8,0.4,7.1-0.9,10c-1.1,1.8-2.5,2.6-4.2,2.4c-1-1.1-1-2.2,0-3.1
		C126.2,272.3,127.7,269.3,128.1,264.6z M130.1,255c0-0.2,0.1-0.4,0.2-0.6c0.2,0,0.4,0.1,0.6,0.2l3.5,1.7c0.2,0.1,0.2,0.3,0,0.6
		l-0.4,1.1l-0.6,29.4l-0.2,5.9c0.1,0.9,0.1,1.8-0.2,2.8c-0.5,1.5-1.4,2.6-2.6,3.5c-0.4,0.2-0.6,0.4-0.7,0.4
		c-0.2-0.1-0.4-0.3-0.4-0.6l0.6-14.2l0.6-24.2L130.1,255z M135.5,264.9c2.5,1.2,3.8,2.3,3.9,3.3c-0.2,0.9-0.8,1.6-1.7,2.2
		c-0.5,0.4-0.9,0.3-1.1-0.2c-0.7-1.4-1.3-3-1.7-5C134.8,264.9,135,264.8,135.5,264.9z M145.8,262c-1.5,0-3,0.1-4.6,0.4
		c0.1,0,0.1,0-0.2,0l-1.7-1.3l9.8-0.2l-0.2-6.5l5,1.5c0.1,0,0.2,0.1,0.4,0.2c-0.1,0.1-0.2,0.2-0.4,0.4v0.2c-0.4,0.5-0.6,1-0.6,1.7
		l-0.2,2.6l5-0.2l2.4-2.2l2.8,2.6c0.1,0.2,0.1,0.4-0.2,0.6c0-0.1-0.1-0.1-0.2,0l-9.8,0.2v4.2h3.3l2.2-2.2l2.6,2.4l0.2,0.4
		c-0.1,0.1-0.2,0.2-0.4,0.2l-7.9,0.2v4.2l8.3-0.2l2.2-2.4l3.1,2.8c0.1,0.2,0.1,0.4-0.2,0.6c0-0.1-0.1-0.1-0.2,0l-23.3,0.6
		c-1.8,0-3.4,0.2-4.8,0.6l-1.5-1.5l12.2-0.2v-4.2l-6.5,0.2c-0.5,0-0.7-0.2-0.7-0.6c0-0.2,0.2-0.4,0.7-0.6h6.5v-3.7V262H145.8z
		 M145.6,275.5l10.5-0.4l1.7-2l3.9,2.2c0.2,0.1,0.2,0.3,0,0.6l-1.1,1.3l0.2,13.8c0.4,3.7-1.2,6.5-4.6,8.5c-0.4,0.1-0.6,0-0.6-0.4
		c0-1.5-0.6-2.5-1.7-3.1c-0.1-0.1-0.2-0.2-0.2-0.4c0-0.1,0.1-0.2,0.4-0.2c1.8,0,2.6-0.5,2.4-1.5l-0.2-17.7l-10.7,0.4l-0.2,4.4
		l9.2-0.2c0.4,0,0.6,0.1,0.6,0.4c0,0.2-0.1,0.4-0.4,0.6l-9.4,0.4v4.8l9.4-0.4c0.2,0.1,0.4,0.2,0.4,0.4c0,0.2-0.1,0.4-0.4,0.6
		l-9.4,0.4v6.1c-0.2,1.6-1,3.1-2.4,4.6c-0.5,0.5-0.8,0.7-0.9,0.7c-0.2,0-0.3-0.2-0.2-0.7l0.2-7.6l0.2-17.4L145.6,275.5z"/>
	<path class="st0" d="M128.3,316.7c0.2-0.2,0.4-0.2,0.6,0c0.6,3.9,0.3,7.1-0.9,9.6c-1.2,1.8-2.8,2.6-4.8,2.4c-0.9-1-0.9-1.9,0-2.8
		C125.9,324.7,127.7,321.6,128.3,316.7z M156.9,314.1c0.2,0.2,0,0.6-0.7,0.9c-1.2,2.1-2.5,4.1-3.9,5.9l0.2,24.2
		c-0.2,2.1-1.5,3.9-3.7,5.4c-0.5,0.1-0.8-0.1-0.9-0.7l0.4-8.9v-15c-3.1,3.3-7.8,7.3-14,11.8l0.2,7.2c-0.6,2.2-1.7,4.1-3.1,5.5
		c-0.7,0.5-1.2,0.3-1.3-0.6l0.6-14.6l0.4-22.5l-0.2-6.8c0-0.2,0-0.4,0-0.6c0.1,0,0.3,0.1,0.6,0.2l3.7,1.3c0.1,0.1,0.2,0.3,0.2,0.6
		l-0.6,1.1l-0.4,27.3v0.9c5.4-4.3,10-9.8,13.8-16.6c-0.1-1.2-0.3-2.3-0.6-3.1c-0.1-0.2-0.1-0.4,0-0.6c0.1-0.1,0.3-0.1,0.6,0l1.5,0.9
		c0.7-1.7,0.9-2,0.4-0.9c0.5-1.1,1.2-2.8,2.2-5l-8.3,0.4c-2.1,0.1-3.7,0.3-4.8,0.6l-1.8-1.7l22.7-0.4l2.8-3.3l3.3,3.5
		c0.1,0.1,0.2,0.2,0.2,0.4c0,0.1-0.1,0.2-0.4,0.2l-12.7,0.4L156.9,314.1z M136.4,317.8c2.5,1.1,3.8,2.2,4.1,3.1
		c0,0.7-0.6,1.5-1.7,2.2c-0.5,0.4-0.9,0.3-1.1-0.2c-0.9-1.4-1.5-3-1.8-4.8v-0.4C136,317.7,136.2,317.7,136.4,317.8z M155.2,324.1
		c0.1,0.1,0.4,0.2,0.7,0.4c4.8,2.7,7.8,5,9,6.8c0.7,1.5,0.1,3.1-2,4.8c-0.9,0.6-1.5,0.4-1.8-0.6c-1.4-4.2-3.4-7.9-6.1-11.1
		C154.9,324.3,155,324.2,155.2,324.1z"/>
</g>
</svg>
