<?xml version="1.0" encoding="utf-8"?>
<!-- Generator: Adobe Illustrator 21.0.0, SVG Export Plug-In . SVG Version: 6.00 Build 0)  -->
<svg version="1.1" id="图层_1" xmlns="http://www.w3.org/2000/svg" xmlns:xlink="http://www.w3.org/1999/xlink" x="0px" y="0px"
	 viewBox="0 0 204.1 61.7" style="enable-background:new 0 0 204.1 61.7;" xml:space="preserve">
<style type="text/css">
	.st0{fill:#656E75;}
</style>
<g>
	<path class="st0" d="M22.7,15.8c0-0.1,0-0.1,0.1-0.1l1.4,0.6c0.1,0,0.1,0,0,0.1L24,16.7c0,0,0,0.1,0,0.2c-0.1,1.1-0.1,2.1-0.1,3.1
		l2-0.1l0.8-0.8l1,0.9c0,0,0.1,0.1,0.1,0.1c0,0,0,0.1-0.1,0.1L24,20.4c0.1,1.4,0.3,2.6,0.6,3.6c0.6-0.9,1.1-1.7,1.4-2.5
		c0-0.1,0-0.1,0.1-0.1l1,0.8c0.1,0.1,0.1,0.2-0.1,0.3c-0.8,0.8-1.5,1.6-2.2,2.2c0.4,1,1.1,1.8,2,2.2c0.2,0.1,0.4,0.1,0.5-0.1
		l0.6-0.7c0,0,0.1-0.1,0.2-0.1c0,0,0,0.1,0,0.2c-0.3,0.5-0.4,1-0.4,1.6c0.1,0.3,0,0.6-0.1,0.7c-0.2,0.1-0.4,0.1-0.8-0.1
		c-1.3-0.8-2.3-1.8-2.9-3c-1.1,0.9-2,1.5-2.7,1.9c-0.1,0-0.1,0-0.1-0.1c1-0.7,1.9-1.5,2.6-2.3c-0.5-1.3-0.8-2.8-0.9-4.6l-2.3,0.1
		v2.1l1.2-0.4c0.1,0,0.2,0,0.1,0.1l-1.3,0.8v3.4c0,1-0.5,1.7-1.5,2.2c-0.1,0-0.1,0-0.1,0c0,0-0.1,0-0.1-0.1c0-0.4-0.1-0.7-0.5-1
		c0,0,0-0.1,0-0.1c0,0,0-0.1,0.1-0.1c0.7,0.1,1-0.1,0.9-0.5l0.1-3.2l-0.5,0.3c-0.8,0.5-1.4,0.9-1.8,1.2c0,0-0.1,0-0.2,0l-0.6-1.4
		c0,0,0.1,0,0.2-0.1c0.4-0.1,0.9-0.2,1.5-0.4l1.5-0.4v-2.4l-1.3,0.1c-0.4,0-0.9,0.1-1.4,0.2c-0.1,0-0.1,0-0.2,0l-0.4-0.5l3.2-0.2
		c0-0.9,0-1.6,0-2.3c0-0.1,0-0.1,0-0.2h0.1l1.2,0.5c0.1,0,0.1,0.1,0.1,0.2l-0.2,0.4l-0.1,1.4l2.3-0.1c0-0.2,0-0.5,0-0.9
		c0-0.4-0.1-0.8-0.1-1c0-0.3,0-0.6,0-1.1C22.7,16.5,22.7,16.1,22.7,15.8z M20.9,15.8l0.9,0.9c0,0.1,0,0.2-0.1,0.2
		c-1.1,0.3-2.7,0.6-4.6,1.1c-0.1,0-0.1,0-0.1-0.1c1.6-0.6,2.8-1.3,3.7-2.1C20.8,15.7,20.9,15.7,20.9,15.8z M25.1,16.7
		c1.1,0.4,1.7,0.8,1.7,1.2c-0.1,0.4-0.3,0.7-0.7,0.9c-0.3,0.1-0.5,0-0.5-0.3c0-0.7-0.2-1.3-0.7-1.7C24.9,16.7,25,16.7,25.1,16.7z"/>
	<path class="st0" d="M30.2,23.6c0,0-0.1,0-0.2,0c0,0,0-0.1,0-0.1c1.9-1.9,3.4-4.5,4.5-7.6l1.3,0.6c0.1,0,0.1,0.1,0,0.2L35.6,17
		c-0.4,0.7-0.9,1.4-1.3,2.1l0.2,8.3c0,0.4-0.3,0.9-0.9,1.6C33.5,29,33.4,29,33.3,29c0,0-0.1-0.1-0.1-0.2l0.1-3.6l0.1-4.9
		C32.7,21.2,31.7,22.3,30.2,23.6z M36.9,19.9v4.3l0.1,2.2c-0.1,0.5-0.4,1-0.9,1.5C36,28,35.9,28,35.9,27.8l0.1-3.8v-3.5l-0.1-1.7
		l1.2,0.5c0.1,0,0.1,0.1,0.1,0.2L36.9,19.9z M36.5,15.7l1,0.4c0.5,0.3,0.8,0.5,0.8,0.7c0,0.3-0.2,0.6-0.6,0.9
		c-0.1,0.1-0.3,0.1-0.3-0.1c-0.2-0.7-0.5-1.3-0.8-1.7C36.4,15.7,36.4,15.7,36.5,15.7z M40.4,17.9c-0.4,0-0.8,0.1-1.3,0.2
		c-0.1,0-0.3,0.1-0.3,0.1l-0.4-0.4l2.8-0.1l0.7-0.7l1,0.7c0,0,0,0.1,0.1,0.1c0,0,0,0.1-0.1,0.1l-0.5,0.6l0.1,4.9l0.1,3
		c0,1.1-0.5,1.9-1.6,2.6c-0.1,0-0.1,0.1-0.2,0.1c0,0-0.1-0.1-0.1-0.2c0-0.5-0.1-0.9-0.5-1.1c-0.1-0.1-0.1-0.2,0.1-0.2
		c0.7,0.1,1.1-0.1,1-0.5l-0.1-9H40.4z"/>
	<path class="st0" d="M51.1,15.7l1.3,0.8c0.1,0.1,0.1,0.1,0,0.2c-0.3,0.6-0.6,1.2-1,1.7l4.6-0.1l0.9-0.9l1,1c0,0,0.1,0.1,0.1,0.1
		c0,0,0,0.1-0.1,0.1l-6.7,0.1c-0.7,1-1.3,1.9-2,2.9l0.2,0.1c0.1,0,0.2,0.1,0.2,0.3l-0.1,5.3c-0.1,0.5-0.3,1-0.8,1.4
		c-0.2,0.2-0.3,0.2-0.4,0l0.1-3.1v-3.2c-1.1,1.3-2.1,2.4-3.2,3.4c-0.1,0-0.1,0.1-0.2,0.1c0,0,0-0.1,0-0.2c1.6-1.7,3.2-4.1,4.7-7.1
		l-2.1,0.1c-0.7,0-1.2,0-1.5,0.1l-0.4-0.4l4.1-0.1c0.5-1,0.9-1.9,1-2.7C51,15.7,51,15.7,51.1,15.7z M50.7,23.4
		c-0.1,0-0.2-0.1-0.2-0.2c0-0.1,0-0.2,0.1-0.2l2.2-0.1v-0.9l-0.1-2.4l1.6,0.4c0,0,0.1,0,0.1,0.1c0,0-0.1,0.1-0.1,0.1
		c-0.1,0.1-0.2,0.3-0.2,0.5L54.1,23l1.1-0.1l0.7-0.8l0.9,0.9c0.1,0.1,0.1,0.1,0,0.2l-2.7,0.1v4.2l2.1-0.1l0.8-0.7l0.9,0.8
		c0.1,0.1,0.1,0.1,0,0.1l-6.3,0.2c-0.5,0-1,0.1-1.5,0.2l-0.4-0.4l3.2-0.1v-4.2L50.7,23.4z"/>
	<path class="st0" d="M63.3,17.6c-0.6,0-1.1,0.1-1.5,0.2l-0.5-0.5l9.7-0.1l0.9-0.9l1,1c0,0.1,0,0.2-0.1,0.2l-4.4,0.1l0.8,0.7
		c0,0.1,0,0.1-0.2,0.2c0.1-0.1,0.1-0.1-0.1,0.1c-0.3,0.4-0.6,0.8-0.9,1.2l0.1,7.6c-0.1,0.6-0.5,1.1-1.1,1.4c-0.2,0-0.3,0-0.3-0.2
		l0.1-2.2l0.1-5.1c-2.1,2.3-4.4,4.1-6.9,5.5c-0.1,0-0.1,0-0.2,0c0,0,0-0.1,0.1-0.2c2.8-1.8,5.1-4.2,6.7-7.1c0-0.1,0-0.2-0.1-0.3
		c0,0.1,0,0-0.1-0.1c0-0.1,0.1-0.1,0.2-0.1l0.2,0.1c0.3-0.5,0.5-1,0.8-1.5L63.3,17.6z M69.6,21.2c1.6,0.7,2.7,1.5,3.2,2.3
		c0.3,0.6,0.1,1.2-0.5,1.6c-0.4,0.1-0.6-0.1-0.7-0.4c-0.3-1.3-1-2.4-2-3.5C69.6,21.3,69.6,21.2,69.6,21.2z"/>
	<path class="st0" d="M85.1,16.1l1.3,0.7c0.1,0.1,0.1,0.2,0,0.2l-0.4,0.5v7.1l0.1,2c0,0.9-0.6,1.6-1.8,2.2c-0.1,0-0.2,0-0.2-0.1
		c0.1-0.6-0.1-1-0.5-1.1c0,0-0.1,0-0.1-0.1c0-0.1,0.1-0.1,0.1-0.1c0.7,0.1,1,0,1-0.1l-0.1-10.1l-6.4,0.1l0.1,9.6
		c-0.1,0.6-0.3,1.2-0.8,1.9c-0.1,0.1-0.2,0.1-0.3,0.1c-0.1,0-0.2-0.1-0.2-0.2l0.1-3.1v-7.1l-0.1-1.9c0-0.1,0-0.1,0.1-0.1l1.1,0.6
		l6.3-0.1L85.1,16.1z M79,19.2c-0.1,0-0.2,0-0.2-0.1c0-0.1,0.1-0.2,0.2-0.2l3.6-0.1l0.7-0.7l0.9,0.8c0,0,0.1,0.1,0.1,0.1
		c0,0,0,0.1-0.1,0.1L79,19.2z M82.7,20.6l1.2,0.6c0.1,0,0.1,0.1,0,0.1l-0.3,0.5l-0.1,2.6l0.1,0.2c0,0.1,0,0.1-0.1,0.1
		c-0.3,0-1.4,0-3.3,0c0,0.3-0.2,0.7-0.7,1.2c-0.1,0.1-0.2,0.1-0.2,0.1c0,0-0.1,0-0.1-0.1l0.1-2l-0.1-1.6c0-0.6,0-1,0-1.4
		c0-0.1,0-0.1,0.1-0.1l1,0.5l1.8-0.1L82.7,20.6z M80.4,21.5v2.8l1.9-0.1l0.1-2.8L80.4,21.5z"/>
	<path class="st0" d="M93.7,15.7l0.9,1c0,0.1,0,0.1-0.1,0.1L94.1,17c-0.8,0.5-1.6,0.9-2.3,1.3l0.1,0.1v0.2l1.9-0.1l0.5-0.6l1.2,0.8
		l0.1,0.1l-0.1,0.1l-0.4,0.5v1.9c1-1.3,1.8-3.2,2.5-5.5l1.2,0.7c0,0,0.1,0,0.1,0.1c0,0-0.1,0.1-0.1,0.1l-0.2,0.2
		c-0.3,0.6-0.5,1.1-0.9,1.5l2.5-0.1l0.6-0.8l1.3,0.8c0.1,0,0.1,0.1,0,0.2l-0.4,0.6l-0.1,4.7l0.1,1.7c-0.1,1.6-0.9,2.7-2.4,3.3
		c-0.1,0-0.2,0-0.2-0.2c0.1-0.6,0-1-0.4-1.3c-0.1,0-0.1-0.1-0.1-0.1h0.1c1.1,0,1.5-0.4,1.5-1.2l0.1-7.6l-2.7,0.2
		c-0.7,1-1.5,1.9-2.4,2.9l-0.1,2.3l0.1,2.1c-0.1,0.7-0.3,1.2-0.7,1.7c-0.1,0.1-0.2,0.2-0.3,0.2c-0.1,0-0.1-0.1-0.2-0.2
		c-0.2-0.7-0.3-1.1-0.4-1.3h-1.9v0.8c0,0.6-0.3,1.2-0.8,1.6c-0.2,0.1-0.3,0.1-0.3-0.1l0.1-3.8l0.1-5.3l-0.1-1.6
		c0-0.1,0.1-0.1,0.2-0.1l0.6,0.4C92.5,17.3,93.2,16.5,93.7,15.7z M91.9,18.9l-0.1,3.1l1.6-0.1c0.1,0,0.1,0,0.1,0.1
		c0,0.1,0,0.2-0.1,0.2l-1.6,0.1L91.8,26h2.1l0.1-7.2L91.9,18.9z M97,21.1c0-0.1,0-0.1,0.1-0.1c1.5,0.7,2.2,1.1,2.2,1.5
		c0.1,0.4-0.1,0.8-0.7,1.1c-0.5,0.1-0.7,0.1-0.8-0.3C97.7,22.5,97.5,21.7,97,21.1z"/>
	<path class="st0" d="M105.2,20.5c-0.1,0-0.1,0-0.2-0.1c0-0.1,0-0.2,0.1-0.2l1.5-0.1v-2.1l-0.1-1.8l1.4,0.5l-0.2,0.4l-0.1,2.8
		l0.5-0.1l0.6-0.5l0.7,0.6c0.1,0.1,0.1,0.1,0,0.2l-1.7,0.1l-0.1,4.1l1.9-0.9c0.1,0,0.1,0,0.1,0.1l-3.4,3c-0.1,0.1-0.2,0.2-0.4,0.1
		l-0.9-0.9c0,0,0-0.1-0.1-0.1c0,0,0-0.1,0.1-0.1c0.4-0.1,1-0.4,1.7-0.7l0.1-4.6L105.2,20.5z M113.4,16.3l-0.2,0.3v3.2l1.4-0.8
		l0.4-0.8l1.1,0.5c0.1,0,0.1,0.1,0,0.2l-0.3,0.6v3.5c0,1.4-0.5,2.4-1.5,3.1c-0.1,0-0.2,0-0.2-0.1c0-0.5-0.2-0.8-0.5-0.9
		c-0.1-0.1-0.1-0.2,0.1-0.2c0.7,0.1,1-0.3,0.9-1.3l0.1-4.3l-1.5,0.8l-0.1,3.9c0,0.9-0.2,1.7-0.6,2.2c-0.1,0.1-0.3,0.2-0.3,0.2
		c-0.1,0-0.2-0.1-0.2-0.3l0.1-5.5l-1.4,0.7l-0.2,5.2c-0.1,0.5,0.1,0.7,0.6,0.7c1.6,0.1,3.1,0.1,4.4-0.2c0.6-0.1,1-0.6,1.3-1.3
		c0-0.1,0.1-0.1,0.2-0.1c0.1,0,0.1,0,0.1,0.1c-0.1,0.5,0,0.8,0.3,1c0.5,0.7,0.4,1.2-0.5,1.5c-1.5,0.4-3.4,0.4-5.6,0.2
		c-1.1-0.1-1.7-1-1.6-2.6l0.1-4.1c-0.1,0.1-0.3,0.2-0.5,0.3c-0.1,0.1-0.3,0.2-0.3,0.2l-0.5-0.2l1.4-0.7l0.1-1.4c0-0.3,0-0.6-0.1-1
		c0-0.5,0-0.8-0.1-0.9c0-0.1,0-0.2,0.1-0.1l1.1,0.7c0.1,0,0.1,0.1,0,0.2l-0.2,0.4l-0.1,1.6l1.4-0.7v-2.6c0-1.1,0-1.8-0.1-2.1
		c0,0,0-0.1,0.1-0.1l1.2,0.5C113.5,16.2,113.5,16.2,113.4,16.3z"/>
	<path class="st0" d="M122.1,18.7c-0.3,0-0.7,0-1.2,0.1c-0.1,0-0.2,0.1-0.3,0.1l-0.5-0.5l5-0.1l0.1-2.5l1.6,0.5c0.1,0,0.1,0.1,0,0.3
		l-0.2,0.4l-0.1,1.3l3.6-0.1l0.8-0.9l1,1c0,0,0.1,0.1,0.1,0.1c0,0,0,0.1-0.1,0.1l-6.5,0.2l-0.1,2.2l3.3-0.1l0.7-0.7l1.3,0.9
		c0.1,0,0.1,0.1-0.1,0.2l-0.4,0.5l-0.1,3.2c0,0.9,0,1.4-0.1,1.7c-0.3,0.9-0.9,1.6-2.1,2.1c-0.1,0-0.2,0-0.2-0.1c0-0.6-0.2-1-0.4-1.1
		c-0.1,0-0.1,0-0.1-0.1c0,0,0-0.1,0.1-0.1c0.8,0.1,1.2-0.2,1.2-0.9c0.1-1.4,0.2-3.1,0.2-5.2l-3.3,0.1v0.2c0.3,3.1-1.7,5.7-5.9,7.7
		c-0.1,0-0.1,0-0.2-0.1c0-0.1,0-0.1,0.1-0.2c3.2-1.7,4.8-4.2,4.7-7.4l0.1-2.8L122.1,18.7z"/>
	<path class="st0" d="M139.7,15.7l1.8,0.7c0.1,0,0.1,0.1,0,0.2c0,0,0,0,0,0.1l-0.3,0.2c-0.1,1.1-0.4,2.2-0.8,3.3l4.4-0.1l0.9-0.9
		l1.1,1l0.1,0.1c0,0,0,0.1-0.1,0.1l-6.4,0.1c-0.2,0.6-0.5,1.2-0.8,1.8l3.8-0.1l0.6-0.8l1.3,0.8c0.1,0.1,0.1,0.1-0.1,0.2l-0.4,0.4
		c-0.8,1.1-1.6,2.1-2.5,2.9c1.1,0.8,2.6,1.3,4.6,1.7c0.1,0.1,0.1,0.2,0.1,0.3c-0.8,0.1-1.5,0.5-2.1,1.3c-1.3-0.8-2.4-1.6-3.4-2.6
		c-1.3,0.9-3,1.8-5,2.7c-0.1,0-0.1,0-0.2-0.1c0,0,0-0.1,0.1-0.1c2.1-1.1,3.6-2.2,4.6-3.2c-0.6-0.9-1.1-1.9-1.4-3.2h-0.1
		c-1.1,2.1-2.7,4.1-4.7,5.9c-0.1,0-0.1,0-0.2,0c0,0,0-0.1,0-0.2c2.1-2.2,3.5-4.8,4.4-7.8h-2.1c-0.2,0.3-0.5,0.5-0.9,0.7
		c-0.2,0-0.3,0-0.3-0.2l0.3-1.4l0.5-2.9c0-0.1,0.1-0.2,0.2-0.2l1.2,0.7c0.1,0,0.1,0.1,0,0.3l-0.8,2.7h2.1
		C139.3,18.7,139.6,17.2,139.7,15.7z M143.3,22.4l-3.6,0.1c0.4,1,1,1.9,1.7,2.6C142.1,24.3,142.7,23.4,143.3,22.4z M142.7,16.7
		c1.2,0.4,1.9,0.8,2,1.2c0,0.4-0.2,0.7-0.7,1c-0.3,0.1-0.5,0.1-0.7-0.2c0-0.8-0.3-1.5-0.7-1.9c0-0.1-0.1-0.1-0.1-0.2
		C142.6,16.7,142.6,16.7,142.7,16.7z"/>
	<path class="st0" d="M151.2,21.6c-0.5,0-1,0.1-1.4,0.2l-0.4-0.4l5.6-0.2v-3l-0.1-2.4l1.5,0.4c0.1,0,0.1,0.1,0,0.2
		c-0.1,0-0.2,0.2-0.2,0.5l-0.1,4.3l0.5-0.1c0.9-1.6,1.5-2.9,1.9-4.1l1.4,0.9c0.1,0,0.1,0.1,0,0.2l-0.3,0.3c-0.8,1-1.7,1.9-2.7,2.8
		l2.8-0.1l0.9-0.9l1.2,1c0.1,0.1,0.1,0.1-0.1,0.1l-5.2,0.2l1.1,0.5c0.1,0.1,0.1,0.1,0,0.2l-0.2,0.3L157,26c-0.1,0.5,0.1,0.8,0.8,0.8
		c0.8,0.1,1.4,0,2-0.2c0.5,0,0.8-0.5,1.1-1.4c0-0.1,0-0.1,0.1-0.1c0.1,0,0.1,0,0.1,0.1c-0.1,0.6,0,1,0.3,1.1
		c0.7,0.7,0.6,1.2-0.3,1.5c-0.9,0.4-2,0.5-3.3,0.3c-1.3,0-1.8-0.9-1.7-2.6l0.1-2.4c0.1-0.7,0.1-1.3,0-1.8l-1.5,0.1l0.7,0.3l0.1,0.1
		c0,0,0,0.1-0.1,0.1l-0.1,0.3l-0.3,1.1c-0.3,2.3-2.3,4.2-6,5.8c-0.1,0-0.1,0-0.1-0.1c0-0.1,0-0.1,0.1-0.2c3.3-1.5,5-4,5-7.4
		L151.2,21.6z M151.5,17.1c1.2,0.7,1.9,1.4,2.3,2.1c0.1,0.3-0.2,0.7-0.8,1.1c-0.3,0.1-0.5,0.1-0.5-0.3c-0.2-1.1-0.6-2-1.2-2.8
		C151.3,17.1,151.3,17.1,151.5,17.1z"/>
	<path class="st0" d="M169.3,15.7l1.8,0.7c0.1,0,0.1,0.1,0,0.2c0,0,0,0,0,0.1l-0.3,0.2c-0.1,1.1-0.4,2.2-0.8,3.3l4.4-0.1l0.9-0.9
		l1.1,1l0.1,0.1c0,0,0,0.1-0.1,0.1l-6.4,0.1c-0.2,0.6-0.5,1.2-0.8,1.8l3.8-0.1l0.6-0.8l1.3,0.8c0.1,0.1,0.1,0.1-0.1,0.2l-0.4,0.4
		c-0.8,1.1-1.6,2.1-2.5,2.9c1.1,0.8,2.6,1.3,4.6,1.7c0.1,0.1,0.1,0.2,0.1,0.3c-0.8,0.1-1.5,0.5-2.1,1.3c-1.3-0.8-2.4-1.6-3.4-2.6
		c-1.3,0.9-3,1.8-5,2.7c-0.1,0-0.1,0-0.2-0.1c0,0,0-0.1,0.1-0.1c2.1-1.1,3.6-2.2,4.6-3.2c-0.6-0.9-1.1-1.9-1.4-3.2h-0.1
		c-1.1,2.1-2.7,4.1-4.7,5.9c-0.1,0-0.1,0-0.2,0c0,0,0-0.1,0-0.2c2.1-2.2,3.5-4.8,4.4-7.8h-2.1c-0.2,0.3-0.5,0.5-0.9,0.7
		c-0.2,0-0.3,0-0.3-0.2l0.3-1.4l0.5-2.9c0-0.1,0.1-0.2,0.2-0.2l1.2,0.7c0.1,0,0.1,0.1,0,0.3l-0.8,2.7h2.1
		C169,18.7,169.2,17.2,169.3,15.7z M172.9,22.4l-3.6,0.1c0.4,1,1,1.9,1.7,2.6C171.7,24.3,172.4,23.4,172.9,22.4z M172.3,16.7
		c1.2,0.4,1.9,0.8,2,1.2c0,0.4-0.2,0.7-0.7,1c-0.3,0.1-0.5,0.1-0.7-0.2c0-0.8-0.3-1.5-0.7-1.9c0-0.1-0.1-0.1-0.1-0.2
		C172.2,16.7,172.3,16.7,172.3,16.7z"/>
	<path class="st0" d="M182.6,16.1c0.1,0,0.1,0.1,0.1,0.2l-0.2,0.4v1.6h0.4l0.5-0.7l0.8,0.7c0,0.1,0,0.2-0.1,0.2l-1.7,0.1l-0.1,1.4
		c0.3-0.1,0.7-0.2,1.2-0.4c0.2-0.1,0.4-0.1,0.5-0.2c0.1,0,0.1,0.1,0,0.2c-0.1,0.1-0.4,0.2-0.7,0.4c-0.5,0.3-0.8,0.5-1,0.6l0.1,2.2
		c0,1.1-0.5,1.9-1.6,2.5c-0.1,0-0.2,0-0.2-0.2c0.1-0.4-0.1-0.7-0.4-0.9c0,0-0.1-0.1-0.1-0.2c0,0,0,0,0.1,0c0.7,0,1-0.2,0.9-0.6v-2.2
		c-0.7,0.4-1.2,0.8-1.5,1c-0.1,0.1-0.1,0.1-0.2,0.1l-0.1-0.1l-0.4-1.2c0-0.1,0-0.1,0.1-0.1c0.5-0.1,1.1-0.2,2-0.5v-1.6l-1.9,0.1
		c-0.1,0-0.2,0-0.2-0.1c0-0.1,0-0.2,0.1-0.2l2-0.1v-0.5l-0.1-2.2L182.6,16.1z M181.1,25.5c0.4,0.7,0.4,1.4,0.1,2.1
		c-0.3,0.6-0.7,0.9-1.2,0.9c-0.3-0.4-0.3-0.8,0.1-1.3c0.5-0.5,0.8-1,0.9-1.7C180.9,25.4,181,25.4,181.1,25.5z M185.7,15.8l1.3,0.4
		l-0.1,0.4l-0.1,1.5l1.4-0.1l0.5-0.7l1.1,0.6c0.1,0,0.1,0.1,0,0.2l-0.4,0.5c-0.3,2,0.1,3.5,1,4.4c0.1,0.1,0.3,0.1,0.4,0l0.4-0.4
		c0,0,0.1-0.1,0.2-0.1c0,0,0,0,0,0.1c-0.2,0.4-0.3,0.8-0.2,1.1c0.2,0.5,0.2,0.8-0.1,1c-0.3,0.2-0.6,0.1-1-0.2
		c-1.5-1.1-2.1-3.2-1.9-6.3l-1.4,0.1v1.1c0,0.5-0.1,1-0.2,1.5c0.7,0.3,1,0.4,1.1,0.5c0.1,0.5,0.1,1-0.2,1.4
		c-0.1,0.1-0.3,0.1-0.5-0.1c-0.3-0.3-0.6-0.6-0.9-0.9c-0.7,1.2-2,2.3-3.8,3.3c-0.1,0-0.1,0-0.1-0.1c0,0,0-0.1,0.1-0.1
		c1.7-1.2,2.7-2.5,3.2-3.8c-0.5-0.4-1-0.7-1.5-0.9c-0.1-0.1-0.1-0.2,0.1-0.2c0.2,0.1,0.6,0.2,1.1,0.4c0.2,0,0.4,0.1,0.4,0.1
		c0-0.2,0.1-0.5,0.1-1c0-0.2,0.1-0.4,0.1-0.5v-0.8c-0.2,0-0.5,0.1-0.7,0.2c-0.1,0-0.3,0.1-0.3,0.1l-0.4-0.4l1.4-0.1v-1L185.7,15.8z
		 M183.3,25.8c0-0.1,0.1-0.1,0.2-0.1c0.8,0.7,1.1,1.2,1.1,1.5c0,0.1-0.1,0.3-0.2,0.4c-0.1,0.2-0.3,0.3-0.5,0.4
		c-0.4,0.1-0.6,0-0.6-0.4C183.4,27.1,183.5,26.4,183.3,25.8z M185.7,25.8c0-0.1,0.1-0.1,0.2-0.1c0.8,0.6,1.3,1.1,1.4,1.5
		c0.1,0.1,0.1,0.2-0.1,0.3c-0.1,0.2-0.3,0.4-0.5,0.4c-0.4,0.1-0.7,0.1-0.7-0.3C186.1,26.9,185.9,26.3,185.7,25.8z M188.1,25.4
		c1.1,0.4,1.8,0.8,2.2,1.3c0.4,0.3,0.4,0.7,0.1,1c-0.1,0.2-0.3,0.4-0.5,0.5c-0.4,0.3-0.7,0.2-0.8-0.3c-0.2-0.9-0.5-1.7-1-2.3
		C188.1,25.5,188.1,25.4,188.1,25.4C188,25.3,188,25.3,188.1,25.4z"/>
	<path class="st0" d="M22.7,33.3c0-0.1,0-0.1,0.1-0.1l1.4,0.6c0.1,0,0.1,0,0,0.1L24,34.2c0,0,0,0.1,0,0.2c-0.1,1.1-0.1,2.1-0.1,3.1
		l2-0.1l0.8-0.8l1,0.9c0,0,0.1,0.1,0.1,0.1c0,0,0,0.1-0.1,0.1L24,37.9c0.1,1.4,0.3,2.6,0.6,3.6c0.6-0.9,1.1-1.7,1.4-2.5
		c0-0.1,0-0.1,0.1-0.1l1,0.8c0.1,0.1,0.1,0.2-0.1,0.3c-0.8,0.8-1.5,1.6-2.2,2.2c0.4,1,1.1,1.8,2,2.2c0.2,0.1,0.4,0.1,0.5-0.1
		l0.6-0.7c0,0,0.1-0.1,0.2-0.1c0,0,0,0.1,0,0.2c-0.3,0.5-0.4,1-0.4,1.6c0.1,0.3,0,0.6-0.1,0.7c-0.2,0.1-0.4,0.1-0.8-0.1
		c-1.3-0.8-2.3-1.8-2.9-3c-1.1,0.9-2,1.5-2.7,1.9c-0.1,0-0.1,0-0.1-0.1c1-0.7,1.9-1.5,2.6-2.3c-0.5-1.3-0.8-2.8-0.9-4.6l-2.3,0.1
		v2.1l1.2-0.4c0.1,0,0.2,0,0.1,0.1l-1.3,0.8v3.4c0,1-0.5,1.7-1.5,2.2c-0.1,0-0.1,0-0.1,0c0,0-0.1,0-0.1-0.1c0-0.4-0.1-0.7-0.5-1
		c0,0,0-0.1,0-0.1c0,0,0-0.1,0.1-0.1c0.7,0.1,1-0.1,0.9-0.5l0.1-3.2l-0.5,0.3c-0.8,0.5-1.4,0.9-1.8,1.2c0,0-0.1,0-0.2,0l-0.6-1.4
		c0,0,0.1,0,0.2-0.1c0.4-0.1,0.9-0.2,1.5-0.4l1.5-0.4v-2.4l-1.3,0.1c-0.4,0-0.9,0.1-1.4,0.2c-0.1,0-0.1,0-0.2,0l-0.4-0.5l3.2-0.2
		c0-0.9,0-1.6,0-2.3c0-0.1,0-0.1,0-0.2h0.1l1.2,0.5c0.1,0,0.1,0.1,0.1,0.2l-0.2,0.4l-0.1,1.4l2.3-0.1c0-0.2,0-0.5,0-0.9
		c0-0.4-0.1-0.8-0.1-1c0-0.3,0-0.6,0-1.1C22.7,34,22.7,33.6,22.7,33.3z M20.9,33.2l0.9,0.9c0,0.1,0,0.2-0.1,0.2
		c-1.1,0.3-2.7,0.6-4.6,1.1c-0.1,0-0.1,0-0.1-0.1c1.6-0.6,2.8-1.3,3.7-2.1C20.8,33.1,20.9,33.1,20.9,33.2z M25.1,34.2
		c1.1,0.4,1.7,0.8,1.7,1.2c-0.1,0.4-0.3,0.7-0.7,0.9c-0.3,0.1-0.5,0-0.5-0.3c0-0.7-0.2-1.3-0.7-1.7C24.9,34.2,25,34.2,25.1,34.2z"/>
	<path class="st0" d="M30.2,41.1c0,0-0.1,0-0.2,0c0,0,0-0.1,0-0.1c1.9-1.9,3.4-4.5,4.5-7.6l1.3,0.6c0.1,0,0.1,0.1,0,0.2l-0.2,0.2
		c-0.4,0.7-0.9,1.4-1.3,2.1l0.2,8.3c0,0.4-0.3,0.9-0.9,1.6c-0.1,0.1-0.2,0.1-0.3,0.1c0,0-0.1-0.1-0.1-0.2l0.1-3.6l0.1-4.9
		C32.7,38.7,31.7,39.8,30.2,41.1z M36.9,37.4v4.3l0.1,2.2c-0.1,0.5-0.4,1-0.9,1.5c-0.1,0.1-0.2,0.1-0.3-0.1l0.1-3.8V38l-0.1-1.7
		l1.2,0.5c0.1,0,0.1,0.1,0.1,0.2L36.9,37.4z M36.5,33.1l1,0.4c0.5,0.3,0.8,0.5,0.8,0.7c0,0.3-0.2,0.6-0.6,0.9
		c-0.1,0.1-0.3,0.1-0.3-0.1c-0.2-0.7-0.5-1.3-0.8-1.7C36.4,33.2,36.4,33.1,36.5,33.1z M40.4,35.3c-0.4,0-0.8,0.1-1.3,0.2
		c-0.1,0-0.3,0.1-0.3,0.1l-0.4-0.4l2.8-0.1l0.7-0.7l1,0.7c0,0,0,0.1,0.1,0.1c0,0,0,0.1-0.1,0.1l-0.5,0.6l0.1,4.9l0.1,3
		c0,1.1-0.5,1.9-1.6,2.6c-0.1,0-0.1,0.1-0.2,0.1c0,0-0.1-0.1-0.1-0.2c0-0.5-0.1-0.9-0.5-1.1c-0.1-0.1-0.1-0.2,0.1-0.2
		c0.7,0.1,1.1-0.1,1-0.5l-0.1-9H40.4z"/>
	<path class="st0" d="M45.1,41.1c0,0-0.1,0-0.2,0c0,0,0-0.1,0-0.1c2.2-2.5,3.8-5.1,4.8-8l1.3,0.7c0.1,0,0.1,0.1-0.1,0.2l-0.2,0.2
		c-0.5,0.9-1,1.7-1.5,2.3l0.2,7.7c-0.1,0.4-0.3,0.9-0.8,1.5c-0.1,0.1-0.2,0.2-0.2,0.2c0,0-0.1-0.1-0.1-0.2l0.1-3.7v-4.4
		C47.6,38.6,46.5,39.8,45.1,41.1z M55.4,33.7l1.1,0.6c0.1,0,0.1,0,0,0.1l-0.3,0.5l-0.4,3.4l0.6-0.1l0.5-0.6l1.1,0.8
		c0.1,0,0.1,0.1,0,0.2l-0.4,0.5c-0.1,1.3-0.1,2.4-0.2,3.3c0,0.5,0,1-0.1,1.5c-0.1,0.8-0.8,1.5-2,2.1c-0.1,0-0.2,0-0.2-0.1
		c0.1-0.5,0-0.9-0.4-1.1c-0.1,0-0.1,0-0.1-0.1c0,0,0-0.1,0.1-0.1c0.8,0.1,1.2-0.2,1.2-0.9c0.2-1.7,0.3-3.5,0.3-5.1l-0.7,0.1
		c-0.1,0.2-0.4,0.4-0.8,0.7c-0.1,0-0.2,0.1-0.2,0.1c0,0-0.1-0.1-0.1-0.2l0.5-4.6l-1.8,0.1l-0.1,3.9c0.2,3.6-1.4,6.3-4.6,8.1
		c-0.1,0-0.1,0-0.1-0.1c0-0.1,0-0.1,0.1-0.2c1.4-1.1,2.3-2.2,2.8-3.4c0.5-1.1,0.8-2.9,0.8-5.2l0.1-2v-1.1l-1.1,0.1
		c-0.1,0-0.1-0.1-0.1-0.2c0-0.1,0-0.1,0.1-0.1l3.9-0.2L55.4,33.7z"/>
	<path class="st0" d="M67.9,33.2l1.4,0.7c0,0,0.1,0.1,0.1,0.2l-0.2,0.4l-0.1,2.1h1.3l0.8-0.8l1,1c0.1,0.1,0.1,0.1,0,0.1l-3.1,0.1v4
		h2.3l0.8-0.8l1,0.9c0.1,0,0.1,0.1-0.1,0.2l-11.4,0.1c-0.5,0-1.1,0.1-1.5,0.2l-0.4-0.4L64,41L64,37h-1c-0.7,0-1.2,0-1.5,0.1L61,36.8
		l2.9-0.1v-1.3c0-0.3,0-0.7-0.1-1.3c0-0.3,0-0.5,0-0.6c0,0,0-0.1,0.1-0.1l1.4,0.6c0.1,0,0.1,0,0,0.1l-0.2,0.4l-0.1,2.1l2.6-0.1
		l0.1-1.7c0-0.2,0-0.6-0.1-1.1c0-0.3,0-0.5,0-0.6C67.8,33.2,67.8,33.2,67.9,33.2z M65.1,41.6l0.9,1.2c0.1,0.1,0.1,0.2-0.1,0.3
		c-1.3,1.2-3.3,2.3-5.7,3.4c-0.1,0-0.1,0-0.2-0.1c0,0,0-0.1,0.1-0.2c2.3-1.2,3.9-2.7,4.9-4.7c0-0.1,0-0.1,0.1-0.1
		C65,41.5,65,41.5,65.1,41.6z M65.2,37v4h2.6v-4.1L65.2,37z M67.4,42.4c2,0.5,3.3,1,4.1,1.5c0.3,0.5,0.2,1.1-0.1,1.5
		c-0.3,0.4-0.5,0.4-0.9-0.1c-0.9-1.3-2-2.2-3.2-2.8C67.2,42.6,67.2,42.5,67.4,42.4z"/>
	<path class="st0" d="M85.1,33.5l1.3,0.7c0.1,0.1,0.1,0.2,0,0.2L86.1,35v7.1l0.1,2c0,0.9-0.6,1.6-1.8,2.2c-0.1,0-0.2,0-0.2-0.1
		c0.1-0.6-0.1-1-0.5-1.1c0,0-0.1,0-0.1-0.1c0-0.1,0.1-0.1,0.1-0.1c0.7,0.1,1,0,1-0.1l-0.1-10.1l-6.4,0.1l0.1,9.6
		c-0.1,0.6-0.3,1.2-0.8,1.9c-0.1,0.1-0.2,0.1-0.3,0.1c-0.1,0-0.2-0.1-0.2-0.2l0.1-3.1v-7.1l-0.1-1.9c0-0.1,0-0.1,0.1-0.1l1.1,0.6
		l6.3-0.1L85.1,33.5z M79,36.6c-0.1,0-0.2,0-0.2-0.1c0-0.1,0.1-0.2,0.2-0.2l3.6-0.1l0.7-0.7l0.9,0.8c0,0,0.1,0.1,0.1,0.1
		s0,0.1-0.1,0.1L79,36.6z M82.7,38l1.2,0.6c0.1,0,0.1,0.1,0,0.1l-0.3,0.5l-0.1,2.6l0.1,0.2c0,0.1,0,0.1-0.1,0.1c-0.3,0-1.4,0-3.3,0
		c0,0.3-0.2,0.7-0.7,1.2c-0.1,0.1-0.2,0.1-0.2,0.1c0,0-0.1,0-0.1-0.1l0.1-2l-0.1-1.6c0-0.6,0-1,0-1.4c0-0.1,0-0.1,0.1-0.1l1,0.5
		l1.8-0.1L82.7,38z M80.4,39v2.8l1.9-0.1l0.1-2.8L80.4,39z"/>
	<path class="st0" d="M89.5,40.7c-0.1,0-0.1,0-0.2,0c0,0,0-0.1,0-0.2c2.2-1.9,3.9-4.3,5-7.4l1.1,0.7c0.1,0,0.1,0.1,0,0.3
		c-0.5,0.9-1.1,1.8-1.9,2.8l-0.1,7.8c-0.1,0.5-0.3,1-0.8,1.5c-0.3,0.2-0.4,0.2-0.4,0l0.1-3.7l0.1-4.5C91.8,38.8,90.8,39.7,89.5,40.7
		z M97.1,36c-0.5,0-1,0-1.5,0.1c0,0,0,0-0.1,0l-0.4-0.4l2.3-0.1l0.2-1l0.3-1.6l1.4,0.5c0.1,0,0.1,0.1,0,0.2
		c-0.2,0.1-0.3,0.4-0.4,0.8l-0.2,1h1.6L101,35l0.9,0.8c0,0.1,0,0.2-0.1,0.2L98.5,36l-0.4,2l3-0.1l0.8-0.8l1,0.9
		c0.1,0.1,0.1,0.2,0,0.2L98,38.2L97.9,39l-0.2,0.9l2.4-0.1l0.5-0.6l1.1,0.9c0.1,0.1,0.1,0.1,0,0.2l-0.5,0.4
		c-0.7,0.9-1.6,1.8-2.8,2.8c0.8,0.4,1.3,0.8,1.7,1.1c0.2,0.3,0.1,0.8-0.3,1.4c-0.1,0.2-0.3,0.3-0.3,0.2c-0.1,0-0.2-0.2-0.3-0.4
		c-0.9-1.3-2-2.4-3.2-3.3c0-0.1,0-0.1,0.1-0.2c0.7,0.3,1.4,0.6,2.1,0.9c0.8-1.2,1.4-2.3,1.9-3.3l-2.5,0.1c-0.4,0.4-0.7,0.6-1,0.7
		c-0.2,0-0.3,0-0.3-0.1l0.5-2.2l0.1-0.3h-0.8c-0.1,0-0.3,0-0.5,0.1c-0.5,0-0.8,0-1,0.1L94.2,38L97,38l0.4-1.9H97.1z"/>
	<path class="st0" d="M106.1,37.6l1.7-0.1l0.5-0.7l1.1,0.7c0.1,0.1,0.1,0.2-0.1,0.2l-0.3,0.4c-0.4,2.7-1.9,5.1-4.5,7.2
		c-0.1,0-0.1-0.1-0.1-0.2c1.9-1.9,3.1-4.3,3.4-7.4l-1.6,0.1c-0.1,0-0.2,0-0.2-0.2C105.9,37.6,105.9,37.6,106.1,37.6z M109.5,38.2
		c-0.1,0-0.1,0-0.1-0.1c0-0.1,0-0.1,0.1-0.2l1.3-0.1c0-0.6-0.1-1.2-0.1-1.9c0-0.1,0-0.1,0.1-0.1l0.6,0.2l1.9-2l-3.7,0.2
		c-0.7,0.1-1.2,0.1-1.4,0.2l-0.6-0.4l5.9-0.2l0.7-0.5l1.2,0.8c0.1,0.1,0.1,0.3-0.2,0.3c-0.5,0.1-1.7,0.7-3.5,1.7l0.3,0.1
		c0.1,0,0.1,0,0.1,0.1c0,0.1,0,0.3,0,0.7c0,0.3,0,0.6,0,0.8l0.2-0.1l0.4-0.4l0.7,0.5c0,0.1,0,0.1-0.1,0.2l-1.2,0.1
		c0,0.5,0,1.1,0,1.6h0.2l0.5-0.4l0.7,0.5c0,0,0,0.1-0.1,0.2h-1.2c0,0.2,0,0.5-0.1,0.9c0,0.4,0,0.6,0,0.8h0.8l0.5-0.5l0.7,0.7
		c0,0,0,0.1-0.1,0.2l-1.9,0.1c0,0.3,0,0.8-0.1,1.3c0,0.3,0,0.5,0,0.5c0,1.1-0.5,1.9-1.6,2.4c-0.1,0-0.2,0-0.2-0.1
		c0-0.7-0.2-1.1-0.5-1.2c0,0-0.1-0.1-0.1-0.1s0-0.1,0.1-0.1c0.7,0,1-0.1,1-0.3c0-0.1,0.1-0.5,0.1-1.2c0-0.5,0.1-1,0.1-1.3l-2.1,0.1
		c-0.1,0-0.1,0-0.1-0.1c0-0.1,0-0.1,0.1-0.2l2.1-0.1c0-0.5,0-1.1,0-1.7l-1.1,0.1c-0.1,0-0.1,0-0.1-0.1c0-0.1,0-0.1,0.1-0.2l1.1-0.1
		c0-0.2,0-0.5,0.1-0.9c0-0.4,0-0.6,0-0.8L109.5,38.2z M113.8,37.4c0,0.4,0.1,0.9,0.2,1.3c0.7-0.6,1.3-1.3,1.9-2.1l0.9,1
		c0.1,0.1,0.1,0.2-0.1,0.2l-0.3,0.1c-0.4,0.2-1.1,0.5-1.9,0.8c-0.2,0.1-0.3,0.1-0.4,0.2c0.3,1.9,1.5,3.7,3.6,5.3
		c0.1,0,0,0.1-0.1,0.2c-0.3-0.1-0.9,0-1.8,0.3c-1.5-1.3-2.2-3.8-2.1-7.4H113.8z"/>
	<path class="st0" d="M127.9,33l1.3,0.5c0.1,0,0.1,0.1-0.1,0.2l-0.2,0.2c-0.4,0.4-1,0.9-1.7,1.5l2.5-0.1l0.8-0.7l0.9,0.9
		c0.1,0.1,0.1,0.1,0,0.1l-5,0.2c-0.2,0.5-0.4,0.9-0.8,1.4l3.2-0.1l0.7-0.6l0.9,0.8c0.1,0.1,0.1,0.2-0.1,0.2l-4.8,0.1
		c-0.3,0.5-0.7,1-1,1.5l5.5-0.1l0.8-0.8l0.9,0.9c0.1,0,0.1,0.1,0,0.1l-7.5,0.2c-0.2,0.2-0.4,0.4-0.5,0.7l0.8,0.4l3.7-0.1l0.7-0.7
		l1.3,0.9l-0.4,0.5l0.1,3.3c0,0.7-0.2,1.3-0.8,1.9c-0.1,0.2-0.3,0.2-0.4-0.1c-0.1-0.4-0.3-0.7-0.5-0.9l-3.8,0.1c0,0.3-0.3,0.6-0.7,1
		c-0.2,0.1-0.3,0.1-0.3-0.1l0.1-5.5l-0.1-0.4c-1.1,1.2-2.3,2.4-3.6,3.6c0,0-0.1,0.1-0.1,0.1c-0.1,0-0.1-0.1-0.1-0.1
		c1.5-1.5,2.7-3.1,3.6-4.6l-1.1,0.1c-0.5,0-1,0-1.5,0.1l-0.4-0.4l3.2-0.1c0.2-0.3,0.4-0.6,0.7-1.1c0-0.1,0.1-0.2,0.1-0.3h-0.5
		c-0.5,0-0.9,0-1.4,0.1l-0.5-0.4l2.6-0.1c0.2-0.4,0.4-0.9,0.6-1.5l-2.3,0.1c-0.8,0.1-1.3,0.1-1.5,0.2l-0.4-0.4l6.4-0.2
		c0.3-0.7,0.6-1.4,0.9-2.2C127.8,33,127.8,33,127.9,33z M123.2,33.2c1.2,0.6,1.7,1,1.6,1.4c-0.1,0.3-0.3,0.6-0.7,0.8
		c-0.3,0-0.5-0.1-0.5-0.3c-0.1-0.7-0.2-1.3-0.5-1.7C123,33.2,123.1,33.1,123.2,33.2z M124.4,40.5l-0.1,1.4l2.8-0.1
		c0.1,0,0.1,0.1,0.1,0.1c0,0.1,0,0.1-0.1,0.2l-2.8,0.1v1.4l2.8-0.1c0.1,0,0.1,0,0.1,0.1c0,0.1,0,0.2-0.1,0.2l-2.8,0.1V45l3.8-0.1
		v-4.2c0-0.2-0.1-0.3-0.3-0.3L124.4,40.5z"/>
	<path class="st0" d="M137,39c-0.7,0-1.1,0-1.5,0.1l-0.5-0.4l5.2-0.1c0.1-1,0.2-2.1,0.2-3.4l-2.2,0.1c-0.7,0-1.1,0.1-1.5,0.2
		l-0.4-0.4l7.5-0.2l0.8-0.8l1,0.9l0.1,0.1c0,0-0.1,0.1-0.1,0.1l-4,0.1c0,1.2,0,2.4-0.1,3.5l3.4-0.1l0.8-0.9l1,1c0,0,0.1,0.1,0.1,0.1
		c0,0,0,0.1-0.1,0.1l-4.7,0.1c0.4,2.7,2.2,4.6,5.5,5.9c0.1,0.1,0.1,0.1,0.1,0.2c0,0-0.1,0.1-0.2,0.1c-0.5,0-1.1,0.3-1.7,0.9
		c-2.4-1.3-3.7-3.7-3.9-7.1h-0.3c0,3.5-2.5,6-7.3,7.5c-0.1,0-0.1,0-0.2-0.1c0-0.1,0-0.1,0.1-0.2c4-1.5,6-3.9,6.1-7.3L137,39z"/>
	<path class="st0" d="M151.9,38.7c-0.7,0-1.2,0-1.5,0.1l-0.4-0.4l4.7-0.1c0.1-1.3,0.1-3,0.1-5l1.6,0.4l0.1,0.1c0,0,0,0.1-0.1,0.1
		l-0.3,0.4c0,1.5-0.1,2.9-0.2,4l3.6-0.1l0.9-0.9l1,1c0.1,0.1,0.1,0.2-0.1,0.2l-4.9,0.1c0.4,3.1,2.2,5.3,5.3,6.6
		c0.1,0,0.1,0.1,0.1,0.1c0,0.1-0.1,0.1-0.2,0.1c-0.7,0-1.3,0.3-1.7,0.9c-2.4-1.1-3.7-3.7-3.9-7.7h-0.2c0.1,4.1-2.3,6.7-7,7.7
		c-0.1,0-0.1,0-0.1,0c0-0.1,0-0.1,0.1-0.2c3.9-1.2,5.9-3.7,5.9-7.5L151.9,38.7z"/>
	<path class="st0" d="M166.9,33.2l1.4,0.5c0.1,0.1,0.1,0.1,0,0.2l-0.3,0.4v2.5c0.5-0.9,0.9-1.6,1-2.1l0.7,0.8c0.1,0.1,0.1,0.2,0,0.2
		l-1.7,1.5v0.6h0.7l0.6-0.5l0.7,0.7c0,0,0,0.1-0.1,0.2l-1.9,0.1l-0.1,1.3c0.9,0.3,1.5,0.6,1.6,0.9c0,0.2-0.1,0.5-0.5,0.8
		c-0.2,0.1-0.3,0.1-0.4-0.1c-0.2-0.7-0.5-1.1-0.7-1.4v2.8l0.1,2.5c-0.1,0.4-0.4,0.9-0.9,1.4c-0.1,0.1-0.1,0.2-0.2,0.2
		s-0.1-0.1-0.1-0.2l0.1-4v-1.4c-0.8,1.3-1.9,2.6-3.2,4c-0.1,0-0.1,0-0.2,0s0,0,0-0.1c1.2-1.6,2.3-3.9,3.3-6.7h-0.4
		c-0.7,0-1.2,0.1-1.5,0.2l-0.4-0.4l2.5-0.1v-2.5c0-0.4,0-0.8-0.1-1.4c0-0.3,0-0.5,0-0.6C166.8,33.1,166.8,33.1,166.9,33.2z
		 M165,35.3c-0.1-0.1-0.1-0.1,0.1-0.1c0.8,0.3,1.2,0.6,1.4,0.8c0,0.2-0.1,0.5-0.3,0.8c-0.2,0.2-0.4,0.2-0.5-0.1
		C165.5,36.2,165.3,35.7,165,35.3z M171.5,35.5c-0.5,0-0.9,0-1.1,0.1l-0.4-0.4l1.9-0.1v-2l1.4,0.4c0.1,0,0.1,0.1,0,0.2l-0.1,0.1
		c0,0.1-0.1,0.2-0.2,0.5v0.9l1.5-0.1l0.7-0.7l0.8,0.8c0.1,0.1,0,0.1-0.1,0.1l-2.9,0.1v1.3h1.1l0.7-0.7l0.8,0.8
		c0.1,0.1,0.1,0.1-0.1,0.2l-2.5,0.1v1.4l2.3-0.1l0.7-0.8l0.9,0.8l0.1,0.1c0,0-0.1,0.1-0.1,0.1l-5.7,0.2c-0.4,0-0.8,0-1.3,0.1
		c0,0,0,0-0.2,0l-0.5-0.4l2.6-0.1V37c-0.3,0-0.7,0-1.1,0.1c0,0,0,0-0.1,0l-0.4-0.4l1.7-0.1l0.1-1.1v-0.1H171.5z M171.3,39.8l2.6-0.2
		l0.5-0.6l1.1,0.7c0.1,0,0.1,0.1,0.1,0.2l-0.4,0.5l0.2,3.6c0.1,1-0.4,1.8-1.4,2.5c-0.1,0.1-0.2,0.1-0.2-0.1c0-0.5-0.2-0.8-0.4-0.9
		c0,0-0.1,0-0.1-0.1c0-0.1,0-0.1,0.1-0.1c0.5,0.1,0.8-0.1,0.7-0.5l-0.1-4.9l-2.6,0.2v1.1l2.2-0.1c0.1,0,0.2,0,0.2,0.1
		c0,0.1,0,0.2-0.1,0.2l-2.2,0.1l-0.1,1.3l2.3-0.1c0.1,0,0.1,0.1,0.2,0.2c0,0,0,0.1-0.1,0.1l-2.3,0.2l-0.1,1.4c0,0.5-0.2,1.1-0.7,1.6
		c-0.1,0.1-0.2,0.2-0.3,0.3c-0.1,0-0.1-0.1-0.1-0.3l0.1-2.2l0.1-2.8v-1.9L171.3,39.8z"/>
	<path class="st0" d="M179.8,35.4l2.2-0.1l0.1-2.2l1.3,0.4c0.1,0,0.1,0.1,0.1,0.2c-0.1,0.2-0.2,0.7-0.2,1.6h0.4l0.4-0.5l1,0.8
		l0.1,0.1c0,0,0,0.1-0.1,0.1l-0.4,0.4c-0.5,0.7-1,1.4-1.6,2.1v0.4c1,0.4,1.5,0.7,1.7,1c0,0.4-0.2,0.7-0.5,0.9
		c-0.3,0.1-0.5,0.1-0.5-0.2c-0.1-0.7-0.3-1.2-0.7-1.6l-0.1,3.9l0.1,2c-0.1,0.6-0.4,1.2-0.9,1.7c-0.1,0.1-0.1,0.1-0.2,0.1
		c-0.1,0-0.1-0.1-0.1-0.2l0.1-3.1l0.1-3.8c-0.8,0.7-2,1.7-3.6,2.9c-0.1,0-0.1-0.1-0.1-0.2c2.1-1.8,3.8-3.9,5.1-6.5l-2.1,0.1
		c-0.4,0-0.8,0.1-1.1,0.2L179.8,35.4z M187.5,33.2l1.3,0.5c0.1,0,0.1,0.1,0,0.2l-0.2,0.2v2.1l1.1-0.1l0.5-0.6l1.2,0.8
		c0.1,0,0.1,0.1,0,0.2l-0.3,0.5v3.2c0,0.6-0.2,1.2-0.7,1.7c-0.1,0.2-0.3,0.2-0.4-0.1c-0.1-0.3-0.2-0.5-0.4-0.8c0,0,0,0-0.1-0.1
		l-1,0.1v1.5l0.1,2.5c-0.1,0.4-0.4,0.9-0.8,1.3c-0.1,0.1-0.2,0.1-0.2,0.1c-0.1,0-0.1-0.1-0.1-0.2l0.1-3.4V41l-1.2,0.1
		c-0.2,0.3-0.4,0.6-0.8,0.9c-0.1,0-0.1,0.1-0.2,0.1c0,0-0.1-0.1-0.1-0.2V37l-0.1-1.3l1,0.5h1.3v-1.1
		C187.6,34.4,187.6,33.8,187.5,33.2z M186.4,36.5v2l1.2-0.1v-2L186.4,36.5z M186.4,38.7v2.1l1.2-0.1v-2H186.4z M189.5,36.5h-0.9v2
		l1.4-0.1v-1.5C190,36.6,189.8,36.4,189.5,36.5z M189.9,40.7l0.1-2.1l-1.4,0.1v2.1L189.9,40.7z"/>
</g>
</svg>
