<?xml version="1.0" encoding="utf-8"?>
<!-- Generator: Adobe Illustrator 21.0.0, SVG Export Plug-In . SVG Version: 6.00 Build 0)  -->
<svg version="1.1" id="图层_1" xmlns="http://www.w3.org/2000/svg" xmlns:xlink="http://www.w3.org/1999/xlink" x="0px" y="0px"
	 viewBox="0 0 204.1 362.8" style="enable-background:new 0 0 204.1 362.8;" xml:space="preserve">
<style type="text/css">
	.st0{fill:#FFFFFF;}
</style>
<g>
	<path class="st0" d="M58.8,36.8c-1.2,2.3-2.5,3.2-3.8,2.5l-0.2-17.4c0-0.2,0.1-0.4,0.2-0.5c0.1,0,0.2,0.1,0.3,0.2l3.2,1.8L68.7,23
		v-3.5l-0.2-7.3l5,1.3c0.3,0,0.4,0.2,0.2,0.5c-0.3,0.3-0.6,0.9-0.8,1.7V23l9.6-0.2l2-2.5l4,2.3c0.2,0.1,0.2,0.3,0,0.5l-1,1.5
		l0.2,9.6l0.3,1c0.2,0.4,0.1,0.7-0.5,0.7c-2.8-0.3-7.6-0.4-14.6-0.2v7.6v4.6c-0.6,2.1-1.8,3.8-3.6,5c-0.3,0.1-0.6-0.1-0.8-0.7
		l0.3-8.1v-8.5c-1.7,0-3.9,0.1-6.6,0.2c-1.7,0-2.8,0-3.3,0V36.8z M58.6,24.3v10.5l10.1-0.2V24.2L58.6,24.3z M82.6,23.8L72.9,24v10.5
		l10-0.2L82.6,23.8z"/>
	<path class="st0" d="M60.7,63.6c-2,0-3.5,0.1-4.6,0.3l-1.2-1.2l7.3-0.2l0.2-6.3l4.3,1c0.3,0,0.4,0.2,0.2,0.7l-0.5,1.3l-0.2,3.3
		l3.6-0.2l1.8-2l2.5,2.3c0.2,0.1,0.2,0.3,0,0.5L69,63.4l2.7,1.8c0.2,0.2,0.2,0.5,0,0.8l-3.5,7.5h3.3l2-2l2.7,2.3
		c0.1,0.1,0.1,0.3-0.2,0.5l-17.9,0.3c-0.3,0-0.8,0.1-1.5,0.2c-1.5,0-2.5,0.1-3,0.3l-1.2-1.3h6.3c0-3.9-0.1-6.2-0.2-7
		c0-0.3,0.1-0.4,0.3-0.3l2.8,1.7v0.2c0.1,0.2,0.2,0.4,0.2,0.5l-0.2,4.8l3.5-0.2c1.9-5,2.7-8.3,2.5-10.1L60.7,63.6z M67.7,79.3
		l1.7-2.2l3.8,2.2c0.2,0.1,0.2,0.3,0,0.5l-1,1.3l0.2,8.3l0.3,0.7c0,0.3-0.1,0.5-0.3,0.5c-2.8,0-6.9,0.1-12.3,0.2
		c-0.1,1.3-0.9,2.8-2.3,4.3c-0.6,0.3-0.8,0.3-0.8,0l0.2-6.8V77.7c0-0.2,0.1-0.2,0.3,0l2.8,1.8L67.7,79.3z M60.1,80.3v9.3l8-0.2
		l-0.2-9.3L60.1,80.3z M85,60.1l1.8-2l3.2,2.5c0.2,0.1,0.3,0.2,0.3,0.3c0,0.1-0.1,0.2-0.3,0.3l-1.2,1.2l-6,9.8
		c5.1,4.1,7.5,7.9,7.1,11.4c-0.2,2.8-2,4.6-5.3,5.6c-0.2,0.1-0.3,0-0.3-0.3c0.1-1.7-0.3-2.7-1.3-3c-0.2-0.3-0.2-0.5,0.2-0.5
		c1.9,0.2,2.8-0.1,2.8-1C86.4,80,85,76,81.8,72.4L85,60.9l-5.1,0.2l-0.3,21.2l0.2,7.8c-0.2,2.5-1.1,4.6-2.5,6.3
		c-0.9,0.7-1.3,0.6-1.3-0.2l0.3-10.9l0.5-28.4l3.2,2v0.2c0.1,0.1,0.1,0.2,0,0.3v0.7H85z"/>
	<path class="st0" d="M56.4,128.2c-0.2,1.7-0.8,3-1.8,4c-0.1,0.2-0.3,0.3-0.5,0.3c-0.2,0-0.3-0.1-0.3-0.3l0.2-7.6v-11.8l-0.2-6.1
		l3.3,1.5c0.2,0,0.2,0.2,0,0.5l-0.5,1.2l-0.2,17.1l2-0.2l0.2-19.6c0-1.2-0.1-2.9-0.2-5c0-1.3,0-2.2,0-2.7l3.8,1.5
		c0.2,0,0.2,0.2,0,0.7c-0.3,0.2-0.5,0.8-0.5,1.7l-0.5,23.2l2.3-0.2l0.2-13.1l-0.2-7l3.8,1.8c0.1,0,0.2,0.2,0.2,0.5l-0.8,1.2
		l-0.2,16.6l0.3,0.5c0.1,0.2,0.2,0.4,0.2,0.5c0,0.1-0.1,0.2-0.3,0.2c-1.8-0.1-5.2,0-10.3,0.3V128.2z M68.9,100.8
		c0-0.3,0.1-0.4,0.3-0.3l3.3,1.7l12.1-0.2l1.5-1.7l3.3,2c0.2,0.1,0.2,0.3,0,0.7l-0.8,1l-0.2,4.5l0.3,0.5c0.1,0.2,0.1,0.3-0.2,0.3
		c-0.8,0-1.9-0.1-3.3-0.2c-1.6,0-2.7,0-3.5,0l-9.8,0.2v4.3c0.1,6.5-0.7,11.5-2.3,14.9c-1.5,3.5-4.9,7.6-10,12.1
		c-0.4-0.2-0.5-0.5-0.2-0.8c3.8-3.5,6.4-7.4,7.8-11.4c1.3-3.5,1.9-8.8,1.8-15.8l-0.2-6.8L68.9,100.8z M72,103.3v5.1l12.6-0.2v-5.1
		v-0.2H72.2L72,103.3z M86.3,125.7l3.6,1.5c0.3,0,0.4,0.1,0.2,0.3l-0.5,1v6.3l0.3,0.7c0.1,0.3,0,0.4-0.3,0.3
		c-3.5-0.2-8.4-0.3-14.6-0.2c-0.1,1.4-0.8,2.7-2.2,3.8c-0.2,0.1-0.4,0.2-0.5,0.2c-0.1,0-0.2-0.1-0.2-0.3l0.2-4.3v-4.1v-4.3l3.2,1.2
		c0.2,0,0.2,0.1,0,0.3l-0.5,1v6h4.5l-0.2-12.3h-3.5c-0.4,1.9-1.3,2.8-2.5,2.7v-6.6l-0.2-5l3.2,1.3c0.2,0,0.3,0.1,0.2,0.3l-0.7,1v5.5
		h3.3v-5.1c0-3.2-0.1-5.4-0.2-6.6l4,1.2c0.1,0,0.2,0.2,0.2,0.5c-0.3,0.2-0.6,0.6-0.7,1.2v9h3v-8.5l3.6,1.3c0.3,0.1,0.4,0.3,0.2,0.5
		l-0.7,1v5.5l0.3,0.8c0.2,0.3,0.1,0.5-0.5,0.5c-0.7-0.1-1.7-0.2-3-0.2c-1.3-0.1-2.3-0.2-3-0.2L82.3,135l4.1-0.2L86.3,125.7z"/>
	<path class="st0" d="M63.6,142.7l3.6,1.8c0.2,0.1,0.2,0.3,0,0.7c-0.3,0.4-0.6,1.2-0.7,2.2v2.5l2-0.2L70,148l2.2,2
		c0.2,0.3,0.2,0.5-0.2,0.5l-5.5,0.2l-0.2,5.8l2.7-0.2l1.8-2l2.5,2.3c0.2,0.3,0.2,0.5-0.2,0.5l-7,0.3l-0.2,18.1
		c3.3,1.2,11.4,1.3,24.2,0.3c0.2,0,0.4,0.1,0.5,0.3c0,0.1-0.1,0.2-0.3,0.3c-2,0.3-3.6,1.8-4.8,4.3c-4,0.1-8,0.1-12.1-0.2
		c-3.5-0.2-5.8-0.5-6.6-0.8c-3.1-1.1-5.4-3.9-7-8.3c-0.6,4-3.4,8.1-8.5,12.4c-0.3,0.1-0.4,0-0.3-0.3c3-3,4.9-5.9,5.6-8.6
		c0.9-2.5,1.3-6.9,1.2-12.9l3,1.2c0.2,0,0.2,0.2,0,0.7l-0.3,0.8c0,2-0.2,3.8-0.5,5.5c0.1,0.2,0.3,0.5,0.5,0.8c0.7,1.1,1.5,2.1,2.5,3
		v-16.6l-2.5,0.2c-2.1,0-3.5,0.2-4.3,0.5l-1.2-1.3l8.3-0.3l-0.2-5.8l-1.5,0.2c-1.5,0-2.9,0.1-4.1,0.3l-1.3-1.2l7-0.2V143
		C63.2,142.8,63.3,142.7,63.6,142.7z M71.7,160.6l1.2,2.5c0.2,0.2,0.2,0.4-0.2,0.5c-0.4,0-1.2,0.1-2.2,0.2c-1.7,0.2-2.9,0.4-3.8,0.5
		c-0.1,0-0.1-0.1,0-0.3C68.8,162.9,70.5,161.8,71.7,160.6z M78.8,148.3c-1.6,0-3,0.1-4.5,0.3l-1.3-1l8.3-0.2l1.7-2l3,1.8
		c0.3,0.1,0.3,0.3,0,0.7l-0.8,1.2l-0.2,7.6l0.3,0.7c0.2,0.2,0.2,0.3-0.2,0.3c-1.1-0.1-3.5-0.2-7.3-0.2l-0.2,0.8l-0.7,8
		c-0.2,1.7,0.4,2.4,2,2.3c2.1,0.2,3.9,0.1,5.3-0.3c1.5-0.2,2.5-1.2,3-3c0.1-0.1,0.2-0.2,0.3-0.2c0.1,0,0.2,0.1,0.2,0.3
		c-0.4,1.5-0.1,2.5,1.2,2.8c1.1,0.4,1.5,1.2,1.2,2.2c-0.3,0.9-1.2,1.4-2.5,1.7c-2.5,0.7-5.2,0.8-8,0.5c-3.4-0.6-5.1-2.9-5.1-7.1
		v-4.8c0-1.1-0.1-2.5-0.2-4.1c0-0.9,0-1.5,0-1.8c-0.1-0.3,0-0.4,0.3-0.3l3.5,2.3h3.3v-8.6L78.8,148.3z"/>
	<path class="st0" d="M59.9,204.6c-2,0-3.5,0.1-4.5,0.3l-1.5-1.3l15.8-0.3c0.3-3,0.5-6.5,0.5-10.5l-6.8,0.2c-2,0-3.5,0.2-4.5,0.5
		l-1.3-1.3l22.9-0.7L83,189l3.2,2.8l0.2,0.3c-0.1,0.1-0.2,0.2-0.3,0.2l-12.1,0.3c0.1,3.6,0,7.2-0.3,10.6L84,203l2.5-2.7l3.2,3
		c0.1,0.1,0.2,0.2,0.2,0.3c0,0.1-0.1,0.2-0.3,0.2L75,204.1c1.1,8.1,6.6,14,16.6,17.9c0.2,0.2,0.3,0.4,0.3,0.5c0,0.1-0.2,0.2-0.5,0.3
		c-1.5,0-3.3,0.9-5.3,2.8c-7.3-4-11.2-11.2-11.8-21.6h-1c-0.1,10.5-7.5,18.1-22.1,22.9c-0.2,0.1-0.4,0.1-0.5-0.2
		c0-0.2,0.1-0.4,0.3-0.5c12.1-4.5,18.2-11.9,18.6-22.1L59.9,204.6z"/>
	<path class="st0" d="M60.4,247c-2,0-3.5,0.1-4.6,0.3l-1.3-1.3l14.4-0.3c0.3-4.1,0.4-9.1,0.2-15.1l4.8,1.2l0.3,0.2
		c0,0.1-0.1,0.2-0.3,0.3l-1,1.2c0,4.6-0.2,8.7-0.5,12.3l10.9-0.3l2.7-2.7l3,3.2c0.2,0.3,0.2,0.5-0.2,0.5L74,246.7
		c1.2,9.5,6.6,16.2,16.3,20.1c0.2,0.1,0.3,0.2,0.3,0.3c-0.1,0.2-0.3,0.3-0.5,0.3c-2.1,0.1-3.9,1-5.3,2.7
		c-7.2-3.4-11.1-11.2-11.8-23.4h-0.7c0.2,12.4-6.9,20.2-21.4,23.6c-0.2,0.1-0.3,0.1-0.3,0c0-0.2,0.1-0.4,0.2-0.5
		c11.8-3.5,17.9-11.2,18.1-22.9L60.4,247z"/>
	<path class="st0" d="M80,293.4l1.8-2l3.5,2.5c0.3,0.1,0.3,0.3,0,0.7l-0.8,1v2h1.3l2.2-2.2l2.8,2.5c0.2,0.2,0.2,0.3-0.2,0.3
		l-6.3,0.3v2.8l1.5,1.7c0.1,0.3,0,0.6-0.3,0.7h-3.3l-9.1,0.2v2.7c0.1,3.2-1.6,5.7-5.1,7.6c-0.2,0.1-0.4,0.2-0.5,0.2
		c-0.1-0.1-0.2-0.3-0.2-0.7c0.1-1.3-0.3-2.3-1.3-3c-0.2-0.1-0.3-0.2-0.2-0.3c0-0.2,0.1-0.3,0.3-0.2c2.1,0.1,3-0.4,2.8-1.7V304h-6
		c-0.3,0-0.8,0.1-1.5,0.2c-1.6,0-2.5,0.1-3,0.3l-1.3-1.3l11.8-0.2v-4l-9.5,0.2c-2.4,0.1-4.1,0.3-5.1,0.7l-1.2-1.5l15.8-0.3v-3.5
		l-6.3,0.2c-1.6,0-3,0.1-4.5,0.3l-1.3-1.2l12.1-0.2V290c-0.9,0-2.3,0.1-4.1,0.2c-1.5,0-2.7,0-3.3,0c-0.3,0.7-0.9,1.4-1.8,2.2
		c-0.7,0.2-1,0.2-1-0.2l0.2-5.5c0-0.6-0.1-1.5-0.2-2.8c0-0.7,0-1.1,0-1.3c0-0.3,0.1-0.4,0.3-0.2l2.8,1.3l7.1-0.2v-1.2
		c0-0.7,0-1.3,0-1.8l-10.3,0.3c-2,0-3.5,0.2-4.6,0.5l-1-1.5l15.9-0.2c-0.1-2.3-0.2-4.1-0.2-5.3c0-0.3,0.1-0.4,0.3-0.3l4.8,1.8
		c0.1,0,0.2,0.1,0.3,0.2l-0.2,0.3l-1,1.3v1.8l11.1-0.2l2.5-2.5l3,2.7l0.2,0.3c-0.1,0.1-0.2,0.2-0.3,0.2L73,280.4v3.2h6.3l1.7-1.7
		l3.3,2.2c0.2,0.1,0.2,0.3,0,0.5l-1,1.2v3.6l0.2,0.5c0.1,0.1,0.1,0.2,0,0.3c-0.2,0-0.9,0-2.2,0c-3.4-0.1-6.2-0.2-8.3-0.2v3.5h7
		V293.4z M61.9,284.7l-0.2,4.5l7.1-0.2v-4.5L61.9,284.7z M79.7,284.4l-6.6,0.2v4.5h6.6V284.4z M80.5,294.5l-0.2-0.2l-7.3,0.2v3.3
		l7.3-0.2L80.5,294.5z M73,298.8v4.1l7.3-0.2v-4.1L73,298.8z"/>
</g>
<g>
	<path class="st0" d="M115,53c3.2,1.3,4.7,2.7,4.5,4.1c-0.1,1.1-0.7,1.9-1.8,2.3c-0.9,0.1-1.4-0.3-1.5-1.2c-0.1-2.2-0.6-3.9-1.5-5
		C114.6,53,114.7,52.9,115,53z M124.1,53.5l-3.8,17.1c-0.6,1.9-0.5,4,0.2,6.5c0.2,0.7,0.1,1.2-0.3,1.7c-0.8,0.8-1.8,1.2-3,1.2
		c-0.6,0.1-0.7-0.3-0.5-1.2c0.2-1.4,0.3-2.9,0.3-4.3c0-1-0.7-1.6-2-1.8c-0.1-0.2-0.1-0.4,0.2-0.5c1.2,0.2,2-0.2,2.3-1.2l6.1-17.4
		c0.1-0.1,0.2-0.2,0.3-0.3C124.1,53.3,124.1,53.4,124.1,53.5z M118.7,44.1c3.3,1.2,5,2.4,5.1,3.6c-0.1,1.1-0.7,1.9-1.8,2.5
		c-0.8,0.2-1.3-0.1-1.5-0.8c-0.4-2.2-1.2-3.9-2.2-5v-0.2C118.2,44.1,118.3,44.1,118.7,44.1z M148.2,44.1l2.8,2.2
		c0.2,0,0.2,0.1,0,0.3l-0.8,1l0.2,21.4c0.6,6.1-1.1,9.8-5,11.3c0.1-1.4-0.2-2.3-0.8-2.7c-0.1-0.2-0.1-0.4,0-0.5c2,0.6,2.8-2.1,2.5-8
		l-0.2-22.2l-3.8,0.2l-0.5,1.3l-0.2,7.1h3c0.3,0,0.5,0.1,0.5,0.3c0,0.2-0.2,0.4-0.5,0.5l-3,0.2l-0.2,3.5c0.1,1.8,0,3.4-0.3,4.8h3.5
		c0.3,0,0.5,0.1,0.5,0.3c-0.1,0.3-0.3,0.5-0.5,0.5l-3.5,0.2c-0.6,8.8-7.4,14.6-20.4,17.3c-0.3,0-0.6-0.1-0.7-0.3
		c0-0.1,0.1-0.2,0.3-0.3c7.6-2.2,12.5-4.8,14.6-7.8c2.5-3.1,3.8-8.4,3.8-15.9V52c0-2.9-0.1-5.3-0.3-7.1c0-0.3,0.1-0.4,0.3-0.3
		l3.3,1.7l3.8-0.2L148.2,44.1z M128,52.2c-0.8,0-1.8,0.1-3,0.3c-0.2,0.1-0.4,0.2-0.5,0.2l-1-1.3l5.8-0.2v-3.3l0.2-5.3l4,1.2
		c0.2,0.2,0.2,0.4,0,0.7l-0.8,1.2l-0.3,5.6h1.8l1.8-2l2.3,2.3c0.1,0.3,0.1,0.5-0.2,0.5l-5.8,0.2l-0.7,9.1h0.7l1.5-2l2.8,1.8
		c0,0.1,0,0.2,0,0.3l-0.8,1.2v8.3l0.3,1c0.1,0.2,0.1,0.4,0,0.5h-0.3c-2-0.2-4.8-0.3-8.3-0.3v1.8c-1.1,1.7-2,2.2-2.7,1.7L124.6,60
		c0-0.2,0.1-0.3,0.2-0.3h0.2l2.3,1.8h1.5l0.3-9.3H128z M127.5,62.3v9h5l-0.2-9.1L127.5,62.3z"/>
	<path class="st0" d="M115,96.9c3,1.4,4.5,2.9,4.5,4.3c-0.3,1.1-0.9,1.8-1.8,2.2c-0.8,0.1-1.3-0.2-1.7-1c-0.1-2.2-0.6-3.9-1.5-5.1
		C114.6,96.9,114.8,96.8,115,96.9z M124.1,98.5l-4,16.9c0,0.1-0.1,0.3-0.2,0.5c-0.3,1.9-0.2,3.8,0.5,5.8c0.2,0.8,0.1,1.4-0.5,1.8
		c-0.8,0.9-1.7,1.3-2.8,1.3c-0.4,0-0.6-0.4-0.5-1.2c0.2-1.8,0.3-3.2,0.3-4.3c0.1-0.9-0.6-1.5-2-2c-0.1-0.2-0.1-0.4,0.2-0.5
		c1.1,0.3,1.9,0,2.3-1l6.1-17.4c0.1-0.1,0.2-0.2,0.3-0.3C124.1,98.3,124.1,98.4,124.1,98.5z M118.5,88.1c3.5,1.2,5.3,2.4,5.3,3.5
		c0,1-0.6,1.8-1.8,2.5c-0.8,0.2-1.3,0-1.7-0.7c-0.3-2.1-1-3.8-2-5C118.1,88.1,118.2,88,118.5,88.1z M129.6,85.6l3.8,1.8
		c0.2,0.1,0.2,0.3,0,0.5l-0.8,1.2l-0.2,6.1h1.3l1.8-1.8l2.2,2.2c0.1,0.1,0.1,0.3-0.2,0.5h-5.1v5c2.7,1.1,4,2,4.1,2.8
		c0,0.9-0.4,1.6-1.2,2.2c-0.7,0.3-1.1,0.2-1.2-0.3c-0.4-1.7-1.1-2.9-1.8-3.8v11.8l0.2,7.5c-0.2,1.3-1,2.8-2.3,4.3
		c-0.7,0.6-1.1,0.5-1.2-0.2l0.3-11.8v-8c-2.8,4.4-5.6,8.4-8.6,11.9c-0.1,0.2-0.2,0.3-0.3,0.2c-0.2-0.1-0.3-0.3-0.2-0.5
		c3.2-5.2,6.2-12.2,9.1-20.9H129c-1.7,0-3.2,0.1-4.6,0.3l-1.2-1.2l6.3-0.2v-3.6c0-2.7,0-4.6,0-5.8C129.5,85.7,129.5,85.6,129.6,85.6
		z M141.9,92.2l4.3-0.2l1.2-1.8l3.3,1.8c0.2,0,0.2,0.1,0,0.3l-0.8,1.3l-0.2,18.9c0,0.7,0.1,1.7,0.2,3c0,1.2,0,2.1,0,2.7
		c0,1.5-0.7,3.3-2.2,5.3c-0.6,0.4-0.9,0.4-1-0.2c-0.2-1.7-0.7-3.1-1.3-4.3l-4.3,0.3c-0.3,1.7-1,3.2-2,4.6c-0.3,0.3-0.6,0.5-0.7,0.5
		c-0.2-0.1-0.3-0.3-0.3-0.7l0.3-25.7c0-3.2-0.1-5.7-0.3-7.5c0-0.3,0.2-0.4,0.5-0.3L141.9,92.2z M144.9,108.3c0.3,0.2,0.3,0.5,0,0.8
		l-3.8,0.3l-0.2,9.1l4.3-0.2c0.4-0.1,0.7-0.5,0.8-1.2l0.2-24.5l-4.3,0.3l-0.7,1l-0.2,6.6l3.8-0.3c0.2,0.1,0.3,0.3,0.3,0.5
		c0,0.2-0.1,0.3-0.3,0.3l-3.8,0.2v7.3L144.9,108.3z"/>
	<path class="st0" d="M124.5,132l1.7-1.5l3,2c0.3,0.2,0.3,0.5-0.2,0.8l-1,1c-1.3,2.1-3,4.6-5.1,7.6c4.4,3.4,6.5,6.6,6.3,9.6
		c-0.2,2.7-1.8,4.5-4.8,5.6c-0.1,0-0.2-0.1-0.2-0.3c0.2-1.5-0.3-2.6-1.5-3.2c-0.1-0.2-0.1-0.4,0-0.5c1.9,0.2,2.8-0.1,2.7-1
		c0.7-3.2-0.4-6.6-3.2-10.3c1.3-4.2,2.2-7.2,2.7-9l-4.6,0.2l-0.2,21.7v8c0,2.3-0.7,4.5-2.2,6.5c-0.8,0.6-1.2,0.5-1.3-0.2l0.5-10.9
		l0.3-28l2.8,2L124.5,132z M132.8,150l3,2.2c0.2,0.1,0.2,0.3,0,0.5c-2.8,4.3-7,8.7-12.8,13.1c-0.3,0.1-0.5,0-0.5-0.3
		c4.5-4.1,7.9-9.1,10-15.1C132.4,150,132.5,149.9,132.8,150z M134.4,145.6c-0.3,0-0.8,0.1-1.5,0.2c-1.4,0-2.4,0.1-3,0.3l-1.2-1.3
		l18.7-0.2l2.5-2.3l2.7,2.7c0.1,0.2,0.1,0.4-0.2,0.5l-12.9,0.2l2.8,0.8c0.1,0.1,0.2,0.2,0.2,0.3l-0.7,1.3V163
		c-0.1,2.5-1.7,4.7-4.8,6.5c-0.2,0.1-0.4,0.1-0.5,0c-0.1,0-0.1-0.1,0-0.3c-0.1-1.5-0.6-2.5-1.5-2.8c-0.3-0.3-0.3-0.6,0-0.7
		c2.1,0,3.1-0.5,3-1.5l0.2-18.6H134.4z M137.4,133.8c-0.3,0-0.8,0.1-1.5,0.2c-1.4,0-2.4,0.1-3,0.3l-1.2-1.2l12.6-0.2l2-2l2.5,2.2
		c0.2,0.1,0.2,0.3,0,0.5L137.4,133.8z M144.2,152.7c3.4,1.1,6.1,2.5,8.1,4.3c0.6,1,0.3,2.3-0.7,3.8c-0.9,0.8-1.7,0.6-2.3-0.5
		c-1.3-3-3.2-5.4-5.5-7.3C143.9,152.7,144,152.6,144.2,152.7z"/>
	<path class="st0" d="M131.9,172.8l4.1,1.7c0.2,0.1,0.3,0.2,0.3,0.3c0,0.1-0.1,0.2-0.3,0.3l-0.5,0.5c3.8,6.1,10,10.9,18.6,14.6
		c0.2,0.2,0.2,0.4-0.2,0.7c-1.3-0.1-2.9,0.8-4.8,2.8c-6.5-4.9-11.2-10.7-14.1-17.4h-0.2c-4.9,7.5-12.2,14.6-22.1,21.2
		c-0.2,0-0.3-0.2-0.3-0.5C120.6,191,127.1,182.9,131.9,172.8z M123.8,197.6c-0.3,0-0.8,0.1-1.3,0.2c-1.4,0-2.4,0.1-3,0.3l-1.5-1.3
		l25.5-0.3l2.3-2.5l3.2,2.7l0.2,0.3c-0.1,0.1-0.2,0.2-0.3,0.2l-17.6,0.3l3.3,1.7c0.2,0.2,0.2,0.4-0.2,0.7l-1,1c-3,3-5.7,5.5-8.1,7.5
		l16.4-1.3c-0.7-1.2-1.7-2.8-3.2-4.6c0-0.2,0.1-0.3,0.3-0.3c0.2,0.1,0.6,0.3,1,0.7c4.3,2.9,6.6,4.8,7,5.8c0.2,1.2-0.6,2.5-2.3,4
		c-0.6,0.2-0.9,0-1.2-0.7c0-0.2-0.1-0.5-0.2-0.8c-0.4-1.8-0.9-2.9-1.3-3.3c-9.4,1.9-15.8,3.6-19.1,5.1c-0.4,0.3-0.7,0.3-0.8-0.2
		l-1.7-3.5l-0.2-0.3c0.1-0.1,0.2-0.2,0.3-0.2l3.6-0.3c2.8-4.1,4.7-7.7,5.8-10.8L123.8,197.6z M130.9,190.6c-1.5,0-3,0.1-4.5,0.3
		l-1.5-1.2l12.4-0.3l2.3-2.5l3,2.8c0.2,0.2,0.2,0.3-0.2,0.3L130.9,190.6z"/>
	<path class="st0" d="M129.8,251.4c-0.3,1.2-1,2.5-2,4c-0.4,0.3-0.8,0.5-1,0.5c-0.2-0.1-0.3-0.4-0.3-0.8l0.2-8.5v-6.8
		c-3.6,3.2-6.8,6.2-9.5,9.1c-0.6,0.8-1.2,1.1-2,0.8c-0.7-0.2-0.8-0.7-0.5-1.5c1-1.7,1.4-3.1,1.2-4.3c0.6,1.1,4.1-0.7,10.8-5.3
		l0.2-9.8l-5.3,0.5c-2.1,0-3.6,0.2-4.6,0.5l-1.2-1.2l11.1-0.7l0.2-4.6l-0.2-6l3.5,1.5c0.3,0.1,0.4,0.3,0.2,0.7l-0.3,0.8l-0.5,24.2
		L129.8,251.4z M148.2,222.9l3,3.6c0.3,0.4,0.2,0.8-0.3,1c-0.7,0.3-2.3,1.2-4.8,2.7c-2.9,1.7-5.2,2.9-7,3.8l-0.5,12.3
		c-0.3,2.2,0.6,3.3,2.7,3.3c2.8,0,5-0.2,6.8-0.5c1.5-0.1,2.7-1.5,3.3-4.1c0.1-0.2,0.3-0.3,0.5-0.2c0.1,0,0.2,0.1,0.2,0.3
		c-0.1,1.9,0.1,3,0.7,3.3c1.5,1.8,1.3,3.1-0.7,4c-3,1.2-6.7,1.5-11.3,1c-3.6-0.6-5.4-3.2-5.3-8l0.3-22.4c0-1.1-0.1-2.5-0.2-4.3
		c0-0.8,0-1.3,0-1.7c0-0.3,0.1-0.4,0.3-0.3l4.3,2.3c0.1,0,0.2,0.1,0.3,0.2c-0.1,0.1-0.2,0.2-0.3,0.3l-0.5,0.8l-0.5,12.4
		C142.9,229.4,145.9,226.1,148.2,222.9z"/>
	<path class="st0" d="M115.5,272.2c3.2,1.4,4.8,2.9,4.8,4.5c-0.1,1.2-0.8,2-2,2.3c-1,0.1-1.5-0.3-1.7-1.2c-0.1-2.1-0.7-3.9-1.7-5.3
		C115.1,272.2,115.3,272.1,115.5,272.2z M125.6,272.4l-4.6,19.1c-0.2,1.8,0,3.3,0.7,4.6c0.3,0.7,0.3,1.3-0.2,1.8
		c-0.6,0.7-1.6,1.1-3.2,1.3c-0.7,0-1-0.4-1-1.2c0.3-1.9,0.5-3.3,0.5-4.3c0.1-1-0.6-1.7-2-2.2c-0.2-0.2-0.2-0.4,0-0.5
		c1.4,0.2,2.2-0.2,2.3-1.2l7-17.7c0.1-0.2,0.2-0.3,0.3-0.2C125.6,272,125.6,272.1,125.6,272.4z M119.7,261.9c3.9,0.8,5.9,2,6,3.6
		c0,1.4-0.6,2.4-1.7,3c-0.9,0.3-1.5,0.1-1.8-0.7c-0.7-2.9-1.6-4.7-2.8-5.5c-0.1-0.1-0.1-0.2,0-0.3
		C119.3,262,119.4,261.9,119.7,261.9z M132.1,269.2c-1.1,0.1-2.4,0.2-3.8,0.3c0.2,0,0,0.1-0.7,0.2l-1.5-1.3h6.8v-4.3
		c0-0.7-0.1-1.3-0.2-2c0-0.3,0-0.6,0-0.7c0-0.3,0.1-0.4,0.3-0.3l3.2,1.3c0.3,0.1,0.4,0.3,0.3,0.7l-0.2,5.1h3.6l3.3-8.5l4.1,2
		c0.2,0.1,0.2,0.3,0,0.5l-1,0.8l-3.8,5.1l3.5-0.2l2-2.2l2.8,2.5c0.1,0.2,0.1,0.4-0.2,0.5l-12.8,0.3l2.3,0.7c0.2,0,0.2,0.2,0,0.5
		l-0.2,0.8l-0.2,5.1l4.8-0.2l2-2.3l2.7,2.7c0.3,0.2,0.3,0.3-0.2,0.3l-9.3,0.3v7.5l7.6-0.2l2.3-2.5l2.8,2.8l0.2,0.2
		c0,0.1-0.1,0.2-0.3,0.3l-12.6,0.3v2.7l0.2,7c-0.2,1.5-1.1,3-2.7,4.5c-0.9,0.6-1.4,0.4-1.5-0.3l0.2-9.6l0.2-4.1l-6,0.2
		c-0.3,0-0.8,0.1-1.5,0.2c-1.4,0-2.5,0.1-3.2,0.3l-1.2-1.3l11.8-0.2v-7.5h-3c-1.1,0.1-2.3,0.2-3.6,0.3c-0.3,0.1-0.6,0.2-0.8,0.2
		l-1.3-1.3l8.8-0.2v-2.2l-0.2-5H132.1z"/>
	<path class="st0" d="M118.5,312.4c0.2-0.2,0.4-0.2,0.5,0c0.7,3.4,0.4,6.4-0.8,9c-1,1.7-2.3,2.4-3.8,2.2c-0.9-1-0.9-1.9,0-2.8
		C116.8,319.4,118.2,316.6,118.5,312.4z M120.3,303.8c0-0.2,0.1-0.4,0.2-0.5c0.2,0,0.4,0.1,0.5,0.2l3.2,1.5c0.2,0.1,0.2,0.3,0,0.5
		l-0.3,1l-0.5,26.4l-0.2,5.3c0.1,0.8,0.1,1.6-0.2,2.5c-0.4,1.3-1.2,2.4-2.3,3.2c-0.3,0.2-0.6,0.3-0.7,0.3c-0.2-0.1-0.3-0.3-0.3-0.5
		l0.5-12.8l0.5-21.7L120.3,303.8z M125.1,312.7c2.2,1.1,3.4,2.1,3.5,3c-0.2,0.8-0.7,1.4-1.5,2c-0.4,0.3-0.8,0.3-1-0.2
		c-0.7-1.2-1.2-2.7-1.5-4.5C124.5,312.7,124.7,312.6,125.1,312.7z M134.4,310.1c-1.3,0-2.7,0.1-4.1,0.3c0.1,0,0.1,0-0.2,0l-1.5-1.2
		l8.8-0.2l-0.2-5.8l4.5,1.3c0.1,0,0.2,0.1,0.3,0.2c-0.1,0.1-0.2,0.2-0.3,0.3v0.2c-0.3,0.4-0.5,0.9-0.5,1.5l-0.2,2.3l4.5-0.2l2.2-2
		l2.5,2.3c0.1,0.2,0.1,0.4-0.2,0.5c0-0.1-0.1-0.1-0.2,0l-8.8,0.2v3.8h3l2-2l2.3,2.2l0.2,0.3c-0.1,0.1-0.2,0.2-0.3,0.2l-7.1,0.2v3.8
		l7.5-0.2l2-2.2l2.8,2.5c0.1,0.2,0.1,0.4-0.2,0.5c0-0.1-0.1-0.1-0.2,0l-20.9,0.5c-1.7,0-3.1,0.2-4.3,0.5l-1.3-1.3l10.9-0.2v-3.8
		l-5.8,0.2c-0.4,0-0.7-0.2-0.7-0.5c0-0.2,0.2-0.4,0.7-0.5h5.8v-3.3v-0.5H134.4z M134.3,322.2l9.5-0.3l1.5-1.8l3.5,2
		c0.2,0.1,0.2,0.3,0,0.5l-1,1.2l0.2,12.4c0.3,3.3-1.1,5.9-4.1,7.6c-0.3,0.1-0.5,0-0.5-0.3c0-1.3-0.5-2.3-1.5-2.8
		c-0.1-0.1-0.2-0.2-0.2-0.3c0-0.1,0.1-0.2,0.3-0.2c1.7,0,2.4-0.4,2.2-1.3l-0.2-15.9l-9.6,0.3l-0.2,4l8.3-0.2c0.3,0,0.5,0.1,0.5,0.3
		c0,0.2-0.1,0.4-0.3,0.5l-8.5,0.3v4.3l8.5-0.3c0.2,0.1,0.3,0.2,0.3,0.3c0,0.2-0.1,0.4-0.3,0.5l-8.5,0.3v5.5
		c-0.2,1.4-0.9,2.8-2.2,4.1c-0.4,0.4-0.7,0.7-0.8,0.7c-0.2,0-0.3-0.2-0.2-0.7l0.2-6.8l0.2-15.6L134.3,322.2z"/>
</g>
</svg>
