<?xml version="1.0" encoding="utf-8"?>
<!-- Generator: Adobe Illustrator 21.0.0, SVG Export Plug-In . SVG Version: 6.00 Build 0)  -->
<svg version="1.1" id="图层_1" xmlns="http://www.w3.org/2000/svg" xmlns:xlink="http://www.w3.org/1999/xlink" x="0px" y="0px"
	 viewBox="0 0 35.3 36.3" style="enable-background:new 0 0 35.3 36.3;" xml:space="preserve">
<style type="text/css">
	.st0{fill:#FFFFFF;}
</style>
<g>
	<g>
		<path class="st0" d="M12.9,16.7c-0.6-0.2-1.4-0.5-2.3-0.6c-2.4-0.5-4.6,0.4-5.8,2.3c-1.1,1.8-1.1,4,0.3,5.7c1.4,1.8,3.3,2.7,5.6,2
			c1.8-0.6,3.5-1,5.3-0.1c1.4,0.7,2.7,1.6,2.9,3.4c0.1,0.5,0.2,1,0.4,1.4c0.9,2.1,3.2,3.1,5.3,2.4c2.1-0.7,3.2-2.8,2.8-4.8
			c-0.5-2.2-2.4-3.6-4.8-3.3c-0.8,0.1-1.5,0.4-2.3,0.6c-2,0.3-4.6-1.1-5.4-2.7c-0.9-2-0.2-4,1.9-5.6c1.7-1.3,3.5-1.9,5.7-1.5
			c1.5,0.3,3.1,0.2,4.6-0.2c3.1-0.9,4.8-3.7,4.3-6.7c-0.5-3.4-3.2-5.8-6.6-5.9c-3-0.1-5.8,2.1-6.4,5.3c-0.2,1.1-0.1,2.3-0.2,3.5
			C18.2,14.1,15.5,16.7,12.9,16.7z"/>
	</g>
</g>
</svg>
