<?xml version="1.0" encoding="utf-8"?>
<!-- Generator: Adobe Illustrator 21.0.0, SVG Export Plug-In . SVG Version: 6.00 Build 0)  -->
<svg version="1.1" id="图层_1" xmlns="http://www.w3.org/2000/svg" xmlns:xlink="http://www.w3.org/1999/xlink" x="0px" y="0px"
	 viewBox="0 0 417 648" style="enable-background:new 0 0 417 648;" xml:space="preserve">
<style type="text/css">
	.st0{fill:#F4F4F4;}
</style>
<g>
	<path class="st0" d="M246.91,323.48c-0.19-1.82-0.39-3.63-0.6-5.62c-5.22,0.72-10.26,1.67-15.34,2.06
		c-5.12,0.39-10.3,0.42-15.43,0.23c-5.04-0.19-10.08-0.67-15.08-1.36c-5.08-0.69-10.11-1.79-15.22-2.72
		c-0.64,1.32-0.25,2.69-0.32,4.02c-0.06,1.35-0.01,2.7-0.01,4.12c0.77,0.16,1.33,0.37,1.88,0.38c6.51,0.05,13.02,0.45,19.51-0.41
		c3.46-0.46,6.91-1.12,10.39-1.42c9.23-0.79,18.44-0.94,27.5,1.46c1.21,0.32,2.38,0.76,3.7,1.19c-0.56,3.21-3.54,2.62-5.88,3.91
		c2.24,0.31,3.95,0.55,5.66,0.79c0.01,0.17,0.03,0.35,0.04,0.52c-0.97,0.21-1.94,0.41-2.91,0.62c-0.01,0.12-0.02,0.23-0.03,0.35
		c1.48,0.36,2.95,0.73,4.38,1.08c0.66,2.19,0.35,3-1.59,3.49c-2.26,0.57-4.56,0.95-6.84,1.43c-0.46,0.1-0.91,0.24-1.4,0.78
		c0.37,0.09,0.73,0.23,1.1,0.25c1.75,0.08,3.5,0.1,5.24,0.19c0.57,0.03,1.15,0.13,1.71,0.28c0.26,0.07,0.47,0.3,1.04,0.68
		c-1.31,0.14-2.3,0.24-3.59,0.38c1.34,1.37,3.24,0.78,4.63,1.94c0.03,0.38,0.27,1.02,0.07,1.46c-0.26,0.57-0.79,1.2-1.35,1.4
		c-1.46,0.51-2.97,0.93-4.5,1.15c-8.48,1.18-17,1.92-25.57,1.43c-2.71-0.16-5.4-0.62-8.11-0.85c-1.63-0.13-3.3-0.27-4.91-0.07
		c-6.36,0.79-12.7,1.73-19.05,2.59c-1.06,0.14-2.13,0.26-3.19,0.21c-1.78-0.08-2.77-1.11-3.03-2.94c-0.24-1.74,0.52-3.07,2.2-3.63
		c0.73-0.25,1.51-0.38,2.28-0.48c7.71-0.97,15.42-1.93,23.13-2.86c1.44-0.17,2.91-0.17,4.36-0.29c1.14-0.1,2.27-0.26,3.4-0.61
		c-1.99-0.63-4.03-0.78-6.06-0.96c-3.71-0.32-7.37,0.26-11.03,0.74c-4.33,0.57-8.64,1.3-12.96,1.94c-0.57,0.09-1.16,0.15-1.74,0.15
		c-2.09-0.01-3.31-1.07-3.56-3.07c-0.25-1.89,0.76-3.41,2.79-3.79c2.57-0.49,5.18-0.84,7.78-1.15c5.78-0.69,11.58-1.32,17.37-1.98
		c1.14-0.13,2.26-0.33,3.41-1c-0.71-0.17-1.41-0.45-2.12-0.51c-7.75-0.58-15.46-1.57-23.26-1.29c-4.19,0.15-4.72-0.47-4.81-4.59
		c-0.07-3.01-0.11-6.02-0.18-9.03c0-0.19-0.09-0.38-0.17-0.69c-4.54-4.18-7.58-9.44-9.23-15.45c-0.74-2.7-1.28-5.51-1.43-8.3
		c-0.28-5.26-1.71-10.13-4.23-14.7c-3.19-5.78-6.48-11.51-9.64-17.31c-3.94-7.25-7.91-14.49-11.66-21.85
		c-3.72-7.3-6.41-14.98-7.97-23.05c-3.15-16.39-0.73-31.91,7.34-46.49c5.16-9.31,11.42-17.85,19.27-25.1
		c9.48-8.76,20.56-14.75,33.19-17.32c23.51-4.79,45.43-0.76,65.12,13.26c13.09,9.33,21.7,22.04,26.78,37.22
		c3.14,9.41,4.65,19.05,4.05,28.96c-0.65,10.82-3.6,21.03-8.56,30.64c-3.74,7.25-7.7,14.38-11.52,21.59
		c-2.5,4.72-4.93,9.47-7.4,14.21c-3.97,7.62-6.08,15.7-6.24,24.32c-0.15,7.81-2.82,14.63-8.6,20.05c-1.45,1.36-2.12,2.93-2.04,4.92
		C247.93,320.51,247.93,322.06,246.91,323.48z M247.71,313.21c5.37-4.8,8.05-10.6,8.25-17.59c0.08-2.62,0.16-5.25,0.5-7.84
		c0.94-7.19,3.39-13.94,6.37-20.51c3.7-8.14,7.97-15.99,12.35-23.78c3.72-6.6,7.29-13.28,9.85-20.45c5.33-14.92,6.1-30,1.23-45.17
		c-3.83-11.94-10.25-22.4-18.94-31.43c-9.27-9.64-20.47-15.92-33.51-18.94c-11.03-2.55-22.13-2.73-33.3-1.14
		c-22.3,3.18-42.93,18.78-51.96,39.29c-2.76,6.27-4.38,12.84-5.22,19.63c-1.14,9.24-0.91,18.41,1.15,27.52
		c1.59,7.06,4.2,13.72,7.5,20.14c6.36,12.35,12.68,24.71,19.01,37.07c3.15,6.16,4.9,12.65,4.67,19.62
		c-0.12,3.62,0.41,7.18,1.26,10.68c0.98,4.07,2.38,7.99,4.71,11.67c4.75,0.18,9.49,0.37,14.26,0.55c0.26-0.76,0.53-1.28,0.62-1.84
		c1.18-6.8,1.99-13.65,2.42-20.53c0.65-10.39,0.69-20.78,0.45-31.18c-0.02-0.96,0-1.92,0-2.71c0.98-0.87,1.77-1.57,2.71-2.41
		c-0.57-2.18-1.01-4.37-1.73-6.46c-2.51-7.35-5.14-14.66-7.67-22c-0.55-1.61-1.37-2.94-2.59-4.13c-2.86-2.81-5.31-5.94-7.11-9.54
		c-1.58-3.17-2.5-6.51-2.66-10.06c-0.15-3.45,1.25-5.98,4.31-7.63c2.98-1.61,5.9-1.76,8.81,0.16c1.13,0.75,2.29,1.44,3.47,2.18
		c2-1.41,4.02-2.25,6.09-0.6c1.06-0.5,1.92-0.93,2.82-1.31c3.54-1.5,5.45-1.15,8.16,1.53c0.9,0.89,1.67,1.9,2.59,2.76
		c2.27,2.13,4.68,2.35,7.44,0.72c0.24-0.78,0.46-1.63,0.76-2.45c0.33-0.91,0.66-1.84,1.13-2.68c1.13-2.02,2.35-2.34,4.31-1.17
		c0.75,0.44,1.43,0.99,2.21,1.54c2.91-0.48,4.75,1.06,6.13,3.41c0.39,0.67,0.79,1.35,1.25,1.96c0.51,0.68,1.11,1.29,1.65,1.9
		c1.9-0.39,3.22-1.76,5.14-1.98c0.23,2.18,0.49,4.19,0.11,6.21c-1.05,5.53-3.11,10.64-6.91,14.88c-1.41,1.58-2.29,3.33-2.85,5.32
		c-2.33,8.42-4.68,16.84-7.01,25.26c-0.22,0.81-0.33,1.66-0.52,2.64c3.05,0.52,3.56,2.56,3.38,5.03c-0.02,0.29-0.01,0.58-0.01,0.87
		c-0.29,16.52-0.58,33.03-0.87,49.55c-0.01,0.85,0,1.7,0,2.73C237.29,313.11,242.42,313.05,247.71,313.21z M226.2,254.7
		c0.15-0.44,0.29-0.79,0.39-1.15c1.73-6.36,3.45-12.72,5.17-19.09c1.59-5.88,3.58-11.66,3.88-17.85c0.18-3.75,2.03-7.05,3.71-10.33
		c0.47-0.92,0.94-1.84,1.29-2.53c-1.27-1.65-2.33-3.04-3.39-4.41c-0.98-1.26-2.08-2.3-4.03-2.04c-1,1.47-2,3.02-3.08,4.5
		c-1.09,1.52-1.81,3.15-2.24,4.99c-1.34,5.76-2.83,11.48-4.23,17.23c-0.2,0.83-0.27,1.69-0.44,2.79c1.03,0.83,2.09,1.68,3.18,2.56
		c-0.43,0.95-0.57,1.84-1.09,2.3c-1.27,1.14-2.72,2.1-4.18,3.19c-0.85,5.81-0.32,11.84-1.56,17.76c-0.4-0.55-0.65-1.12-0.68-1.7
		c-0.24-4.46-0.43-8.92-0.66-13.38c-0.04-0.85-0.16-1.69-0.24-2.54c-1.8-0.76-3.32-1.84-5.2-1.98c-0.52,2.9-0.63,8.76-0.12,11.41
		c0.33,1.71,0.83,3.38,1.28,5.06c0.4,1.47,1.25,2.55,2.68,3.24c1.02,0.49,1.91,1.25,2.95,1.95
		C221.71,254.7,223.93,254.7,226.2,254.7z M198.16,202.91c-0.64,0.05-1.22,0.09-1.8,0.13c-2.61,0.2-4.96-0.47-7.17-1.9
		c-1.72-1.11-2.49-1.04-4.22-0.02c0.98,1.22,1.92,2.44,2.91,3.62c2.22,2.64,3.86,5.6,4.61,8.97c1.24,5.62,3.3,10.94,5.53,16.21
		c2.95,6.98,5.31,14.15,6.68,21.62c0.09,0.48,0.09,1,0.3,1.42c0.21,0.43,0.62,0.76,1.04,1.24c2.79-7.27,3.65-14.49,2.94-22.21
		c-0.93-0.25-1.94-0.48-2.93-0.79c-2.41-0.77-2.76-2.3-0.94-4.05c0.89-0.85,1.82-1.66,2.66-2.42c-1.39-5.76-3.08-11.11-5.15-16.34
		C201.72,206.15,200.47,204.29,198.16,202.91z M224.86,257.64c-0.49,0-0.97-0.06-1.42,0.01c-3.07,0.44-6.16,0.82-9.21,1.4
		c-2.01,0.38-3.84,0.25-5.64-0.73c-0.46-0.25-1.04-0.29-1.71-0.46c-0.09,0.88-0.19,1.54-0.21,2.2c-0.04,1.94-0.04,3.89-0.05,5.83
		c-0.08,10.79-0.16,21.57-0.21,32.36c0,0.87-0.27,1.83,0.41,2.78c1.28-2.46,1.59-3.56,1.59-6.3c0-4.08-0.09-8.16-0.13-12.24
		c-0.01-0.78-0.05-1.56,0.02-2.33c0.15-1.69,0.79-2.65,2.44-2.77c2.6-0.2,5.23-0.14,7.84-0.05c1.35,0.05,2.07,1.02,2.22,2.31
		c0.13,1.06,0.18,2.13,0.15,3.19c-0.18,8.55-0.39,17.1-0.57,25.65c-0.02,0.94-0.34,1.94,0.35,2.83c0.54,0,1.08,0,1.82,0
		c-0.17-2.27-0.31-4.38-0.5-6.49c-0.62-6.95,0.06-13.76,1.97-20.47c0.47-1.65,0.69-3.43,0.69-5.15c0.01-5.15-0.17-10.3-0.2-15.45
		C224.52,261.84,224.73,259.91,224.86,257.64z M209.64,225.04c2.1,0.53,9.56,0.94,11.5,0.64c1.03-3.13,3.8-20.51,3.58-22.58
		c-0.85,0.17-1.7,0.37-2.55,0.49c-3.58,0.5-6.49-0.67-8.71-3.54c-0.3-0.38-0.54-0.81-0.83-1.2c-2.15-2.85-4.24-3.1-7.23-0.78
		c-0.17,0.94-0.3,2.01-0.57,3.03c-0.64,2.37-0.12,4.54,0.71,6.78c1.17,3.18,2.23,6.42,3.04,9.71
		C209.18,220.02,209.3,222.56,209.64,225.04z M218.5,311.24c0.36-3.59-0.4-28.8-0.88-30.75c-2.08-0.18-4.17-0.2-6.32,0.31
		c-0.04,0.68-0.11,1.25-0.11,1.82c0.01,3.3-0.05,6.61,0.08,9.91c0.1,2.42,0.13,4.91,0.76,7.22c0.96,3.48,1.7,6.96,2.05,10.54
		c0.02,0.17,0.2,0.32,0.4,0.64C215.7,311.01,217.02,311.12,218.5,311.24z M230.74,312.45c0-0.93,0.01-1.77,0-2.61
		c-0.07-4.56-0.15-9.11-0.21-13.67c-0.07-5.43-0.12-10.86-0.21-16.29c-0.01-0.45-0.25-0.9-0.38-1.35c-0.54,2.58-0.68,5.09-0.62,7.6
		c0.07,3.39,0.24,6.78,0.44,10.17c0.29,5.15-0.15,10.27-0.67,15.38c-0.03,0.25,0.14,0.52,0.24,0.87
		C229.72,312.52,230.09,312.49,230.74,312.45z M223.15,318.08c5.77,0.77,16.78-0.61,20.12-2.52
		C238.68,314.58,229.34,315.75,223.15,318.08z M184.45,345.42c0,0.12-0.01,0.25-0.01,0.37c0.18,0.05,0.36,0.15,0.53,0.13
		c4.43-0.49,8.86-0.98,13.29-1.49c2.99-0.35,5.97-0.72,8.95-1.09c0.58-0.07,1.26-0.04,1.61-1.16
		C200.5,343.28,192.48,344.35,184.45,345.42z M189,336.44c6.13-0.72,12.26-1.43,18.39-2.17c0.22-0.03,0.41-0.35,0.99-0.87
		C201.52,334.06,195.14,334.9,189,336.44z M197.61,317.08c-1.58-1.82-2.36-1.95-7.42-1.29C192.83,316.79,195.1,317.01,197.61,317.08
		z M212.52,229.01c0.15-0.07,0.29-0.14,0.44-0.2c-0.07-0.06-0.13-0.17-0.2-0.17c-0.17,0-0.34,0.05-0.52,0.07
		C212.34,228.81,212.43,228.91,212.52,229.01z M185.08,336.82c-0.01-0.07-0.01-0.14-0.02-0.21c-0.26,0.01-0.51,0.03-0.77,0.04
		c0.01,0.08,0.01,0.17,0.02,0.25C184.56,336.87,184.82,336.84,185.08,336.82z"/>
	<path class="st0" d="M384.93,19.89c0.49,1.06,1.07,1.96,1.33,2.95c2.48,9.18,4.91,18.37,7.32,27.56c0.16,0.62,0.13,1.3,0.21,2.26
		c-4.17-1.47-7.73-3.63-11.82-5.18c-0.68,0.81-1.36,1.6-2.02,2.4c-5.67,6.87-12.18,12.78-19.89,17.32
		c-11.17,6.58-23.31,9.39-36.19,9.35c-0.37,0-0.75-0.11-1.38-0.22c0.86-0.92,1.84-0.93,2.7-1.16c4.32-1.16,8.53-2.6,12.58-4.51
		c12-5.68,20.98-14.52,27.34-26.09c0.68-1.24,1.59-2.47,1.34-4.33c-3.18-2.3-7.21-3.35-10.63-5.54
		C358.39,32.16,377.98,22.14,384.93,19.89z"/>
	<path class="st0" d="M226.66,380.93c0.52,0.98,0.97,1.82,1.4,2.64c-2.77,4.86-8.31,7.15-13.45,5.2c-3.77-1.43-7.6-2.32-11.55-2.86
		c-0.57-0.08-1.14-0.25-1.7-0.41c-3.09-0.84-3.46-1.3-3.73-4.87c-5.73-5.23-11.6-10.58-17.38-15.85c0.32-2.53,0.76-3.07,2.67-3.29
		c0.77-0.09,1.55-0.06,2.33-0.07c12.82-0.17,25.65-0.3,38.47-0.52c7.38-0.13,14.75-0.62,22.08-1.6c1.06-0.14,2.12-0.26,3.19-0.29
		c0.52-0.02,1.05,0.19,1.85,0.35c-0.98,1.49-2.18,2.32-3.27,3.22c-3.23,2.65-6.53,5.22-9.72,7.91c-1.45,1.22-3.15,2.24-3.85,4.24
		c-0.23,0.64-1.08,1.08-1.68,1.58C230.45,377.84,228.57,379.36,226.66,380.93z M185.85,365.67c1.54,1.3,3.02,2.68,4.64,3.87
		c0.65,0.48,1.62,0.67,2.45,0.71c0.95,0.04,1.92-0.19,2.87-0.39c11.05-2.37,22.14-2.75,33.29-0.86c2.27,0.39,4.49,1.04,6.88,1.6
		c1.31-1.17,2.72-2.37,4.05-3.63c1.37-1.29,3.03-2.32,4.27-4.28C224.69,364.52,205.37,364.68,185.85,365.67z M231.42,374.82
		c-0.12-0.18-0.25-0.35-0.37-0.53c-1.71,0.23-3.42,0.45-5.12,0.71c-1.39,0.21-2.77,0.48-4.67,0.81c2.31,1.36,4.33,2.07,6.51,2.65
		C229.02,377.22,230.22,376.02,231.42,374.82z M197.16,375.38c1.91,2.94,3.73,3.07,7.01,0.73
		C201.89,375.48,199.71,375.42,197.16,375.38z"/>
	<path class="st0" d="M248.54,349.75c-1.29,0-2.4,0-3.91,0c1.49,1.26,3.05,0.98,4.3,1.57c1.03,2.16,0.73,3.05-1.42,3.58
		c-2.07,0.51-4.18,0.89-6.28,1.21c-10.32,1.59-20.65,1.92-31.02,0.27c-2.07-0.33-4.27-0.24-6.37,0.02
		c-6.26,0.77-12.49,1.72-18.73,2.59c-0.67,0.09-1.36,0.16-2.03,0.12c-1.9-0.11-3.03-1.21-3.26-3.09c-0.22-1.81,0.68-3.22,2.56-3.66
		c1.41-0.33,2.87-0.47,4.32-0.6c11.59-1.09,23.18-2.14,34.77-3.24c8.15-0.77,16.29-0.02,24.44,0.03
		C246.8,348.56,247.87,348.41,248.54,349.75z M184.54,355.67c2.67-0.33,5.33-0.67,8-0.98c2.79-0.32,5.61-0.48,8.38-0.95
		c2.6-0.44,5.32-0.24,8.23-1.37C206.37,351.96,188.09,354.32,184.54,355.67z"/>
</g>
<g>
	<g>
		<path class="st0" d="M270.22,438.31c0,2.48,0.02,4.84,0,7.2c-0.03,2.93-0.09,5.85-0.13,8.78c-0.04,3.14-0.07,6.28-0.11,9.41
			c-0.02,1.54-0.71,2.54-2.21,2.97c-0.93,0.27-1.92,0.35-3.02,0.54c1.85,1.2,1.77,2.98,1.41,4.91c0.43-0.07,0.67-0.07,0.88-0.15
			c4.83-1.97,7.82-6.53,7.59-11.74c-0.27-6.03,0.1-12.05,0.15-18.07c0.01-1.51,0.33-2.75,1.32-3.84c0.14-0.15,0.21-0.35,0.37-0.63
			c-1.43-0.94-2.83-1.86-4.32-2.83c-0.55,0.68-1.04,1.36-1.61,1.98c-0.24,0.26-0.61,0.51-0.94,0.53c-2.36,0.14-4.71,0.22-7.23,0.33
			c1.21-2.09,2.35-4.06,3.54-6.12c-1.26-0.74-2.64-1.56-4.09-2.41c-1.76,6.27-3.9,12.28-7.84,17.71c-0.06-0.38-0.13-0.59-0.13-0.8
			c-0.01-1.23,0.05-2.47-0.02-3.7c-0.06-1.02,0.18-1.86,0.91-2.58c0.22-0.22,0.39-0.49,0.65-0.82c-1.4-0.89-2.78-1.77-4.25-2.7
			c-0.48,0.53-0.9,1.05-1.38,1.5c-0.24,0.22-0.58,0.47-0.87,0.47c-1.83,0.04-3.66,0.02-5.59,0.02c-0.07-0.15-0.19-0.43-0.32-0.71
			c2.96-1.67,5.86-3.32,8.91-5.05c-0.83-1.17-1.98-2.13-3.01-3.38c-1.95,2.91-4.11,5.53-6.61,8c-0.55-0.34-1.07-0.68-1.62-0.99
			c-0.78-0.44-1.06-0.26-1.06,0.65c0.03,5.18,0.12,10.37,0.06,15.55c-0.06,5.89-0.26,11.77-0.39,17.65c-0.01,0.63,0,1.25,0,1.88
			c0.08,0.05,0.15,0.11,0.23,0.16c0.35-0.24,0.75-0.44,1.03-0.74c1.36-1.49,2.11-3.23,2.11-5.27c0-0.66,0-1.33,0-2.05
			c2.12,0,4.15,0,6.33,0c0.37,1.18,0.75,2.38,1.12,3.58c0.08,0.27,0.14,0.55,0.23,0.81c0.19,0.54,0.57,0.58,1.01,0.32
			c0.18-0.1,0.33-0.26,0.46-0.43c1.45-1.87,2.32-3.98,2.18-6.36c-0.24-4.3-0.38-8.59-0.13-12.89c0.03-0.58,0.2-1,0.59-1.39
			c2.56-2.54,4.84-5.31,6.9-8.28c0.18-0.26,0.53-0.53,0.82-0.55C264.79,438.6,267.47,438.47,270.22,438.31z M242.76,450.42
			c1.98-0.09,3.76-0.17,5.6-0.26c0-0.34,0-0.58,0-0.81c-1.86,0-3.65,0-5.4,0c0-3.28,0-6.5,0-9.86c2.3,0,4.47,0,6.73,0
			c-0.12,7.73-0.23,15.46-0.35,23.21c-2.32,0-4.46,0-6.57,0C242.76,458.6,242.76,454.55,242.76,450.42z"/>
		<path class="st0" d="M189.23,439.52c-1.34-0.85-2.66-1.68-4.02-2.54c-0.52,0.61-0.98,1.19-1.48,1.73
			c-0.18,0.19-0.44,0.42-0.67,0.42c-2.07,0.03-4.15,0.02-6.37,0.02c0-0.56-0.03-1.22,0.01-1.88c0.03-0.58-0.14-1-0.61-1.37
			c-0.57-0.46-1.07-1-1.56-1.71c6.31-0.06,12.62-0.11,19.2-0.17c-1.11-1.61-2.5-2.62-3.69-3.98c-0.69,0.77-1.39,1.45-1.97,2.23
			c-0.5,0.67-1.13,0.86-1.91,0.87c-3.24,0.02-6.49,0.06-9.73,0.1c-6.49,0.07-12.98,0.14-19.46,0.21c-0.16,0-0.32,0.02-0.61,0.04
			c0.9,0.86,1.7,1.27,2.96,1.13c2.34-0.27,4.71-0.24,7.07-0.29c2.08-0.04,4.15-0.01,6.31-0.01c0,1.61,0,3.22,0,4.96
			c-0.37,0.03-0.78,0.07-1.18,0.08c-1.66,0.05-3.31,0.06-4.97,0.13c-0.74,0.03-1.37-0.14-1.98-0.57c-0.71-0.5-1.47-0.92-2.22-1.39
			c-0.35,0.83-0.47,14.58-0.2,16.75c1.67,0.48,2.56-0.63,3.49-1.84c2.29,0,4.61,0,7.08,0c-0.25,3.34-0.89,6.59-2.77,9.6
			c-2.92-1.81-4.82-4.33-5.87-7.59c-0.25,0.08-0.46,0.15-0.73,0.23c1.13,3.42,2.53,6.62,4.94,9.43c-0.7,0.57-1.32,1.13-2,1.62
			c-3.56,2.58-7.49,4.47-11.45,6.33c-0.55,0.26-1.08,0.57-1.74,0.93c0.59,0.47,1,0.28,1.41,0.1c5.13-2.25,10.31-4.39,15.05-7.42
			c0.05-0.03,0.13-0.03,0.2-0.05c4.83,4.4,13.83,6.08,19.09,6.38c1.82-2.28,3.88-4.32,7.03-4.79c-0.01-0.07-0.02-0.14-0.03-0.21
			c-0.24-0.03-0.48-0.09-0.72-0.1c-4.3-0.06-8.6-0.23-12.86-0.85c-3.18-0.47-6.31-1.13-9.26-2.47c-0.25-0.12-0.5-0.25-0.83-0.41
			c2.78-3.06,3.55-6.84,4.05-10.86c2.23,0,4.43,0,6.62,0c0.4,0.75,0.79,1.54,1.23,2.29c0.54,0.92,0.95,0.97,1.73,0.22
			c1.45-1.41,2.29-3.12,2.28-5.17c-0.01-2.11-0.05-4.23-0.13-6.34c-0.04-1.18-0.09-2.33,0.98-3.16
			C189.01,440.05,189.06,439.85,189.23,439.52z M182.53,444.91c-2.03,0-3.98,0-5.98,0c0-1.57,0-3.06,0-4.6c2.3,0,4.54,0,6.9,0
			c0,3.61,0,7.15,0,10.8c-2.4,0-4.78,0-7.21,0c0.1-1.71,0.2-3.41,0.31-5.19c0.42,0,0.77,0,1.11,0c1.27,0,2.54-0.01,3.81,0
			C182.07,445.93,182.5,445.77,182.53,444.91z M172.78,451.27c-2.52,0-4.86,0-7.23,0c0-1.7,0-3.4,0-5.22c2.43,0,4.77,0,7.23,0
			C172.78,447.73,172.78,449.4,172.78,451.27z M172.71,444.89c-2.44,0-4.81,0-7.19,0c0-1.52,0-2.95,0-4.39c2.42,0,4.79,0,7.19,0
			C172.71,441.98,172.71,443.38,172.71,444.89z"/>
		<path class="st0" d="M176.29,491.38c-0.64-0.94-1.59-1.57-2.46-2.42c-1.02,0.99-1.78,2.44-3.64,1.71
			c-0.17-1.71-0.23-3.5,0.93-5.29c-1.52-0.76-2.94-1.47-4.61-2.3c-0.09,2.73,0,5.21-0.07,7.88c-2.43,0-4.8,0-7.38,0
			c0.78,1.09,1.5,1.45,2.64,1.28c1.55-0.24,3.14-0.24,4.83-0.35c0,2.05,0,4.01,0,6.12c-2.78,0.12-5.64,0.25-8.72,0.39
			c0.47,0.57,0.8,0.96,1.02,1.23c2.54-0.17,4.95-0.33,7.42-0.49c0,5.89,0,11.65,0,17.55c-1.31-1.05-2.16-2.29-2.89-3.61
			c-0.15-0.27-0.08-0.68-0.06-1.02c0.11-1.37,0.21-2.74,0.38-4.1c0.1-0.82,0.3-1.64,0.48-2.58c-0.99-0.39-2.06-0.81-3.34-1.31
			c0,0.55,0.02,0.95,0,1.35c-0.13,2.85-0.15,5.71-0.41,8.55c-0.43,4.79-2.62,8.79-5.92,12.22c-0.37,0.39-0.71,0.82-1.16,1.34
			c1.1-0.12,4.05-2.87,6.07-5.52c1.66-2.17,3-4.51,3.56-7.46c0.22,0.45,0.37,0.71,0.48,0.98c0.68,1.68,1.55,3.24,2.73,4.62
			c1.73,2.02,3.88,3.27,6.55,3.45c3.97,0.27,7.95,0.48,11.93,0.65c1.94,0.08,3.88,0.01,5.63,0.01c0.91-1.16,1.59-2.32,2.54-3.16
			c0.91-0.8,2.11-1.28,3.21-1.91c-0.19-0.5-0.64-0.34-1.05-0.32c-5.21,0.24-10.42,0.56-15.63,0.67c-2.92,0.06-5.85-0.07-8.72-0.77
			c-0.31-0.07-0.61-0.17-0.9-0.25c0-6.43,0-12.84,0-19.36c2.65-0.14,5.19-0.27,7.72-0.4c0.04-0.09,0.08-0.18,0.12-0.27
			c-0.81-1.02-1.86-1.81-2.99-2.92c-0.69,0.79-1.22,1.72-2.02,2.19c-0.66,0.38-1.64,0.2-2.51,0.28c0-2.06,0-4.05,0-6.15
			c2.09-0.09,4.08-0.17,6.07-0.25C176.18,491.54,176.24,491.46,176.29,491.38z"/>
		<path class="st0" d="M205.6,604.32c-0.37,0.14-0.66,0.26-0.96,0.37c-2.09,0.76-3.15,2.33-3.33,4.47
			c-0.16,1.97,0.75,3.47,2.37,4.54c1.49,0.98,3.05,0.89,4.65,0.28c4.08-1.55,8.17-3.08,12.25-4.62c0.69-0.26,1.37-0.56,2.08-0.78
			c2.8-0.84,4.14-4.37,3.12-6.69c-1.2-2.73-4.04-3.84-6.86-2.57c-0.09,0.04-0.19,0.07-0.39,0.15c-2.16-2.65-4.9-3.9-8.28-2.65
			C206.89,598.07,205.58,600.77,205.6,604.32z"/>
		<path class="st0" d="M313.48,469.36c1.28-0.66,2.32-1.35,3.47-1.77c1.1-0.4,2.3-0.52,3.46-0.76c0.02-0.09,0.03-0.18,0.05-0.26
			c-0.34-0.21-0.66-0.44-1.01-0.63c-4.87-2.66-9.3-5.86-12.88-10.16c-4.09-4.92-6.42-10.56-6.99-16.93
			c-0.1-1.09-0.13-2.18-0.18-3.27c-0.04-0.92-0.15-1.86,1.17-2.5c-2.26-1.21-4.25-2.27-6.42-3.44c-0.05,0.86-0.12,1.5-0.13,2.15
			c-0.1,5.01-0.47,9.99-1.38,14.93c-1.29,7.02-4.26,13.19-9.38,18.21c-2.11,2.07-4.39,3.96-6.59,5.94
			c-0.29,0.26-0.55,0.56-0.83,0.85c0.05,0.09,0.11,0.17,0.16,0.26c0.27-0.09,0.56-0.14,0.8-0.28c10.78-6.5,17.91-15.65,20.26-28.18
			c0.49-2.62,0.61-5.31,0.9-7.97c0.03-0.25,0.08-0.5,0.12-0.75c0.07,0,0.14,0.01,0.21,0.01c0.09,1.52,0.17,3.04,0.28,4.56
			c0.29,4.08,0.74,8.14,1.78,12.11c1.64,6.22,5.2,11.19,10,15.35C311.38,467.72,312.47,468.55,313.48,469.36z"/>
		<path class="st0" d="M229.96,500.93c-1.53-0.93-2.97-1.81-4.49-2.74c-0.56,0.64-1.14,1.25-1.65,1.91
			c-0.36,0.46-0.75,0.66-1.34,0.64c-1.37-0.04-2.75-0.01-4.2-0.01c0-2.73,0-5.38,0-8.17c4.92-0.12,9.83-0.25,15.01-0.37
			c-1.16-1.25-2.13-2.29-3.19-3.43c-0.76,0.76-1.46,1.48-2.2,2.16c-0.26,0.24-0.64,0.5-0.97,0.51c-2.71,0.1-5.43,0.14-8.14,0.2
			c-0.14,0-0.28-0.03-0.59-0.06c0.19-2.3-0.67-4.69,1.15-6.93c-1.98-0.47-3.79-0.9-5.7-1.34c0.09,5.85,0.19,11.57,0.28,17.4
			c-1.29,0.04-2.45,0.01-3.59,0.13c-1.36,0.14-2.56-0.12-3.68-0.9c-0.53-0.37-1.14-0.64-1.73-0.96c-0.28,0.76-0.48,17.02-0.26,18.59
			c0.04,0.25,0.18,0.49,0.32,0.86c2.56-1.14,3.47-3.17,3.67-5.69c3.51,0,6.95-0.05,10.4,0.01c3.39,0.06,6.78,0.25,10.28,0.38
			c-0.8-3.06-0.42-6.02-0.65-8.96c-0.08-1.02,0.11-1.87,0.83-2.6C229.67,501.41,229.76,501.22,229.96,500.93z M208.65,511.39
			c0-3.11,0-6.19,0-9.41c4.99-0.12,9.93-0.24,14.92-0.36c0,3.28,0,6.46,0,9.77C218.59,511.39,213.68,511.39,208.65,511.39z"/>
		<path class="st0" d="M197.3,473.08c3.91-1.26,7.74-2.75,11.52-4.36c3.79-1.62,7.5-3.42,11.14-5.71c0.67,1.13,1.4,2.2,1.96,3.35
			c1.03,2.13,2.11,1.79,3.23,0.25c0.21-0.28,0.42-0.57,0.6-0.87c0.75-1.28,0.65-2.11-0.44-3.09c-0.68-0.61-1.41-1.17-2.13-1.76
			c3.42-2.9,6.83-5.79,10.37-8.78c-1.53-1.02-2.99-2-4.53-3.03c-0.5,0.41-0.99,0.87-1.53,1.24c-0.36,0.25-0.8,0.53-1.21,0.54
			c-1.65,0.06-3.31,0.03-5.05,0.03c1.19-1,2.38-1.98,3.75-3.13c-1.48-0.93-2.77-1.74-4.13-2.6c-0.5,0.57-0.96,1.09-1.42,1.62
			c-4.95,5.66-10.59,10.54-16.69,14.91c-0.36,0.26-0.94,0.42-0.74,1.21c0.33-0.13,0.61-0.22,0.87-0.36
			c5.42-2.95,10.67-6.19,15.64-9.86c0.54-0.4,1.08-0.59,1.75-0.61c2.04-0.06,4.07-0.17,6.15-0.26c-0.66,1.3-4.18,5.07-6.32,6.79
			c-0.77-0.51-1.54-1.06-2.35-1.54c-0.79-0.48-1.5-1.16-2.66-1.25c1.06,1.53,2.03,2.93,3.06,4.41c-0.35,0.31-0.65,0.59-0.96,0.85
			c-5.32,4.39-11.29,7.67-17.65,10.3c-0.62,0.26-1.25,0.48-1.85,0.77c-0.25,0.13-0.43,0.4-0.64,0.61
			C197.14,472.88,197.22,472.98,197.3,473.08z"/>
		<path class="st0" d="M137.13,429.71c0,12.98,0,25.73,0,38.58c-3.44,0.12-6.77,0.24-10.28,0.36c0.59,0.46,1.07,0.84,1.69,1.33
			c3.49-0.6,7.34-0.45,11.17-0.59c5.25-0.19,10.5-0.34,15.74-0.51c0.2-0.01,0.4-0.07,0.79-0.15c-1.08-1.38-2.47-2.2-3.69-3.37
			c-0.83,0.92-1.61,1.78-2.4,2.65c-3.05,0-6,0-9.09,0c0.12-6.96,0.24-13.92,0.36-21c4.14-0.13,8.23-0.26,12.33-0.39
			c0.05-0.09,0.09-0.19,0.14-0.28c-1.09-1.23-2.38-2.27-3.58-3.5c-0.72,0.81-1.38,1.53-2.01,2.28c-0.34,0.41-0.69,0.62-1.25,0.61
			c-1.82-0.04-3.65-0.01-5.62-0.01c0.24-4.56-0.3-9.23,0.68-13.91C140.48,431.13,138.9,430.46,137.13,429.71z"/>
		<path class="st0" d="M274.9,516.63c-0.15,0.26-0.34,0.51-0.44,0.79c-0.57,1.55-1.68,2.59-3.17,3.23c-2.53,1.09-5.21,1.18-7.9,0.98
			c-1.22-0.09-1.52-0.62-1.25-1.79c0.64-2.85,1.24-5.71,1.97-8.54c0.23-0.88,0.81-1.67,1.31-2.64c-1.23-0.65-2.55-1.35-3.96-2.1
			c-0.45,0.57-0.93,1.08-1.31,1.66c-0.33,0.5-0.75,0.68-1.31,0.71c-1.62,0.08-3.24,0.21-4.86,0.26c-0.43,0.01-0.9-0.11-1.3-0.29
			c-1.04-0.49-2.05-1.04-3.19-1.63c-0.11,1.75-0.25,3.35-0.31,4.96c-0.18,4.76-2.23,8.51-6.04,11.33c-2.18,1.61-4.6,2.72-7.13,3.63
			c-0.37,0.13-0.85,0.15-0.84,0.88c0.6-0.15,1.13-0.28,1.65-0.43c3.93-1.1,7.67-2.61,10.83-5.29c3.47-2.94,5.28-6.7,5.57-11.22
			c0.01-0.21,0.05-0.42,0.09-0.79c2.11-0.12,4.23-0.24,6.49-0.36c-0.1,1.77-0.2,3.44-0.3,5.12c-0.12,2.11-0.29,4.22-0.37,6.33
			c-0.11,2.74,1.08,4.26,3.8,4.45c4.12,0.29,8.25,0.13,12.26-1.04c0.79-0.23,1.51-0.57,1.99-1.29c0.6-0.9,0.59-1.61-0.3-2.19
			c-1.45-0.95-1.75-2.28-1.59-3.86c0.03-0.27-0.03-0.56-0.05-0.83C275.14,516.66,275.02,516.65,274.9,516.63z"/>
		<path class="st0" d="M206.6,543.35c-0.96,0-1.83,0-2.79,0c0,3.32,0,6.61,0,9.95c0.74,0,1.43,0,2.2,0c0-1.95,0-3.84,0-5.74
			c0.08-0.03,0.17-0.05,0.25-0.08c0.72,1.6,1.43,3.21,2.16,4.84c0.54,0,1.06,0,1.71,0c0.69-1.56,1.41-3.18,2.12-4.8
			c0.07,0.01,0.14,0.02,0.21,0.03c0,1.88,0,3.75,0,5.71c1.55,0,2.97,0,4.5,0c0.23-0.52,0.49-1.09,0.75-1.68c1.42,0,2.83,0,4.31,0
			c0.22,0.54,0.44,1.09,0.68,1.69c1.62,0,3.21,0,4.91,0c0-0.88,0-1.72,0-2.68c0.44,0,0.78,0.01,1.12,0
			c0.53-0.02,1.06-0.02,1.58-0.08c1.94-0.25,3.05-1.5,3.13-3.5c0.08-1.93-0.93-3.2-2.86-3.59c-0.34-0.07-0.7-0.1-1.05-0.11
			c-1.47-0.01-2.95,0-4.52,0c0,2.8,0,5.49,0,8.19c-0.08,0.02-0.16,0.04-0.25,0.06c-1.15-2.72-2.29-5.44-3.45-8.2
			c-0.9,0-1.77,0-2.71,0c-1.18,2.73-2.36,5.48-3.55,8.23c-0.07-0.01-0.14-0.03-0.2-0.04c0-2.7,0-5.39,0-8.16c-1,0-1.9,0-2.9,0
			c-0.84,1.82-1.7,3.7-2.65,5.76C208.35,547.14,207.49,545.27,206.6,543.35z M227.66,545.44c0.71,0,1.34-0.04,1.96,0.01
			c0.84,0.07,1.34,0.66,1.35,1.48c0.01,0.82-0.47,1.43-1.29,1.52c-0.65,0.07-1.31,0.01-2.02,0.01
			C227.66,547.45,227.66,546.52,227.66,545.44z M218.48,549.53c0.48-1.21,0.89-2.27,1.39-3.53c0.49,1.28,0.9,2.36,1.35,3.53
			C220.23,549.53,219.44,549.53,218.48,549.53z"/>
		<path class="st0" d="M178.4,495.97c0,0.63-0.01,1.26,0,1.88c0.07,3.35,0.12,6.7,0.22,10.04c0.02,0.88,0.08,1.77,0.26,2.62
			c0.64,3.03,2.63,4.75,5.72,5.04c2.91,0.27,5.78,0.06,8.59-0.73c0.62-0.17,1.26-0.52,1.71-0.97c1-0.99,0.69-2.33-0.57-2.94
			c-1.7-0.83-1.79-1.01-1.49-2.96c0.02-0.13-0.03-0.26-0.07-0.62c-0.26,0.27-0.48,0.39-0.53,0.56c-0.56,1.88-1.87,2.74-3.75,3.1
			c-1.98,0.38-3.93,0.32-5.89,0.12c-0.89-0.09-1.37-0.8-1.34-1.86c0.02-0.77,0.13-1.54,0.19-2.32c0.17-2.04,0.33-4.08,0.5-6.11
			c0.04-0.45,0.12-0.9,0.2-1.43c2.73,0,5.42,0,7.96,0c-0.08-0.79-0.21-1.58-0.22-2.36c-0.02-1.48,0.09-2.96,0.04-4.44
			c-0.04-1.49,0.05-2.89,1.43-4.06c-1.28-0.78-2.43-1.49-3.67-2.26c-0.63,0.73-1.24,1.45-1.98,2.3c-2.74,0-5.57,0-8.61,0
			c0.73,0.84,1.32,1.13,2.26,1.03c2.17-0.24,4.35-0.29,6.63-0.42c0,3.07,0,6.07,0,9.16c-1.75,0.07-3.48,0.38-4.98-0.97
			c-0.69-0.62-1.55-1.05-2.33-1.57C178.59,495.86,178.49,495.92,178.4,495.97z"/>
		<path class="st0" d="M210.88,439.65c0.96,1.28,1.92,2.56,2.95,3.94c-0.41,0.35-0.79,0.7-1.19,1.03c-4.3,3.51-8.92,6.54-13.92,8.96
			c-0.34,0.17-0.88,0.22-0.74,0.84c1.56,0,11.64-4.83,17.51-8.4c0.24,0.45,0.46,0.91,0.73,1.34c0.51,0.82,0.93,0.9,1.58,0.22
			c0.53-0.55,1.01-1.18,1.38-1.85c0.37-0.66,0.46-1.41-0.18-2.12c1.73-1.38,3.44-2.72,5.13-4.09c1.66-1.35,3.3-2.72,5.08-4.18
			c-1.27-0.97-2.55-1.95-3.91-2.99c-0.46,0.35-0.91,0.74-1.42,1.04c-0.44,0.26-0.94,0.56-1.42,0.57c-2.17,0.06-4.35,0.03-6.71,0.03
			c0.89-0.82,1.7-1.55,2.66-2.43c-1.47-0.92-2.74-1.71-4.14-2.58c-3.14,5.61-7.44,10.28-11.94,14.8c0.07,0.08,0.13,0.17,0.2,0.25
			c0.29-0.18,0.61-0.35,0.88-0.56c3.34-2.54,6.66-5.1,10.01-7.63c0.4-0.3,0.93-0.57,1.4-0.58c2.54-0.06,5.07-0.03,7.72-0.03
			c-1.96,2.4-4.14,4.56-6.47,6.67c-1.68-0.82-3.35-1.65-5.03-2.47C210.99,439.51,210.94,439.58,210.88,439.65z"/>
		<path class="st0" d="M261.22,546.52c0.48-0.59,0.92-1.14,1.43-1.76c-1.53-1.25-3.22-1.66-5.07-1.42
			c-1.86,0.25-3.26,1.24-4.19,2.92c-1.88-3.51-6.61-3.9-9.4-1.19c-0.04-0.61-0.08-1.13-0.12-1.7c-2.85,0-5.65,0-8.52,0
			c0,0.69,0,1.33,0,2.09c0.96,0,1.86,0,2.89,0c0,2.66,0,5.21,0,7.83c0.92,0,1.72,0,2.64,0c0-2.57,0-5.12,0-7.75
			c0.96,0,1.79,0,2.77,0c-0.91,1.75-1.1,3.54-0.12,5.31c0.57,1.02,1.43,1.74,2.51,2.18c2.75,1.13,5.44,0.21,7.32-2.48
			c2.57,3.28,5.79,3.85,9.16,1.61c0-1.23,0-2.5,0-3.84c-0.69,0-1.37,0-2.2,0c0,0.79,0,1.62,0,2.37c-1.68,0.85-3.12,0.64-4.03-0.5
			c-0.86-1.08-0.79-2.79,0.15-3.8C257.55,545.16,259.07,545.18,261.22,546.52z M245.58,548.41c-0.02-1.59,1.18-2.9,2.7-2.94
			c1.5-0.04,2.78,1.26,2.8,2.85c0.03,1.59-1.2,2.91-2.71,2.93C246.86,551.28,245.6,550,245.58,548.41z"/>
		<path class="st0" d="M285.09,543.37c0,1.36,0,2.62,0,3.94c-1.34,0-2.6,0-3.98,0c0-1.29,0-2.58,0-3.93c-6.14,0-12.16,0-18.25,0
			c0,3.28,0,6.54,0,9.89c2.65,0,5.27,0,7.96,0c0-0.64,0-1.25,0-2c-1.78,0-3.53,0-5.31,0c0-0.7,0-1.25,0-1.92c1.55,0,3.05,0,4.61,0
			c0-0.7,0-1.28,0-1.99c-1.48,0-2.98,0-4.57,0c0-0.68,0-1.25,0-1.86c2.5,0,4.98,0,7.6,0c0,2.62,0,5.17,0,7.79c0.93,0,1.72,0,2.64,0
			c0-2.58,0-5.13,0-7.76c0.92,0,1.7,0,2.61,0c0,2.58,0,5.14,0,7.76c0.9,0,1.69,0,2.62,0c0-1.25,0-2.46,0-3.74c1.39,0,2.64,0,4.03,0
			c0,1.21,0,2.42,0,3.72c0.93,0,1.72,0,2.59,0c0-3.27,0-6.56,0-9.91C286.86,543.37,286.06,543.37,285.09,543.37z"/>
		<path class="st0" d="M113.37,443.41c0.59,0.55,1.07,0.99,1.55,1.43c2.3-0.25,4.69-0.51,7.19-0.77c0,7.15,0,14.12,0,21.32
			c-1.3,0.59-2.72,1.23-3.99,1.81c1.2,1.22,2.45,2.48,3.7,3.74c4.01-4.5,8.04-9.28,11.9-14.2c-0.08-0.09-0.16-0.17-0.24-0.26
			c-2.51,1.92-5.03,3.84-7.6,5.81c0-1.5-0.03-2.86,0.01-4.22c0.1-3.8,0.27-7.6,0.32-11.41c0.02-1.19,0.19-2.23,1.08-3.07
			c0.15-0.14,0.25-0.34,0.45-0.6c-1.38-0.75-2.72-1.49-4.14-2.26c-0.49,0.57-0.96,1.09-1.39,1.64c-0.37,0.48-0.78,0.71-1.42,0.73
			C118.37,443.16,115.94,443.29,113.37,443.41z"/>
		<path class="st0" d="M133.23,543.4c0,3.33,0,6.57,0,9.88c0.83,0,1.62,0,2.55,0c0-1.21,0-2.43,0-3.72c1.39,0,2.64,0,4.03,0
			c0,1.18,0,2.4,0,3.7c0.95,0,1.77,0,2.7,0c0-2.58,0-5.14,0-7.75c0.91,0,1.71,0,2.64,0c0,2.58,0,5.14,0,7.77c0.93,0,1.72,0,2.62,0
			c0-2.56,0-5.12,0-7.75c0.89,0,1.68,0,2.6,0c0,2.58,0,5.13,0,7.75c0.92,0,1.72,0,2.6,0c0-3.28,0-6.54,0-9.89c-4.29,0-8.6,0-13.05,0
			c0,1.26,0,2.54,0,3.89c-1.41,0-2.69,0-4.06,0c0-1.3,0-2.56,0-3.9C134.94,543.4,134.12,543.4,133.23,543.4z"/>
		<path class="st0" d="M156.25,547.68c1.15,1.52,2.35,2.99,3.42,4.56c0.61,0.9,1.32,1.29,2.37,1.12c0.21-0.03,0.42-0.03,0.76-0.06
			c0-1.06,0-2.13,0-3.39c2.44,3.83,6.11,4.62,9.47,2.21c0-1.25,0-2.51,0-3.84c-0.73,0-1.42,0-2.2,0c0,0.82,0,1.61,0,2.36
			c-1.55,0.89-3.06,0.71-4-0.42c-0.9-1.08-0.87-2.75,0.06-3.8c1.11-1.26,2.61-1.25,4.86,0.07c0.45-0.56,0.9-1.13,1.35-1.69
			c-2.85-2.72-7.39-1.82-9.46,2c0-1.23,0-2.29,0-3.42c-0.85,0-1.6,0-2.45,0c0,1.88,0,3.73,0,5.58c-0.08,0.03-0.16,0.07-0.23,0.1
			c-1.44-1.91-2.89-3.82-4.33-5.73c-0.74,0-1.44,0-2.22,0c0,3.31,0,6.59,0,9.95c0.77,0,1.49,0,2.34,0c0-1.88,0-3.72,0-5.57
			C156.07,547.71,156.16,547.7,156.25,547.68z"/>
		<path class="st0" d="M130.64,548.29c0,0.88,0,1.65,0,2.39c-1.53,0.86-3.03,0.67-3.96-0.45c-0.89-1.08-0.86-2.75,0.07-3.8
			c1.11-1.26,2.61-1.25,4.85,0.07c0.45-0.56,0.9-1.13,1.35-1.69c-2.77-2.64-7.05-1.87-9.44,1.83c0-1.21,0-2.21,0-3.27
			c-0.93,0-1.72,0-2.61,0c0,2.56,0,5.09,0,7.69c-1.37,0-2.65,0-4.05,0c0-2.55,0-5.1,0-7.7c-0.93,0-1.72,0-2.6,0c0,3.3,0,6.58,0,9.93
			c3.07,0,6.09,0,9.19,0c0-1.02,0-2,0-2.97c0.06-0.05,0.12-0.09,0.19-0.14c0.87,1.79,2.23,2.89,4.16,3.19
			c1.87,0.29,3.54-0.27,5.1-1.16c0-1.35,0-2.61,0-3.93C132.14,548.29,131.46,548.29,130.64,548.29z"/>
		<path class="st0" d="M189.48,547.31c-1.37,0-2.63,0-4,0c0-1.29,0-2.57,0-3.92c-3.66,0-7.2,0-10.82,0c0,0.66,0,1.3,0,2.05
			c0.94,0,1.84,0,2.87,0c0,2.66,0,5.21,0,7.84c0.92,0,1.72,0,2.62,0c0-2.56,0-5.12,0-7.75c0.89,0,1.68,0,2.6,0c0,2.57,0,5.13,0,7.75
			c0.92,0,1.72,0,2.64,0c0-1.22,0-2.44,0-3.73c1.38,0,2.63,0,4.05,0c0,1.21,0,2.45,0,3.75c0.93,0,1.69,0,2.54,0c0-3.3,0-6.58,0-9.93
			c-0.8,0-1.59,0-2.51,0C189.48,544.69,189.48,545.97,189.48,547.31z"/>
		<path class="st0" d="M266.92,501.07c-0.55-1.66-0.25-3.22-0.27-4.75c0-0.26,0.29-0.54,0.48-0.79c0.25-0.33,0.52-0.63,0.87-1.06
			c-1.34-0.81-2.57-1.55-3.78-2.28c-0.14,0.07-0.27,0.1-0.32,0.17c-0.88,1.28-2.11,1.47-3.57,1.44c-2.92-0.06-5.85,0.1-8.78,0.13
			c-0.51,0-1.05-0.12-1.53-0.3c-0.88-0.33-1.74-0.75-2.72-1.18c0,3.78,0,7.45,0,11.16c0.52,0.18,0.93,0.05,1.27-0.29
			c0.49-0.5,1.02-0.99,1.41-1.57c0.36-0.55,0.77-0.7,1.4-0.7c4.8,0.02,9.6,0.01,14.4,0.01
			C266.12,501.07,266.46,501.07,266.92,501.07z M262.47,499.98c-3.94,0-7.83,0-11.75,0c0-1.66,0-3.33,0-5.16c3.94,0,7.83,0,11.75,0
			C262.47,496.49,262.47,498.16,262.47,499.98z"/>
		<path class="st0" d="M241.1,502.8c-0.2,0.86-0.34,1.65-0.57,2.42c-0.38,1.24-1.04,2.35-2.1,3.1c-0.82,0.58-1.01,1.29-0.87,2.18
			c0.09,0.54,0.22,1.07,0.36,1.75c3.2-1.28,4.95-3.58,5.8-6.72c8.74-0.18,17.43-0.35,26.2-0.53c-0.3,1.3-0.58,2.51-0.9,3.89
			c0.42-0.13,0.65-0.17,0.85-0.26c2.03-0.89,4.05-1.83,6.36-1.72c0.54,0.03,0.58-0.09,0.71-0.96c-1.62-1.37-3.26-2.75-4.99-4.21
			c-0.56,0.55-1.12,1.07-1.64,1.63c-0.36,0.4-0.76,0.54-1.3,0.54c-4.72,0.07-9.44,0.18-14.16,0.27c-3.31,0.07-6.62,0.13-9.93,0.22
			c-0.77,0.02-1.42-0.05-2-0.67C242.44,503.24,241.83,502.86,241.1,502.8z"/>
		<path class="st0" d="M275,490.26c-1.03-1.11-2.13-2.16-3.24-3.27c-0.82,0.76-1.57,1.5-2.38,2.18c-0.27,0.23-0.66,0.45-1,0.46
			c-2.86,0.03-5.71,0.02-8.57,0.01c-0.13,0-0.27-0.06-0.49-0.12c0.12-1.53-0.36-3.11,0.84-4.57c-1.81-0.77-3.58-1.14-5.4-1.71
			c0,2.21,0,4.34,0,6.58c-5.11,0-10.2,0-15.59,0c0.45,0.68,0.75,1.15,1.08,1.65c2.74-0.74,5.49-0.69,8.24-0.71
			c8.53-0.04,17.06-0.11,25.59-0.17c0.24,0,0.48-0.04,0.72-0.05C274.87,490.45,274.94,490.35,275,490.26z"/>
		<path class="st0" d="M296.47,543.32c0,3.35,0,6.57,0,9.92c0.83,0,1.68,0,2.64,0c0-0.81,0-1.64,0-2.55c0.69,0,1.27,0,2.01,0
			c0.43,0.79,0.91,1.68,1.42,2.61c0.91,0,1.81,0,2.89,0c-0.69-1.11-1.31-2.11-1.97-3.16c1.13-0.73,1.68-1.78,1.74-3.1
			c0.08-1.82-0.86-3.14-2.66-3.52c-0.82-0.17-1.68-0.17-2.52-0.19C298.91,543.3,297.78,543.32,296.47,543.32z M299.21,545.43
			c0.57,0,1.09,0,1.62,0c0.21,0,0.43-0.01,0.63,0.02c0.78,0.12,1.27,0.66,1.3,1.43c0.03,0.78-0.39,1.44-1.16,1.53
			c-0.78,0.09-1.58,0.02-2.39,0.02C299.21,547.41,299.21,546.47,299.21,545.43z"/>
		<path class="st0" d="M288.27,543.38c0,3.32,0,6.58,0,9.91c2.67,0,5.29,0,7.98,0c0-0.67,0-1.28,0-2c-1.78,0-3.49,0-5.28,0
			c0-0.68,0-1.25,0-1.94c1.52,0,3.02,0,4.58,0c0-0.7,0-1.28,0-1.98c-1.48,0-2.98,0-4.57,0c0-0.68,0-1.25,0-1.9c1.68,0,3.36,0,5.12,0
			c0-0.73,0-1.37,0-2.08C293.49,543.38,290.91,543.38,288.27,543.38z"/>
		<path class="st0" d="M154.13,503.97c-0.08-0.88-1.5-2.49-3.56-4.15c-0.8,0.8-1.67,1.58-2.42,2.45c-0.55,0.63-1.2,0.79-1.96,0.8
			c-1.8,0.02-3.6,0.04-5.39,0.07c-7.12,0.14-14.24,0.28-21.36,0.43c-1.86,0.04-3.71,0.12-5.59,0.19c0.56,0.52,1.09,1,1.81,1.66
			c1.02-0.12,2.38-0.34,3.74-0.41c3.63-0.18,7.25-0.31,10.88-0.42c6.98-0.21,13.95-0.41,20.93-0.6
			C152.17,503.95,153.14,503.97,154.13,503.97z"/>
		<path class="st0" d="M192.71,543.39c0,3.33,0,6.59,0,9.92c2.66,0,5.25,0,7.93,0c0-0.65,0-1.29,0-2.05c-1.78,0-3.53,0-5.33,0
			c0-0.67,0-1.21,0-1.91c1.55,0,3.08,0,4.68,0c0-0.72,0-1.3,0-2.02c-1.54,0-3.07,0-4.67,0c0-0.68,0-1.22,0-1.89
			c1.72,0,3.43,0,5.18,0c0-0.75,0-1.37,0-2.05C197.92,543.39,195.36,543.39,192.71,543.39z"/>
		<path class="st0" d="M225.57,516.43c0.76,1.51,1.56,2.9,2.17,4.38c0.45,1.1,0.65,2.29,0.96,3.45c0.21,0.79,0.37,1.68,1.31,1.86
			c0.93,0.18,1.71-0.34,2.3-1.02c0.5-0.58,0.94-1.24,1.3-1.92c0.41-0.77,0.39-1.57-0.26-2.24c-2.09-2.13-4.72-3.39-7.42-4.53
			C225.82,516.37,225.66,516.42,225.57,516.43z"/>
		<path class="st0" d="M227.15,603.22c1.51-1.18,1.64-3.34,0.8-4.76c-1.04-1.76-2.74-2.24-5.37-1.44c-1.17-1.44-2.68-2.38-4.65-2.32
			c-0.98,0.03-1.93,0.24-2.7,0.88c1.24,0.84,2.44,1.66,3.73,2.54C223.65,597.32,226.14,598.83,227.15,603.22z"/>
		<path class="st0" d="M259.41,446.58c0.1,0.18,0.17,0.38,0.29,0.53c1.53,1.99,2.26,4.26,2.44,6.74c0.08,1.07,0.6,1.49,1.67,1.36
			c1.78-0.22,3.3-2.21,2.97-3.97c-0.08-0.41-0.34-0.87-0.66-1.15c-1.92-1.68-4.24-2.67-6.53-3.71
			C259.53,446.45,259.47,446.52,259.41,446.58z"/>
		<path class="st0" d="M119.21,429.66c0.62,1.42,1.25,2.74,1.77,4.1c0.39,1.01,0.62,2.09,0.93,3.13c0.24,0.82,0.67,1.06,1.4,0.64
			c1.33-0.77,2.26-1.87,2.47-3.47c0.08-0.61-0.13-1.1-0.59-1.49c-1.66-1.42-3.61-2.28-5.65-2.98
			C119.46,429.56,119.35,429.63,119.21,429.66z"/>
		<path class="st0" d="M202.08,517.54c-0.09,0.54-0.16,0.85-0.2,1.16c-0.21,1.65-0.96,2.99-2.28,4.01
			c-0.76,0.58-1.06,1.41-0.99,2.32c0.11,1.41,0.94,1.96,2.34,1.31c0.28-0.13,0.52-0.36,0.74-0.59c1.75-1.87,2.17-5.38,0.91-7.59
			C202.49,517.99,202.34,517.85,202.08,517.54z"/>
		<path class="st0" d="M217.9,517.3c0,0.34-0.03,0.58,0.01,0.81c0.3,1.83,0.62,3.66,0.93,5.49c0.24,1.43,0.97,1.74,2.18,0.91
			c1.57-1.07,1.86-2.69,0.6-4.11c-0.9-1.02-1.98-1.88-3-2.79C218.46,517.46,218.2,517.42,217.9,517.3z"/>
		<path class="st0" d="M209.87,517.52c0,1.91,0,3.62,0,5.33c0,0.39-0.05,0.77-0.07,1.15c-0.06,1.09,0.58,1.53,1.59,1.08
			c1.72-0.76,2.37-2.66,1.36-4.23c-0.66-1.03-1.47-1.96-2.22-2.93C210.41,517.8,210.2,517.73,209.87,517.52z"/>
		<path class="st0" d="M170.29,506.39c2.22-0.26,4.43-0.52,6.79-0.8c-0.5-1.07-0.95-2.05-1.38-2.97c-1.83,1.2-3.63,2.39-5.44,3.58
			C170.27,506.27,170.28,506.33,170.29,506.39z"/>
	</g>
</g>
</svg>
