<?xml version="1.0" encoding="utf-8"?>
<!-- Generator: Adobe Illustrator 21.0.0, SVG Export Plug-In . SVG Version: 6.00 Build 0)  -->
<svg version="1.1" id="图层_1" xmlns="http://www.w3.org/2000/svg" xmlns:xlink="http://www.w3.org/1999/xlink" x="0px" y="0px"
	 viewBox="0 0 30 30" style="enable-background:new 0 0 30 30;" xml:space="preserve">
<style type="text/css">
	.st0{fill:#FFFFFF;}
</style>
<g>
	<path class="st0" d="M30,15.04c-0.01,8.3-6.79,14.97-15.02,14.96C6.75,29.99-0.16,23.25,0,14.69C0.15,6.59,6.82-0.03,15.08,0
		C23.3,0.03,30.04,6.76,30,15.04z M13.21,29.46c0.23-0.12,0.45-0.22,0.66-0.33c0.2-0.11,0.39-0.12,0.57,0.04
		c0.11,0.1,0.24,0.19,0.36,0.28c0.13,0.1,0.25,0.11,0.39,0.01c0.15-0.11,0.31-0.19,0.45-0.31c0.19-0.16,0.36-0.13,0.55-0.02
		c0.2,0.11,0.4,0.22,0.6,0.33c0.22-0.19,0.44-0.36,0.64-0.54c0.11-0.1,0.22-0.14,0.36-0.08c0.18,0.08,0.38,0.14,0.56,0.21
		c0.14,0.06,0.24,0.04,0.35-0.09c0.19-0.22,0.4-0.43,0.58-0.62c0.35,0.09,0.66,0.17,0.97,0.25c0.18-0.24,0.34-0.46,0.5-0.68
		c0.1-0.15,0.21-0.21,0.41-0.17c0.24,0.06,0.49,0.07,0.72,0.1c0.19-0.33,0.36-0.62,0.54-0.94c0.32,0,0.64,0,0.98,0
		c0.12-0.27,0.24-0.52,0.33-0.77c0.06-0.16,0.15-0.24,0.33-0.26c0.25-0.02,0.49-0.08,0.75-0.13c0.09-0.33,0.19-0.66,0.28-1
		c0.32-0.09,0.65-0.18,0.98-0.28c0.05-0.36,0.1-0.71,0.15-1.05c0.32-0.13,0.62-0.26,0.94-0.39c0-0.35,0-0.7,0-1.05
		c0.23-0.12,0.44-0.24,0.65-0.35c0.17-0.09,0.26-0.2,0.21-0.41c-0.04-0.16-0.03-0.34-0.07-0.51c-0.06-0.21,0.03-0.34,0.2-0.45
		c0.2-0.14,0.4-0.28,0.6-0.42c-0.07-0.3-0.13-0.57-0.19-0.84c-0.04-0.17,0.01-0.29,0.14-0.4c0.18-0.15,0.35-0.32,0.52-0.49
		c-0.12-0.35-0.22-0.67-0.34-1.01c0.2-0.25,0.41-0.51,0.62-0.78c-0.12-0.23-0.24-0.46-0.37-0.69c-0.1-0.18-0.1-0.33,0.03-0.5
		c0.14-0.19,0.26-0.39,0.39-0.6c-0.17-0.25-0.34-0.48-0.48-0.73c-0.05-0.08-0.06-0.22-0.03-0.31c0.06-0.18,0.15-0.35,0.24-0.52
		c0.09-0.16,0.08-0.29-0.07-0.43c-0.19-0.18-0.34-0.4-0.52-0.61c0.11-0.32,0.21-0.64,0.31-0.94c-0.29-0.26-0.55-0.5-0.79-0.71
		c0.07-0.36,0.13-0.68,0.18-0.98c-0.3-0.21-0.57-0.4-0.85-0.6c0.02-0.35,0.04-0.69,0.06-1.01c-0.34-0.18-0.65-0.35-0.97-0.52
		c0-0.34,0-0.65,0-0.97c-0.34-0.13-0.66-0.25-1-0.38c-0.06-0.33-0.12-0.66-0.19-1c-0.27-0.06-0.52-0.12-0.77-0.17
		c-0.19-0.03-0.28-0.12-0.33-0.3c-0.06-0.24-0.13-0.48-0.2-0.73C23.8,3.59,23.45,3.54,23.1,3.5c-0.14-0.31-0.27-0.6-0.42-0.91
		c-0.37,0-0.73,0-1.08,0c-0.18-0.3-0.34-0.58-0.51-0.87c-0.36,0.06-0.7,0.11-1.04,0.16c-0.22-0.27-0.42-0.52-0.63-0.79
		c-0.35,0.09-0.69,0.17-1.05,0.27c-0.17-0.18-0.35-0.35-0.51-0.54c-0.12-0.14-0.24-0.17-0.4-0.09c-0.25,0.11-0.51,0.21-0.77,0.32
		c-0.19-0.15-0.37-0.29-0.54-0.44c-0.23-0.18-0.26-0.19-0.51-0.05c-0.17,0.09-0.33,0.19-0.49,0.29c-0.13,0.08-0.24,0.09-0.37-0.01
		c-0.13-0.1-0.27-0.18-0.41-0.26c-0.27-0.17-0.3-0.16-0.55,0.04c-0.19,0.15-0.38,0.28-0.57,0.43c-0.31-0.14-0.61-0.26-0.92-0.4
		c-0.26,0.24-0.52,0.48-0.78,0.73c-0.31-0.09-0.63-0.19-0.95-0.29c-0.19,0.22-0.39,0.41-0.55,0.63C9.93,1.88,9.83,1.91,9.66,1.87
		c-0.25-0.06-0.5-0.1-0.74-0.14c-0.21,0.33-0.4,0.62-0.58,0.89c-0.36,0-0.68,0-1.02,0C7.17,2.92,7.01,3.24,6.86,3.54
		C6.51,3.57,6.19,3.6,5.87,3.63C5.74,3.98,5.63,4.31,5.51,4.64C5.17,4.7,4.86,4.76,4.54,4.82C4.46,5.19,4.39,5.54,4.32,5.87
		C3.99,5.99,3.68,6.09,3.36,6.2C3.34,6.49,3.31,6.76,3.31,7.04c0,0.17-0.06,0.26-0.22,0.32c-0.24,0.09-0.47,0.21-0.7,0.33
		c0,0.37,0,0.73,0,1.09C2.12,8.95,1.85,9.12,1.58,9.3c0.04,0.28,0.08,0.54,0.12,0.8c0.03,0.19,0,0.32-0.17,0.44
		c-0.19,0.13-0.37,0.3-0.55,0.45c0.1,0.35,0.19,0.69,0.29,1.03c-0.23,0.25-0.45,0.49-0.68,0.73c0.14,0.34,0.28,0.66,0.42,0.98
		c-0.2,0.28-0.39,0.54-0.59,0.81c0.18,0.31,0.36,0.61,0.54,0.92c-0.17,0.3-0.33,0.59-0.49,0.87c0.23,0.3,0.44,0.57,0.65,0.85
		c-0.13,0.32-0.25,0.62-0.4,0.99c0.27,0.21,0.55,0.43,0.79,0.62c-0.1,0.41-0.18,0.72-0.27,1.05c0.28,0.23,0.56,0.45,0.84,0.68
		c-0.06,0.33-0.11,0.64-0.16,0.97c0.32,0.19,0.61,0.37,0.92,0.56c0,0.34,0,0.68,0,1.01c0.33,0.15,0.65,0.29,0.94,0.43
		c0.05,0.36,0.1,0.69,0.15,1.01c0.36,0.11,0.68,0.21,0.99,0.31c0.08,0.33,0.16,0.64,0.25,0.96c0.28,0.06,0.55,0.14,0.82,0.17
		c0.2,0.02,0.28,0.12,0.33,0.29c0.04,0.15,0.09,0.29,0.13,0.44c0.05,0.18,0.14,0.28,0.34,0.27c0.2-0.01,0.4,0.02,0.6,0.02
		C7.6,26.92,7.69,27,7.76,27.16c0.1,0.23,0.23,0.45,0.34,0.68c0.31-0.02,0.58-0.03,0.86-0.06c0.17-0.02,0.26,0.04,0.34,0.18
		c0.13,0.22,0.29,0.42,0.43,0.63c0.27-0.05,0.52-0.08,0.76-0.15c0.2-0.06,0.34-0.03,0.47,0.14c0.1,0.15,0.24,0.27,0.35,0.41
		c0.08,0.1,0.18,0.13,0.3,0.09c0.21-0.07,0.42-0.13,0.62-0.22c0.17-0.07,0.28-0.04,0.4,0.09C12.81,29.13,13.01,29.28,13.21,29.46z"
		/>
	<path class="st0" d="M23.16,26.51c-0.33,0-0.64,0-0.94,0c-0.17,0.3-0.34,0.59-0.52,0.9c-0.23-0.02-0.46-0.02-0.68-0.07
		c-0.24-0.04-0.38,0.05-0.5,0.24c-0.12,0.19-0.26,0.37-0.4,0.56c-0.32-0.07-0.62-0.14-0.96-0.21c-0.22,0.23-0.46,0.48-0.71,0.75
		c-0.3-0.11-0.6-0.21-0.92-0.33c-0.26,0.21-0.52,0.43-0.79,0.65c-0.29-0.14-0.57-0.29-0.87-0.44c-0.22,0.14-0.45,0.28-0.67,0.43
		c-0.13,0.09-0.24,0.1-0.37,0.01c-0.2-0.14-0.41-0.28-0.62-0.44c-0.3,0.14-0.61,0.28-0.94,0.44c-0.24-0.21-0.48-0.42-0.73-0.63
		c-0.33,0.11-0.65,0.21-0.98,0.32c-0.17-0.19-0.33-0.38-0.49-0.57c-0.1-0.11-0.2-0.16-0.35-0.12c-0.26,0.06-0.52,0.1-0.82,0.15
		c-0.13-0.19-0.27-0.38-0.39-0.58c-0.11-0.17-0.24-0.24-0.45-0.2c-0.23,0.04-0.47,0.04-0.74,0.05c-0.15-0.28-0.29-0.55-0.45-0.84
		c-0.26-0.01-0.51-0.04-0.77-0.04c-0.2,0-0.3-0.08-0.35-0.26c-0.05-0.16-0.11-0.31-0.16-0.46c-0.05-0.14-0.13-0.22-0.28-0.24
		c-0.26-0.04-0.52-0.1-0.81-0.16c-0.08-0.3-0.16-0.61-0.25-0.94c-0.32-0.1-0.63-0.2-0.97-0.3c-0.04-0.32-0.07-0.64-0.11-0.97
		c-0.31-0.14-0.6-0.27-0.92-0.41c0-0.23-0.02-0.47,0-0.71c0.02-0.22-0.07-0.34-0.25-0.43c-0.22-0.11-0.43-0.25-0.65-0.38
		c0.04-0.34,0.08-0.66,0.12-0.98C2.2,20.1,1.95,19.9,1.67,19.68c0.06-0.21,0.13-0.43,0.2-0.65c0.06-0.19,0.05-0.34-0.13-0.48
		c-0.2-0.15-0.37-0.33-0.55-0.5c0.13-0.33,0.25-0.62,0.38-0.94c-0.2-0.26-0.4-0.53-0.63-0.83c0.12-0.2,0.23-0.42,0.36-0.63
		c0.1-0.15,0.1-0.27,0-0.42c-0.15-0.22-0.27-0.46-0.41-0.69c0.15-0.2,0.28-0.39,0.42-0.56c0.11-0.14,0.14-0.28,0.06-0.44
		c-0.11-0.22-0.2-0.45-0.32-0.71c0.15-0.17,0.3-0.34,0.46-0.5c0.14-0.14,0.21-0.28,0.13-0.48c-0.09-0.23-0.15-0.47-0.22-0.73
		c0.25-0.21,0.49-0.42,0.75-0.64C2.11,10.17,2.06,9.85,2,9.49c0.25-0.16,0.52-0.34,0.8-0.52c0-0.33,0-0.67,0-1.04
		c0.19-0.1,0.4-0.22,0.62-0.3C3.6,7.56,3.65,7.44,3.66,7.28c0.02-0.26,0.04-0.53,0.07-0.8c0.32-0.11,0.62-0.21,0.93-0.32
		c0.06-0.32,0.12-0.65,0.19-1.01C5.07,5.11,5.3,5.04,5.53,5.02C5.76,5,5.87,4.89,5.92,4.68c0.06-0.23,0.15-0.45,0.23-0.7
		c0.26-0.02,0.5-0.04,0.75-0.06c0.15-0.01,0.24-0.05,0.3-0.2c0.11-0.25,0.24-0.49,0.37-0.75C7.9,2.99,8.2,3.01,8.52,3.03
		C8.71,2.74,8.9,2.46,9.1,2.15c0.29,0.05,0.59,0.1,0.94,0.16c0.21-0.24,0.44-0.5,0.67-0.77c0.23,0.06,0.46,0.11,0.69,0.19
		c0.2,0.07,0.35,0.01,0.48-0.14c0.15-0.17,0.29-0.35,0.44-0.53c0.28,0.13,0.48,0.21,0.67,0.31c0.21,0.11,0.38,0.11,0.57-0.07
		c0.17-0.15,0.36-0.27,0.56-0.42c0.28,0.16,0.56,0.33,0.84,0.5c0.29-0.16,0.58-0.32,0.9-0.5c0.18,0.14,0.38,0.27,0.55,0.44
		c0.15,0.14,0.29,0.16,0.47,0.08c0.23-0.1,0.45-0.19,0.7-0.3c0.16,0.15,0.32,0.28,0.45,0.44c0.15,0.18,0.31,0.26,0.55,0.17
		c0.21-0.08,0.44-0.11,0.7-0.17c0.19,0.24,0.39,0.48,0.6,0.74c0.34-0.04,0.66-0.08,1.01-0.12c0.17,0.28,0.34,0.55,0.51,0.82
		c0.34,0,0.67,0,1.02,0c0.13,0.29,0.27,0.58,0.41,0.89c0.32,0.04,0.64,0.07,1,0.11c0.07,0.21,0.16,0.43,0.21,0.66
		c0.04,0.22,0.16,0.31,0.35,0.35c0.24,0.05,0.48,0.11,0.74,0.16c0.05,0.32,0.1,0.63,0.15,0.96c0.31,0.12,0.63,0.24,0.95,0.36
		c0.01,0.23,0.05,0.45,0.03,0.66c-0.02,0.26,0.11,0.38,0.32,0.47c0.2,0.09,0.39,0.2,0.61,0.31c-0.02,0.22-0.02,0.45-0.06,0.67
		c-0.04,0.23,0.05,0.37,0.25,0.49c0.2,0.12,0.39,0.27,0.58,0.4c-0.05,0.27-0.09,0.53-0.14,0.78c-0.03,0.14,0.01,0.23,0.12,0.32
		c0.21,0.17,0.4,0.35,0.62,0.54c-0.08,0.22-0.14,0.43-0.23,0.64c-0.08,0.2-0.06,0.35,0.11,0.51c0.18,0.17,0.33,0.37,0.49,0.56
		c-0.11,0.22-0.21,0.43-0.32,0.63c-0.08,0.16-0.1,0.28,0.03,0.44c0.16,0.2,0.29,0.42,0.44,0.66c-0.17,0.27-0.34,0.54-0.52,0.82
		c0.16,0.31,0.31,0.61,0.47,0.92c-0.15,0.18-0.29,0.35-0.44,0.51c-0.14,0.15-0.19,0.29-0.1,0.49c0.1,0.23,0.18,0.48,0.27,0.72
		c-0.25,0.23-0.47,0.44-0.72,0.67c0.08,0.33,0.16,0.66,0.24,1c-0.21,0.15-0.39,0.29-0.59,0.43c-0.14,0.1-0.2,0.21-0.18,0.38
		c0.04,0.26,0.05,0.53,0.08,0.81c-0.23,0.13-0.45,0.25-0.67,0.36c-0.14,0.07-0.2,0.16-0.2,0.31c0.01,0.28,0,0.55,0,0.82
		c-0.26,0.11-0.49,0.21-0.72,0.29c-0.12,0.04-0.18,0.11-0.2,0.24c-0.04,0.28-0.09,0.56-0.14,0.87c-0.24,0.06-0.48,0.13-0.72,0.18
		c-0.15,0.03-0.22,0.11-0.26,0.26c-0.06,0.27-0.15,0.53-0.23,0.8c-0.31,0.04-0.61,0.08-0.93,0.12
		C23.44,25.86,23.3,26.17,23.16,26.51z M28.16,15c0.01-7.27-5.92-13.19-13.2-13.16C7.79,1.86,1.81,7.77,1.88,15.13
		c0.07,7.12,5.84,13.04,13.16,13.03C22.33,28.14,28.15,22.24,28.16,15z"/>
	<path class="st0" d="M8.59,13.49c0.32-0.13,0.61-0.24,0.88-0.37c0.37-0.18,0.51-0.52,0.33-0.85c-0.08-0.15-0.24-0.27-0.39-0.36
		C9.22,11.8,9,11.72,8.77,11.61c0.28-1.41,0.66-2.78,1.37-4.08c0.22,0.07,0.43,0.12,0.63,0.2c0.9,0.32,1.77,0.25,2.6-0.19
		c0.48-0.26,0.91-0.61,1.37-0.92c0.09-0.06,0.17-0.12,0.28-0.21c0.26,0.21,0.51,0.42,0.78,0.62c0.72,0.52,1.49,0.94,2.42,0.88
		c0.36-0.02,0.71-0.11,1.06-0.19c0.19-0.04,0.38-0.12,0.57-0.18c0.48,0.61,1.3,3.1,1.37,4.08c-0.25,0.13-0.52,0.23-0.76,0.39
		c-0.49,0.32-0.41,0.88,0.09,1.14c0.19,0.09,0.39,0.16,0.58,0.24c0.09,0.03,0.18,0.06,0.29,0.09c0,0.18,0,0.36,0,0.54
		c-0.01,1.23-0.25,2.41-0.75,3.53c-0.49,1.08-1.17,2.02-1.99,2.87c-0.95,0.98-2.04,1.76-3.25,2.39c-0.28,0.15-0.55,0.16-0.84,0.01
		c-0.79-0.41-1.54-0.88-2.23-1.44c-0.88-0.72-1.63-1.54-2.27-2.48c-0.71-1.04-1.16-2.18-1.37-3.42C8.6,14.81,8.58,14.16,8.59,13.49z
		 M8.98,13.83c0,0.58,0.05,1.17,0.16,1.76c0.17,0.88,0.47,1.71,0.92,2.48c0.99,1.69,2.35,3.01,4.04,3.99
		c1.03,0.59,0.76,0.54,1.78,0.02c0.02-0.01,0.03-0.02,0.05-0.03c1.03-0.64,1.98-1.38,2.79-2.3c0.6-0.68,1.12-1.42,1.52-2.24
		c0.41-0.84,0.65-1.73,0.74-2.66c0.03-0.35,0.04-0.7,0.06-1.02c-0.32-0.18-0.62-0.32-0.88-0.51c-0.55-0.41-0.6-1.06-0.16-1.45
		c0.23-0.2,0.49-0.35,0.75-0.53c0-0.58-0.71-2.75-1.09-3.3c-0.09,0.02-0.17,0.05-0.27,0.08c-0.29,0.07-0.57,0.16-0.86,0.19
		c-1.04,0.11-1.95-0.24-2.79-0.83c-0.25-0.18-0.5-0.37-0.75-0.57c-1.37,1.19-2.86,1.85-4.67,1.1c-0.51,1.1-0.89,2.2-1.1,3.36
		c0.08,0.04,0.14,0.06,0.18,0.09c0.23,0.15,0.48,0.28,0.67,0.47c0.38,0.38,0.28,1.01-0.21,1.37C9.6,13.5,9.29,13.65,8.98,13.83z"/>
	<path class="st0" d="M20.63,22.33c0.03-0.11,0.04-0.23,0.1-0.32c0.05-0.07,0.16-0.15,0.24-0.15c0.06,0,0.16,0.12,0.17,0.19
		c0.02,0.29,0.01,0.59,0,0.89c0,0.07-0.05,0.14-0.1,0.2c-0.26,0.28-0.43,0.55-0.53,0.96c0.09-0.11,0.17-0.22,0.25-0.33
		c0.1-0.13,0.19-0.26,0.29-0.39c0.09-0.11,0.14-0.28,0.36-0.21c0.09,0.35-0.14,0.62-0.22,0.95c0.15-0.08,0.3-0.17,0.46-0.26
		c0.16,0.31-0.25,0.31-0.24,0.56c0.14,0.19,0.36,0.39,0.27,0.77c-0.17,0.02-0.36,0.04-0.58,0.06c0.44-0.39,0.45-0.48,0.13-0.71
		c-0.08,0.14-0.17,0.27-0.24,0.41c-0.12,0.26-0.19,0.29-0.52,0.15c0.17-0.24,0.38-0.46,0.5-0.71c0.12-0.25,0.15-0.55,0.21-0.82
		c-0.03-0.01-0.05-0.02-0.08-0.04c-0.08,0.1-0.17,0.19-0.23,0.29c-0.15,0.25-0.31,0.51-0.41,0.78c-0.12,0.31-0.09,0.32-0.48,0.26
		c0.02-0.09,0.01-0.2,0.06-0.27c0.19-0.34,0.4-0.67,0.6-1.01c0.04-0.07,0.07-0.15,0.11-0.24c-0.11-0.1-0.2-0.18-0.34-0.3
		c-0.04,0.16-0.07,0.29-0.11,0.46c-0.2,0.05-0.12,0.25-0.12,0.5c-0.24-0.2-0.43-0.35-0.68-0.56c0.19-0.01,0.32-0.02,0.47-0.03
		c-0.08-0.31-0.35-0.43-0.59-0.65c0.17,0,0.31-0.01,0.44,0c0.34,0.04,0.44-0.05,0.39-0.38c-0.01-0.08-0.01-0.15-0.03-0.23
		c-0.01-0.06-0.05-0.12-0.09-0.23c0.14-0.02,0.26-0.04,0.41-0.07c0,0.18,0,0.33,0,0.49c0.06-0.01,0.1-0.02,0.14-0.03
		c-0.04,0.1-0.09,0.2-0.15,0.34c0.16,0.08,0.31,0.16,0.45,0.23c0.02-0.01,0.05-0.03,0.07-0.04c-0.01-0.25-0.02-0.5-0.03-0.75
		c-0.03-0.01-0.05-0.02-0.08-0.03C20.81,22.16,20.72,22.24,20.63,22.33z M20.07,23c0.03,0.02,0.04,0.05,0.06,0.05
		c0.01,0,0.05-0.02,0.05-0.04c0-0.02-0.02-0.05-0.04-0.05C20.12,22.96,20.1,22.98,20.07,23z M20.78,23.03
		c-0.02-0.01-0.03-0.01-0.04-0.02c0,0-0.02,0.02-0.01,0.02c0.01,0.01,0.02,0.02,0.03,0.02C20.76,23.05,20.77,23.03,20.78,23.03z"/>
	<path class="st0" d="M9.77,22.71c0,0.16,0,0.16,0.45,0.53c-0.27-0.01-0.48-0.02-0.73-0.04c-0.04,0.1-0.1,0.21-0.13,0.32
		c-0.03,0.12-0.05,0.24-0.06,0.37c-0.01,0.23-0.07,0.47-0.01,0.68c0.06,0.18,0.26,0.32,0.41,0.5c-0.25-0.06-0.5-0.12-0.74-0.19
		c-0.06-0.02-0.13-0.11-0.12-0.17c0.01-0.22,0.02-0.44,0.09-0.64c0.08-0.26,0.21-0.5,0.32-0.74c-0.02-0.01-0.03-0.03-0.05-0.04
		c-0.14,0.11-0.28,0.21-0.41,0.33c-0.28,0.29-0.62,0.42-1.02,0.45c-0.29,0.02-0.48-0.11-0.59-0.46c0.28,0.14,0.52,0.34,0.83,0.21
		c0.27-0.11,0.54-0.23,0.75-0.53c-0.15,0.03-0.25,0.05-0.34,0.06c-0.16,0.02-0.35,0.06-0.45-0.09c-0.11-0.17-0.09-0.36,0.04-0.56
		c0.26,0.31,0.62,0.23,0.94,0.26c0.1,0.01,0.22-0.12,0.32-0.21c0.13-0.12,0.25-0.25,0.41-0.35c0.01-0.09,0.02-0.19,0.03-0.33
		c0.41,0.22,0.87,0.22,1.25,0.49C10.79,22.75,10.6,22.77,9.77,22.71z M9.73,23.03c0-0.03,0-0.05-0.01-0.08
		c-0.05,0-0.1,0.01-0.15,0.01c0,0.02,0,0.05,0.01,0.07C9.63,23.03,9.68,23.03,9.73,23.03z"/>
	<path class="st0" d="M12.09,25.42c0.02-0.23,0.03-0.45,0.06-0.68c0.01-0.08,0.04-0.15,0.06-0.24c0.14,0.13,0.27,0.21,0.35,0.32
		c0.11,0.16,0.24,0.16,0.43,0.11c0.05-0.42,0.21-0.82,0.43-1.19c0.27,0.13,0.31,0.2,0.36,0.49c0.13,0.01,0.26,0.01,0.41,0.02
		c-0.15,0.27-0.15,0.27-0.78,0.6c0.26-0.02,0.51-0.05,0.77-0.07c0.01,0.03,0.01,0.06,0.02,0.09c-0.07,0.02-0.15,0.04-0.22,0.05
		c-0.18,0.03-0.36,0.05-0.54,0.09c-0.14,0.04-0.24,0.13-0.27,0.31c0.12,0.01,0.22,0.02,0.32,0.03c0,0.02,0.01,0.04,0.01,0.05
		c-0.13,0.05-0.25,0.09-0.39,0.14c0.03,0.06,0.05,0.11,0.08,0.19c-0.03,0.04-0.08,0.11-0.13,0.18c0.18,0.15,0.33,0.01,0.5,0.03
		c0-0.12,0-0.2,0-0.29c0.16,0.09,0.3,0.17,0.48,0.28c-0.3,0.27-0.65,0.21-1,0.29c-0.04,0.13-0.06,0.3-0.13,0.44
		c-0.06,0.13-0.18,0.23-0.27,0.35c-0.23-0.24-0.23-0.25-0.05-0.7c-0.15-0.01-0.33,0.02-0.38-0.21c0.05-0.01,0.1-0.03,0.15-0.03
		c0.28,0.01,0.33-0.03,0.37-0.31c0-0.02,0-0.04,0.01-0.05c0.21-0.14,0.04-0.37,0.17-0.54c-0.08-0.05-0.13-0.09-0.19-0.11
		c-0.2-0.09-0.3-0.05-0.37,0.16c-0.07,0.19-0.11,0.39-0.17,0.57c-0.08,0.21-0.2,0.39-0.38,0.57C11.67,26.09,11.82,25.68,12.09,25.42
		c0.01,0.03,0.01,0.07,0.01,0.11l-0.01,0.01l0.01-0.01c0.02-0.04,0.04-0.07,0.06-0.11c0.02-0.04,0.03-0.08,0.05-0.12
		c0.01,0,0.02,0,0.02,0c0,0,0-0.01,0-0.02c-0.01,0.01-0.01,0.02-0.02,0.03c-0.02,0.04-0.03,0.08-0.05,0.12
		C12.13,25.42,12.11,25.42,12.09,25.42z M13.64,24.44c0.03,0.03,0.05,0.05,0.08,0.08c0.03-0.04,0.06-0.08,0.09-0.12
		c-0.02-0.02-0.05-0.04-0.07-0.07C13.7,24.37,13.67,24.41,13.64,24.44z"/>
	<path class="st0" d="M25.16,10.5c0.26-0.11,0.52-0.22,0.78-0.33c0.07-0.03,0.13-0.07,0.23-0.12c0.05,0.11,0.09,0.21,0.14,0.34
		c-0.59,0.28-1.16,0.55-1.74,0.82c-0.06-0.15-0.11-0.26-0.17-0.41c0.3-0.32,0.6-0.65,0.9-0.97c0,0-0.01-0.01-0.01-0.01
		c0,0.01,0.01,0.01,0.01,0.02c-0.1,0.02-0.2,0.03-0.29,0.06c-0.28,0.13-0.56,0.26-0.86,0.4c-0.06-0.1-0.1-0.18-0.16-0.3
		c0.56-0.33,1.15-0.55,1.74-0.84c0.08,0.14,0.15,0.27,0.23,0.41c-0.21,0.23-0.41,0.44-0.6,0.66C25.3,10.33,25.24,10.42,25.16,10.5
		c0,0.01,0,0.01,0,0.02C25.16,10.52,25.16,10.51,25.16,10.5z"/>
	<path class="st0" d="M3.86,9.94C3.94,9.79,4,9.67,4.08,9.53c0.41,0.03,0.82,0.06,1.23,0.1c0-0.01,0.01-0.02,0.01-0.03
		c-0.33-0.17-0.65-0.34-1-0.52c0.06-0.1,0.11-0.19,0.18-0.31c0.29,0.15,0.56,0.3,0.83,0.44c0.28,0.14,0.56,0.29,0.83,0.43
		C6.1,10,6.06,10.03,5.71,10C5.37,9.97,5.03,9.94,4.67,9.95c0.35,0.19,0.7,0.38,1.07,0.58c-0.04,0.11-0.08,0.2-0.13,0.33
		C5.02,10.55,4.45,10.25,3.86,9.94z"/>
	<path class="st0" d="M20.8,6.49c-0.1-0.06-0.19-0.1-0.31-0.17c0.38-0.53,0.75-1.05,1.14-1.59c0.15,0.1,0.27,0.18,0.39,0.27
		c-0.1,0.42-0.19,0.81-0.29,1.21c0.01,0.01,0.03,0.01,0.04,0.02c0.22-0.3,0.44-0.61,0.67-0.93c0.09,0.09,0.17,0.15,0.27,0.25
		c-0.38,0.52-0.75,1.03-1.14,1.55C21.46,7,21.36,6.92,21.25,6.83c0.1-0.43,0.21-0.86,0.31-1.29c-0.01-0.01-0.03-0.01-0.04-0.02
		C21.28,5.84,21.04,6.16,20.8,6.49z"/>
	<path class="st0" d="M4.78,13.77c-0.01,0.12-0.02,0.22-0.04,0.35c-0.63-0.1-1.25-0.19-1.89-0.29c0.01-0.17,0.01-0.3,0.02-0.47
		c0.4-0.1,0.79-0.2,1.23-0.31c-0.37-0.17-0.76-0.1-1.13-0.23c0.02-0.09,0.04-0.19,0.07-0.31c0.64,0.09,1.25,0.19,1.9,0.28
		c-0.02,0.14-0.03,0.25-0.06,0.41c-0.42,0.11-0.86,0.21-1.29,0.32c0,0.02,0,0.04,0,0.05C3.99,13.64,4.38,13.7,4.78,13.77z"/>
	<path class="st0" d="M4.75,16c0.03,0.15,0.05,0.27,0.07,0.42c-0.37,0.23-0.73,0.46-1.1,0.69c0.01,0.02,0.01,0.04,0.02,0.06
		c0.38-0.06,0.77-0.12,1.18-0.18c0.02,0.11,0.04,0.21,0.07,0.34c-0.65,0.11-1.27,0.21-1.91,0.31c-0.04-0.18-0.07-0.31-0.1-0.46
		c0.35-0.22,0.7-0.44,1.05-0.66c-0.01-0.02-0.01-0.03-0.02-0.05c-0.36,0.06-0.71,0.13-1.11,0.19c-0.02-0.13-0.03-0.23-0.04-0.36
		C3.49,16.21,4.11,16.11,4.75,16z"/>
	<path class="st0" d="M8.36,6.21c0.16,0.21,0.29,0.4,0.44,0.6C8.7,6.88,8.6,6.95,8.48,7.04C8.1,6.52,7.73,6.01,7.34,5.47
		c0.23-0.17,0.42-0.34,0.64-0.46c0.3-0.16,0.7,0.09,0.76,0.46c0.01,0.08,0,0.17,0,0.26C8.86,5.82,9.01,5.9,9.13,6
		c0.11,0.1,0.2,0.22,0.32,0.35C9.36,6.41,9.26,6.47,9.18,6.52C8.88,6.47,8.78,6,8.36,6.21z M8.15,5.91
		c0.16-0.04,0.24-0.15,0.22-0.29C8.35,5.54,8.27,5.44,8.19,5.4C8.06,5.34,7.96,5.42,7.88,5.55C7.97,5.67,8.05,5.79,8.15,5.91z"/>
	<path class="st0" d="M25.95,15c-0.2,0-0.41,0-0.65,0c-0.01-0.14-0.01-0.26-0.02-0.37c0.65,0,1.28,0,1.93,0
		c0,0.29,0.02,0.55-0.01,0.8c-0.03,0.29-0.42,0.47-0.72,0.35c-0.11-0.04-0.21-0.12-0.29-0.17c-0.31,0.08-0.61,0.16-0.95,0.24
		c0.01-0.16,0.02-0.27,0.03-0.4c0.18-0.05,0.35-0.09,0.53-0.14C25.95,15.27,26.04,15.2,25.95,15z M26.86,15.03
		c-0.17,0-0.33,0-0.48,0c0,0.29,0.08,0.39,0.25,0.39C26.8,15.42,26.88,15.29,26.86,15.03z"/>
	<path class="st0" d="M22.95,7.41c-0.03-0.07-0.06-0.13-0.1-0.2c0.08-0.08,0.16-0.15,0.24-0.23c0.14,0.13,0.27,0.25,0.42,0.4
		c-0.24,0.25-0.47,0.49-0.69,0.72c-0.46-0.13-0.8-0.53-0.79-0.9c0.01-0.42,0.45-0.9,0.9-1c0.39-0.09,0.88,0.19,1.05,0.65
		c-0.09,0.05-0.19,0.11-0.3,0.18c-0.17-0.25-0.34-0.51-0.7-0.4c-0.28,0.08-0.44,0.3-0.52,0.57c-0.05,0.19,0.06,0.35,0.25,0.47
		C22.8,7.57,22.88,7.49,22.95,7.41z"/>
	<path class="st0" d="M5.36,18.54c0.04,0.12,0.08,0.23,0.13,0.37c-0.68,0.06-1.34,0.11-2.02,0.17c-0.05-0.17-0.1-0.33-0.16-0.52
		c0.57-0.35,1.13-0.69,1.7-1.04c0.05,0.14,0.1,0.24,0.15,0.37c-0.12,0.09-0.24,0.18-0.38,0.28c0.04,0.12,0.07,0.25,0.11,0.38
		C5.04,18.54,5.18,18.54,5.36,18.54z M4.43,18.32c-0.22,0.13-0.4,0.23-0.58,0.34c0.01,0.02,0.02,0.04,0.03,0.06
		c0.21-0.03,0.42-0.06,0.66-0.1C4.49,18.52,4.46,18.44,4.43,18.32z"/>
	<path class="st0" d="M24.77,7.67c0.09,0.11,0.16,0.2,0.25,0.31c-0.3,0.2-0.58,0.39-0.85,0.58c-0.09,0.06-0.18,0.14-0.26,0.21
		c-0.1,0.09-0.15,0.2-0.06,0.33c0.08,0.12,0.21,0.14,0.33,0.07c0.24-0.14,0.47-0.29,0.7-0.43c0.14-0.09,0.29-0.18,0.45-0.29
		c0.07,0.1,0.13,0.19,0.21,0.32c-0.43,0.28-0.79,0.64-1.28,0.79c-0.46,0.14-0.87-0.21-0.83-0.66c0.02-0.23,0.16-0.39,0.33-0.51
		C24.06,8.14,24.41,7.92,24.77,7.67z"/>
	<path class="st0" d="M3.26,11.63c0.04-0.14,0.06-0.24,0.1-0.38c0.32,0.11,0.62,0.21,0.93,0.32c0.13,0.04,0.25,0.09,0.38,0.11
		c0.13,0.02,0.25-0.01,0.3-0.16c0.04-0.15-0.03-0.25-0.15-0.3c-0.21-0.09-0.42-0.17-0.64-0.25c-0.2-0.08-0.41-0.15-0.63-0.22
		c0.04-0.13,0.07-0.24,0.11-0.37c0.48,0.18,0.97,0.27,1.4,0.55c0.26,0.18,0.34,0.41,0.25,0.69c-0.11,0.34-0.3,0.48-0.63,0.45
		c-0.19-0.02-0.37-0.07-0.55-0.13C3.84,11.84,3.56,11.73,3.26,11.63z"/>
	<path class="st0" d="M19.72,5.38c-0.08,0.1-0.16,0.21-0.26,0.33c-0.12-0.05-0.23-0.09-0.38-0.16c0.44-0.52,0.86-1.01,1.31-1.53
		c0.16,0.09,0.31,0.17,0.48,0.26c-0.16,0.65-0.32,1.28-0.48,1.94c-0.14-0.07-0.24-0.13-0.36-0.19c0.02-0.16,0.05-0.31,0.07-0.47
		C19.98,5.5,19.87,5.45,19.72,5.38z M20.24,5.2c0.07-0.24,0.14-0.44,0.2-0.65c-0.02-0.01-0.04-0.02-0.06-0.03
		c-0.13,0.17-0.26,0.34-0.41,0.53C20.07,5.11,20.14,5.15,20.24,5.2z"/>
	<path class="st0" d="M27.1,13.13c0.03,0.36,0.06,0.68,0.09,1.02c-0.15,0-0.25,0-0.38,0c-0.03-0.18-0.06-0.36-0.09-0.54
		c-0.1,0-0.19,0-0.3,0c0,0.19,0,0.37,0,0.58c-0.12,0.02-0.23,0.03-0.37,0.05c-0.03-0.19-0.06-0.36-0.09-0.57
		c-0.13,0.02-0.24,0.04-0.37,0.06c0.02,0.21,0.04,0.39,0.05,0.61c-0.13,0.02-0.24,0.04-0.38,0.06c-0.03-0.36-0.06-0.69-0.1-1.04
		C25.82,13.29,26.44,13.21,27.1,13.13z"/>
	<path class="st0" d="M8.32,7.18C8.07,7.42,7.83,7.64,7.57,7.9C7.12,7.42,6.68,6.96,6.24,6.5C6.47,6.25,6.67,6.01,6.9,5.76
		c0.14,0.13,0.23,0.21,0.35,0.33C7.08,6.21,6.94,6.31,6.77,6.43c0.12,0.15,0.18,0.23,0.26,0.32C7.18,6.61,7.3,6.5,7.46,6.36
		C7.54,6.47,7.6,6.58,7.69,6.71c-0.08,0.08-0.2,0.21-0.34,0.36C7.41,7.14,7.5,7.23,7.59,7.33c0.16-0.15,0.3-0.28,0.46-0.42
		C8.14,7,8.22,7.08,8.32,7.18z"/>
	<path class="st0" d="M17.6,3.06c-0.01,0.14-0.03,0.24-0.04,0.37c-0.21-0.02-0.39-0.05-0.61-0.07c-0.02,0.11-0.04,0.2-0.06,0.32
		c0.19,0.05,0.35,0.1,0.53,0.15c-0.01,0.12-0.03,0.23-0.04,0.35c-0.18-0.03-0.34-0.05-0.53-0.08c-0.03,0.12-0.06,0.24-0.1,0.39
		c0.21,0.04,0.4,0.08,0.61,0.12c-0.01,0.12-0.03,0.24-0.04,0.38c-0.35-0.07-0.67-0.13-1.03-0.2c0.11-0.62,0.22-1.24,0.33-1.9
		C16.96,2.94,17.26,2.99,17.6,3.06z"/>
	<path class="st0" d="M6.59,8.1C6.31,7.75,6.04,7.39,5.75,7.02C5.83,6.93,5.91,6.83,6.02,6.7c0.39,0.54,0.77,1.06,1.16,1.6
		c-0.1,0.12-0.2,0.24-0.31,0.38c-0.6-0.28-1.19-0.55-1.79-0.82c0.09-0.13,0.16-0.23,0.24-0.35C5.65,7.68,5.96,7.85,6.28,8
		C6.38,8.05,6.49,8.06,6.59,8.1C6.6,8.1,6.6,8.1,6.6,8.11C6.6,8.11,6.59,8.1,6.59,8.1z"/>
	<path class="st0" d="M15.13,2.78c0.3,0.03,0.57,0.04,0.84,0.08c0.08,0.01,0.16,0.1,0.21,0.18c0.27,0.45-0.01,1-0.53,1.04
		c-0.05,0-0.09,0.01-0.17,0.01c-0.03,0.2-0.05,0.39-0.08,0.61c-0.11,0-0.21,0-0.37,0C15.05,4.08,15.09,3.46,15.13,2.78z M15.5,3.66
		c0.15,0.08,0.28,0.02,0.34-0.11c0.04-0.08,0.04-0.22-0.01-0.28c-0.06-0.08-0.19-0.1-0.34-0.17C15.5,3.34,15.5,3.5,15.5,3.66z"/>
	<path class="st0" d="M24.93,12.32c0.58-0.31,1.15-0.61,1.75-0.93c0.04,0.16,0.07,0.28,0.11,0.41c-0.42,0.21-0.82,0.41-1.22,0.61
		c0,0.01,0.01,0.02,0.01,0.04c0.44,0,0.88,0,1.36,0c0.03,0.11,0.05,0.22,0.09,0.36c-0.67,0-1.31,0-1.96,0
		C25.02,12.64,24.98,12.51,24.93,12.32z"/>
	<path class="st0" d="M25.34,15.96c0.13,0.04,0.24,0.07,0.37,0.12c-0.04,0.11-0.08,0.2-0.12,0.29c-0.04,0.12-0.09,0.25,0.07,0.32
		c0.14,0.07,0.23-0.02,0.3-0.14c0.13-0.22,0.29-0.4,0.59-0.38c0.38,0.02,0.61,0.26,0.55,0.63c-0.02,0.14-0.09,0.26-0.14,0.42
		c-0.12-0.03-0.21-0.05-0.31-0.08c0.03-0.13,0.06-0.25,0.07-0.37c0-0.06-0.05-0.15-0.1-0.18c-0.03-0.02-0.13,0.02-0.17,0.06
		c-0.08,0.08-0.14,0.18-0.21,0.27c-0.16,0.21-0.39,0.27-0.66,0.2c-0.22-0.06-0.37-0.26-0.39-0.51
		C25.16,16.39,25.21,16.18,25.34,15.96z"/>
	<path class="st0" d="M9.28,4.85C9.4,4.86,9.51,4.88,9.62,4.87c0.53-0.05,0.72,0.31,0.73,0.64c0,0.36-0.38,0.65-0.82,0.62
		c-0.04-0.1-0.08-0.2-0.13-0.32c0.14-0.05,0.28-0.07,0.4-0.13c0.07-0.04,0.15-0.15,0.13-0.21C9.92,5.4,9.81,5.34,9.73,5.31
		C9.66,5.29,9.58,5.33,9.5,5.32C9.32,5.31,9.14,5.31,9.02,5.14C8.89,4.98,8.77,4.81,8.87,4.59C9,4.31,9.24,4.17,9.57,4.13
		C9.61,4.23,9.66,4.31,9.7,4.41C9.55,4.54,9.23,4.49,9.28,4.85z"/>
	<path class="st0" d="M16.83,25.77c-0.06,0.07-0.13,0.13-0.19,0.2c-0.21,0.23-0.3,0.21-0.44-0.08c0.19-0.14,0.39-0.27,0.56-0.43
		c0.07-0.07,0.12-0.2,0.12-0.29c-0.02-0.29-0.08-0.58-0.12-0.87c-0.01-0.05-0.01-0.11-0.01-0.16c0.39-0.02,0.47,0.04,0.45,0.39
		c-0.01,0.15,0,0.29,0,0.44c0.03,0.01,0.06,0.01,0.08,0.02c0.04-0.1,0.07-0.2,0.12-0.33c0.1,0.02,0.23,0.04,0.37,0.07
		c0.01,0.02,0.02,0.05,0.03,0.07c-0.14,0.14-0.27,0.29-0.41,0.42c-0.13,0.11-0.2,0.23-0.2,0.42c-0.01,0.22-0.02,0.45-0.17,0.65
		c-0.22,0.3-0.37,0.39-0.79,0.38c0.27-0.27,0.75-0.35,0.68-0.85C16.87,25.79,16.85,25.78,16.83,25.77z"/>
	<path class="st0" d="M26.21,19.88c-0.06,0.14-0.11,0.26-0.17,0.4c-0.26-0.03-0.51-0.07-0.76-0.1c-0.01,0.02-0.02,0.04-0.03,0.06
		c0.19,0.15,0.38,0.31,0.57,0.46c-0.01,0.02-0.03,0.04-0.04,0.06c-0.06,0.11-0.11,0.22-0.19,0.36c-0.46-0.5-0.79-1.12-1.51-1.29
		c0.08-0.14,0.13-0.23,0.18-0.32c0.33,0.11,0.63,0.24,0.95,0.3C25.52,19.86,25.85,19.85,26.21,19.88z"/>
	<path class="st0" d="M18.65,3.34c0.16,0.04,0.27,0.08,0.39,0.11c0,0.27,0,0.52,0,0.84c0.2-0.24,0.36-0.44,0.53-0.65
		c0.12,0.06,0.24,0.12,0.41,0.2C19.7,4.1,19.43,4.3,19.23,4.56c-0.2,0.25-0.33,0.57-0.5,0.87c-0.08-0.04-0.17-0.08-0.31-0.14
		C18.78,4.68,18.63,4.03,18.65,3.34z"/>
	<path class="st0" d="M26.19,18.68c0.06-0.13,0.11-0.23,0.17-0.36c0.11,0.04,0.22,0.07,0.38,0.13c-0.13,0.38-0.26,0.74-0.39,1.13
		c-0.14-0.04-0.25-0.07-0.37-0.1c0.03-0.14,0.05-0.26,0.08-0.4c-0.47-0.17-0.93-0.34-1.42-0.51c0.06-0.13,0.11-0.24,0.16-0.36
		C25.26,18.36,25.72,18.52,26.19,18.68z"/>
	<path class="st0" d="M13.51,2.88c-0.17,0.65-0.41,1.26-0.14,1.93c-0.15,0.03-0.26,0.06-0.43,0.1c0.02-0.73-0.45-1.21-0.79-1.8
		c0.16-0.03,0.29-0.05,0.42-0.07c0.13,0.23,0.24,0.44,0.36,0.65c0.02,0,0.04,0,0.05,0c0.04-0.25,0.07-0.49,0.11-0.77
		C13.22,2.91,13.34,2.9,13.51,2.88z"/>
	<path class="st0" d="M4.65,20.62c0.45-0.25,0.86-0.48,1.3-0.72c0.07,0.1,0.13,0.19,0.22,0.32c-0.45,0.26-0.88,0.51-1.32,0.76
		c0.06,0.13,0.1,0.24,0.16,0.37c-0.11,0.05-0.21,0.1-0.35,0.17c-0.2-0.34-0.39-0.67-0.6-1.02c0.11-0.07,0.21-0.14,0.33-0.22
		C4.48,20.39,4.56,20.5,4.65,20.62z"/>
	<path class="st0" d="M11.83,3.17c0.04,0.14,0.07,0.27,0.1,0.4c-0.12,0.05-0.22,0.09-0.36,0.14c0.15,0.48,0.3,0.96,0.45,1.45
		c-0.12,0.04-0.24,0.07-0.37,0.11c-0.16-0.48-0.31-0.94-0.48-1.42c-0.13,0.02-0.24,0.05-0.39,0.07c-0.04-0.11-0.07-0.21-0.12-0.36
		C11.07,3.43,11.44,3.31,11.83,3.17z"/>
	<path class="st0" d="M4.7,15.89c-0.12-0.01-0.22-0.02-0.32-0.02c-0.03-0.13-0.06-0.24-0.09-0.36c-0.48-0.13-0.97,0.04-1.47-0.05
		c0-0.11,0-0.22,0-0.37c0.47-0.01,0.95-0.05,1.42-0.03C4.66,15.09,4.82,15.39,4.7,15.89z"/>
	<path class="st0" d="M5.55,19.05c0.06,0.12,0.11,0.21,0.18,0.35c-0.59,0.27-1.18,0.54-1.78,0.82c-0.06-0.14-0.1-0.24-0.16-0.37
		C4.37,19.58,4.94,19.32,5.55,19.05z"/>
	<path class="st0" d="M17.9,5.12c-0.16-0.04-0.26-0.07-0.38-0.1c0.17-0.62,0.34-1.23,0.51-1.86c0.14,0.03,0.24,0.05,0.39,0.08
		C18.24,3.88,18.07,4.49,17.9,5.12z"/>
	<path class="st0" d="M24.78,11.79c-0.05-0.12-0.09-0.22-0.15-0.37c0.62-0.21,1.21-0.42,1.83-0.63c0.05,0.12,0.09,0.22,0.15,0.36
		C25.99,11.37,25.4,11.58,24.78,11.79z"/>
	<path class="st0" d="M6.55,9.13C6.47,9.26,6.4,9.36,6.33,9.47C5.79,9.11,5.27,8.76,4.73,8.4c0.07-0.12,0.12-0.22,0.2-0.34
		C5.48,8.42,6,8.77,6.55,9.13z"/>
	<path class="st0" d="M10.35,3.7c0.25,0.59,0.5,1.16,0.76,1.76C11,5.52,10.9,5.58,10.76,5.65c-0.26-0.6-0.51-1.19-0.77-1.79
		C10.13,3.8,10.23,3.76,10.35,3.7z"/>
	<path class="st0" d="M26.9,17.72c-0.02,0.13-0.04,0.24-0.06,0.39c-0.64-0.16-1.25-0.31-1.89-0.47c0.03-0.12,0.05-0.22,0.09-0.37
		C25.65,17.42,26.26,17.56,26.9,17.72z"/>
	<path class="st0" d="M4.72,14.39c0,0.14,0,0.24,0,0.33c-0.64,0-1.26,0-1.9,0c0-0.15,0-0.26,0-0.42
		C3.45,14.33,4.07,14.36,4.72,14.39z"/>
	<path class="st0" d="M23.7,20.49c0.04-0.07,0.08-0.13,0.12-0.21c0.42,0.55,0.96,0.89,1.61,1.06c-0.06,0.18-0.17,0.21-0.3,0.18
		C24.52,21.37,24.03,21.04,23.7,20.49z"/>
	<path class="st0" d="M14.71,2.82c-0.2,0.64-0.13,1.26,0.11,1.87c-0.06,0.01-0.09,0.02-0.11,0.03c-0.04,0-0.07,0-0.12-0.01
		c-0.33-0.55-0.32-1.13-0.19-1.73C14.42,2.84,14.5,2.77,14.71,2.82z"/>
	<path class="st0" d="M17.33,25.63c0.18,0.07,0.33,0.16,0.49,0.18c0.16,0.02,0.32-0.03,0.49-0.06c0.01,0.02,0.02,0.04,0.03,0.05
		c-0.1,0.11-0.19,0.23-0.3,0.31c-0.06,0.05-0.2,0.06-0.25,0.03C17.6,26.01,17.38,25.91,17.33,25.63z"/>
	<path class="st0" d="M12.36,24.29c-0.02-0.19-0.03-0.38-0.05-0.56c0.19,0.09,0.42,0.17,0.48,0.49
		C12.63,24.25,12.5,24.27,12.36,24.29L12.36,24.29z"/>
	<path class="st0" d="M12.36,24.29c0,0.01,0,0.03,0,0.03C12.36,24.32,12.36,24.31,12.36,24.29C12.36,24.29,12.36,24.29,12.36,24.29z
		"/>
	<path class="st0" d="M9.34,14.17c0.38-0.29,0.71-0.49,0.97-0.76c0.61-0.63,0.47-1.44-0.18-1.97c-0.14-0.11-0.29-0.21-0.45-0.32
		c0.17-0.88,0.46-1.72,0.83-2.59c1.69,0.47,3.15-0.07,4.5-1.1c1.33,1.02,2.78,1.58,4.47,1.11c0.3,0.49,0.75,1.86,0.85,2.57
		c-0.2,0.17-0.43,0.32-0.6,0.51c-0.65,0.7-0.45,1.42,0.13,1.95c0.23,0.21,0.51,0.36,0.8,0.56c-0.01,0.15-0.02,0.34-0.04,0.53
		c-0.1,1.07-0.37,2.1-0.9,3.05c-0.65,1.16-1.46,2.18-2.48,3.03c-0.63,0.52-1.3,0.96-2.05,1.29c-0.09,0.04-0.23,0.04-0.32,0
		c-1.01-0.52-1.93-1.17-2.75-1.97c-0.66-0.65-1.23-1.35-1.7-2.14c-0.48-0.82-0.8-1.69-0.94-2.62C9.41,14.89,9.37,14.49,9.34,14.17z
		 M17.8,12.34c-0.2,0-0.39-0.02-0.58,0.01c-0.07,0.01-0.19,0.09-0.2,0.16c-0.01,0.06,0.07,0.17,0.14,0.21
		c0.08,0.04,0.18,0.04,0.28,0.05c0.12,0.01,0.24,0,0.36,0c0,0.25,0,0.46,0,0.68c-0.19,0-0.35-0.01-0.51,0
		c-0.14,0.01-0.28,0.07-0.27,0.24c0.01,0.16,0.14,0.18,0.27,0.18c0.17,0,0.34,0,0.53,0c0,0.75,0,1.46,0,2.16
		c0,0.09-0.01,0.2,0.02,0.28c0.03,0.06,0.12,0.13,0.19,0.13c0.07,0,0.16-0.06,0.19-0.13c0.04-0.06,0.02-0.15,0.02-0.22
		c0-0.58,0-1.16,0-1.75c0-0.15,0-0.3,0-0.48c0.19,0,0.35,0,0.51,0c0.13,0,0.27-0.01,0.27-0.18c0.01-0.16-0.12-0.21-0.24-0.23
		c-0.08-0.02-0.17-0.01-0.26-0.01c-0.09,0-0.18-0.01-0.27-0.02c0-0.23,0-0.43,0-0.64c0.19-0.01,0.37,0,0.55-0.03
		c0.12-0.02,0.25-0.08,0.23-0.24c-0.02-0.15-0.14-0.16-0.26-0.17c-0.17,0-0.34,0-0.51,0c0-0.26,0-0.48,0-0.73
		c0.19,0,0.36,0.01,0.53,0c0.13-0.01,0.24-0.08,0.24-0.23c0-0.15-0.12-0.18-0.24-0.19c-0.06,0-0.13-0.02-0.2-0.03
		c-0.01-0.39,0.03-0.76,0.16-1.11c0.03-0.08,0.07-0.17,0.06-0.25c-0.01-0.07-0.07-0.17-0.13-0.19c-0.06-0.02-0.17,0.02-0.21,0.07
		c-0.06,0.08-0.1,0.18-0.12,0.28c-0.08,0.39-0.14,0.78-0.22,1.19c-0.06,0-0.14,0-0.22,0c-0.01-0.07,0-0.12-0.01-0.16
		c-0.08-0.4-0.15-0.8-0.23-1.2c-0.03-0.15-0.12-0.25-0.28-0.2c-0.16,0.06-0.17,0.19-0.12,0.33c0.02,0.05,0.04,0.11,0.06,0.16
		c0.1,0.35,0.15,0.7,0.11,1.08c-0.07,0.01-0.11,0.01-0.16,0.02c-0.14,0-0.28,0.06-0.24,0.21c0.02,0.09,0.16,0.16,0.26,0.22
		c0.05,0.03,0.13,0.01,0.2,0.01c0.11,0,0.22,0,0.33,0C17.8,11.87,17.8,12.09,17.8,12.34z M13.34,11.33
		c0.07,0.16,0.13,0.26,0.17,0.38c0.2,0.6,0.3,1.22,0.35,1.85c0.01,0.15,0.03,0.3,0.23,0.29c0.21-0.01,0.22-0.16,0.2-0.31
		c-0.05-0.35-0.09-0.7-0.16-1.04c-0.11-0.62-0.26-1.23-0.65-1.75c-0.04-0.05-0.04-0.16-0.02-0.23c0.05-0.21,0.11-0.42,0.17-0.64
		c0.03-0.12,0.03-0.24-0.11-0.29c-0.13-0.05-0.22,0.01-0.27,0.14c-0.04,0.1-0.1,0.19-0.12,0.29c-0.09,0.43-0.19,0.86-0.24,1.29
		c-0.18,1.64,0.04,3.25,0.43,4.85c0.06,0.23,0.15,0.31,0.3,0.26c0.19-0.06,0.16-0.21,0.13-0.36c0-0.02-0.01-0.04-0.01-0.06
		c-0.14-0.77-0.3-1.53-0.4-2.31C13.24,12.94,13.21,12.17,13.34,11.33z M11.93,11.34c0.14,0.79,0.1,1.52,0.03,2.25
		c-0.05,0.49-0.13,0.98-0.21,1.47c-0.06,0.35-0.15,0.69-0.22,1.03c-0.03,0.14-0.03,0.28,0.14,0.33c0.17,0.05,0.24-0.06,0.28-0.21
		c0.05-0.24,0.12-0.48,0.17-0.72c0.17-0.83,0.29-1.67,0.32-2.52c0.03-0.77,0-1.53-0.14-2.28c-0.05-0.3-0.14-0.59-0.23-0.88
		c-0.04-0.13-0.12-0.28-0.31-0.21c-0.17,0.06-0.13,0.21-0.09,0.34c0.06,0.19,0.12,0.38,0.17,0.58c0.02,0.08,0.01,0.2-0.04,0.26
		c-0.31,0.41-0.48,0.87-0.57,1.36c-0.09,0.49-0.16,0.98-0.23,1.47c-0.03,0.2,0.09,0.31,0.24,0.25c0.08-0.03,0.16-0.14,0.18-0.22
		c0.04-0.2,0.04-0.42,0.07-0.62C11.55,12.44,11.65,11.89,11.93,11.34z M15.53,13.62c0.07,0.74,0.13,1.4,0.19,2.07
		c0.02,0.18,0.05,0.36,0.08,0.54c0.02,0.14,0.1,0.23,0.25,0.21c0.17-0.02,0.18-0.15,0.16-0.28c-0.02-0.19-0.04-0.38-0.07-0.57
		c-0.22-1.3-0.21-2.6,0.06-3.9c0.13-0.61,0.08-1.22-0.12-1.81C16.04,9.73,16,9.52,15.78,9.59c-0.21,0.07-0.13,0.26-0.09,0.42
		c0.15,0.56,0.2,1.11,0.08,1.69C15.65,12.35,15.6,13.02,15.53,13.62z M14.54,18.57c0.26-0.43,0.19-0.76-0.21-0.91
		c-0.15-0.06-0.32-0.08-0.47-0.06c-0.57,0.05-0.76,0.6-0.43,0.97c-0.03,0.05-0.06,0.09-0.09,0.14c-0.17,0.3-0.12,0.53,0.16,0.75
		c0.2,0.15,0.43,0.15,0.66,0.12c0.53-0.06,0.73-0.51,0.43-0.93C14.56,18.63,14.56,18.61,14.54,18.57z M15.92,18.84
		c-0.17,0.14-0.33,0.27-0.5,0.39c-0.1,0.07-0.22,0.12-0.14,0.26c0.08,0.14,0.22,0.11,0.33,0.04c0.16-0.1,0.33-0.2,0.46-0.34
		c0.28-0.29,0.45-0.64,0.36-1.06c-0.06-0.27-0.22-0.45-0.48-0.51c-0.27-0.07-0.53-0.05-0.74,0.17c-0.28,0.29-0.26,0.63,0.09,0.84
		C15.46,18.74,15.68,18.77,15.92,18.84z M16.82,17.66c0,0.31-0.01,0.58,0,0.86c0,0.12,0.09,0.18,0.22,0.17
		c0.12,0,0.24,0.01,0.36,0.03c0.13,0.02,0.24,0.09,0.23,0.25c-0.01,0.15-0.11,0.23-0.24,0.24c-0.16,0.02-0.32,0.01-0.48,0.01
		c-0.12,0-0.25-0.01-0.27,0.14c-0.02,0.17,0.11,0.21,0.24,0.22c0.22,0,0.44,0.01,0.65-0.03c0.3-0.06,0.49-0.33,0.49-0.59
		c0-0.28-0.22-0.52-0.53-0.59c-0.09-0.02-0.18-0.04-0.28-0.06c0-0.1,0-0.18,0-0.3c0.16,0,0.3,0.01,0.44,0
		c0.2-0.02,0.23-0.09,0.16-0.34C17.51,17.66,17.2,17.66,16.82,17.66z M16.21,13.83c-0.02,0-0.03,0-0.05,0
		c0.06,0.56,0.11,1.12,0.17,1.68c0.01,0.15,0.07,0.27,0.24,0.25c0.16-0.02,0.18-0.15,0.17-0.29c0-0.04-0.01-0.08-0.01-0.11
		c-0.03-0.74-0.07-1.49-0.1-2.23c0-0.12,0.04-0.25,0.01-0.37c-0.01-0.07-0.11-0.18-0.16-0.18c-0.08,0-0.19,0.07-0.24,0.14
		c-0.04,0.06-0.04,0.17-0.04,0.25C16.21,13.26,16.21,13.55,16.21,13.83z M14.97,13.75c-0.01,0-0.03,0-0.04,0
		c0.03,0.48,0.05,0.95,0.09,1.43c0.01,0.15,0.03,0.31,0.08,0.45c0.03,0.06,0.15,0.14,0.22,0.13c0.06-0.01,0.14-0.11,0.16-0.19
		c0.02-0.09,0-0.19-0.01-0.28c-0.09-0.8-0.14-1.6-0.07-2.4c0.02-0.2-0.05-0.31-0.2-0.31c-0.19-0.01-0.22,0.13-0.23,0.27
		C14.96,13.14,14.97,13.44,14.97,13.75z M16.93,11.05c0.01,0,0.03-0.01,0.04-0.01c-0.1-0.43-0.19-0.85-0.29-1.28
		c-0.03-0.15-0.13-0.22-0.28-0.17c-0.15,0.05-0.16,0.17-0.12,0.31c0.05,0.2,0.13,0.4,0.15,0.61c0.02,0.36,0.01,0.72,0,1.08
		c0,0.13,0.01,0.26,0.17,0.29c0.17,0.03,0.24-0.09,0.26-0.24C16.89,11.45,16.91,11.25,16.93,11.05z M15.69,11
		c-0.08-0.38-0.17-0.8-0.26-1.23c-0.03-0.15-0.13-0.21-0.27-0.18c-0.14,0.03-0.18,0.15-0.14,0.27c0.21,0.59,0.25,1.19,0.17,1.8
		c-0.01,0.07,0.09,0.19,0.17,0.22c0.12,0.04,0.19-0.06,0.21-0.17C15.61,11.49,15.64,11.28,15.69,11z M12.85,18.6
		C12.85,18.6,12.85,18.6,12.85,18.6c0-0.24-0.01-0.48,0-0.71c0-0.14-0.04-0.25-0.2-0.26c-0.16-0.01-0.21,0.11-0.21,0.25
		c0,0.49,0,0.97,0,1.46c0,0.14,0.04,0.25,0.2,0.25c0.18,0,0.21-0.12,0.21-0.27C12.84,19.07,12.85,18.83,12.85,18.6z"/>
	<path class="st0" d="M13.6,19.01c0.18-0.23,0.35-0.29,0.57-0.19c0.06,0.03,0.15,0.12,0.14,0.18c-0.01,0.07-0.08,0.17-0.15,0.21
		C13.96,19.31,13.77,19.24,13.6,19.01z"/>
	<path class="st0" d="M13.98,18.39c-0.17,0-0.33-0.1-0.33-0.21c0-0.12,0.17-0.24,0.34-0.23c0.15,0.01,0.29,0.05,0.32,0.22
		C14.34,18.28,14.17,18.39,13.98,18.39z"/>
	<path class="st0" d="M15.75,18.41c-0.18,0.01-0.33-0.1-0.32-0.23c0.02-0.17,0.13-0.22,0.28-0.22c0.17-0.01,0.31,0.1,0.31,0.23
		C16.01,18.36,15.86,18.38,15.75,18.41z"/>
</g>
</svg>
